{"glyphs":{"0":{"ha":712,"x_min":75,"x_max":609,"o":"m 115 122 q 85 187 96 162 q 75 233 75 212 q 80 323 75 282 q 107 397 85 364 l 154 473 q 179 496 161 482 q 218 523 197 510 q 260 544 239 535 q 292 553 280 553 q 311 548 304 549 q 323 547 319 547 q 332 549 329 547 q 338 553 336 551 l 372 553 q 416 547 397 553 q 457 524 435 541 l 500 481 l 526 468 q 545 447 540 459 q 552 421 550 435 q 558 395 555 408 q 570 372 561 382 q 583 357 577 361 q 592 349 588 353 q 600 338 597 345 q 606 319 603 332 q 607 304 606 314 q 608 282 607 294 q 609 259 608 271 q 609 237 609 247 q 606 220 609 231 q 599 197 603 209 q 591 177 595 186 q 587 167 588 168 q 579 146 585 159 q 565 118 572 132 q 551 92 558 104 q 540 75 544 80 q 514 60 524 68 q 498 44 505 52 q 485 29 492 36 q 469 19 479 22 q 449 11 459 14 q 428 5 439 7 q 406 0 417 3 q 385 -6 395 -2 l 351 -6 q 273 3 304 -6 q 217 28 242 12 q 170 68 193 45 q 115 122 146 92 m 132 281 q 139 242 132 267 q 158 192 146 218 q 185 145 170 167 q 213 113 199 123 q 252 93 229 102 q 300 77 275 83 q 349 66 325 70 q 391 62 374 62 q 399 64 396 62 q 405 69 402 66 q 411 75 408 72 q 418 79 414 77 q 434 85 428 83 q 445 90 440 87 q 454 97 450 92 q 465 109 459 101 q 479 126 471 119 q 495 139 488 133 q 509 154 503 146 q 518 174 515 161 q 519 180 518 176 q 520 190 519 185 q 522 198 521 194 q 522 202 522 201 q 527 217 524 211 q 531 230 529 224 q 535 243 533 236 q 536 260 536 250 q 532 300 536 282 q 509 332 528 318 q 506 345 506 341 q 505 352 505 349 q 502 371 505 363 q 494 385 499 378 q 483 399 489 392 q 469 415 476 406 q 440 447 453 437 q 415 461 427 456 q 388 469 402 465 q 356 484 374 473 l 292 484 q 286 482 291 484 q 274 477 281 480 q 259 470 267 473 q 247 463 252 466 q 207 431 227 452 q 170 383 186 409 q 142 330 153 357 q 132 281 132 302 z "},"1":{"ha":501,"x_min":45,"x_max":435,"o":"m 55 24 q 62 46 55 38 q 82 58 70 54 q 108 64 94 62 q 136 68 123 66 q 161 74 150 71 q 177 85 172 78 q 182 98 179 90 q 188 115 185 106 q 193 132 191 123 q 195 144 195 140 l 177 233 q 179 248 177 238 q 184 269 182 258 q 189 288 186 279 q 191 299 191 297 l 177 424 q 179 436 177 431 q 185 450 182 442 q 155 475 170 465 q 124 493 140 486 q 100 499 114 496 q 75 505 87 501 q 54 517 62 509 q 45 538 45 525 q 51 551 45 547 q 63 558 56 556 q 77 562 70 561 q 90 562 85 562 l 162 557 q 176 558 171 557 q 191 562 180 559 q 220 559 206 560 q 248 557 233 557 q 272 558 259 557 q 298 562 284 559 q 315 570 303 567 q 339 576 326 574 q 366 579 353 578 q 387 580 379 580 q 400 579 392 580 q 416 576 409 578 q 430 569 424 574 q 435 556 435 564 q 424 529 435 539 q 397 513 413 519 q 365 503 382 507 q 338 496 349 500 q 329 489 333 494 q 320 477 324 484 q 313 463 316 470 q 307 450 310 456 l 298 323 l 309 227 l 298 209 q 300 201 298 208 q 304 193 302 195 l 304 193 q 301 176 304 184 q 298 159 298 168 q 304 131 298 142 q 313 103 310 119 q 321 102 315 103 q 333 100 326 101 q 347 98 340 99 q 357 96 353 97 q 374 86 361 94 q 401 71 387 79 q 425 53 414 62 q 435 35 435 43 l 435 34 q 429 20 434 26 q 416 6 424 13 l 320 2 q 315 5 319 3 q 309 6 311 6 q 301 7 306 7 q 291 7 297 7 l 260 7 q 194 6 228 7 q 129 0 159 5 l 116 -7 q 79 3 95 -7 q 55 24 63 12 z "},"2":{"ha":637,"x_min":41,"x_max":583,"o":"m 41 8 q 47 22 43 12 q 54 40 52 33 q 65 49 57 44 q 82 58 73 54 q 100 67 92 63 q 113 75 109 72 q 137 91 125 84 q 163 106 150 98 q 188 121 176 113 q 212 140 201 130 q 255 184 233 158 q 297 241 278 211 q 328 303 316 271 q 340 365 340 335 q 334 393 340 379 q 316 417 328 406 q 291 434 305 427 q 260 441 276 441 l 234 432 l 208 432 q 195 431 202 432 q 182 422 189 430 q 164 402 172 415 q 148 378 156 390 q 129 358 139 367 q 104 350 119 350 q 89 351 96 350 q 77 358 81 352 l 77 378 q 80 405 77 396 q 88 419 83 414 q 101 430 94 425 q 117 447 109 435 l 126 458 q 142 478 134 469 q 159 497 150 488 q 179 513 168 506 q 203 524 190 519 l 255 530 l 288 537 q 327 534 304 537 q 371 526 349 532 q 414 509 394 519 q 448 484 435 499 q 455 471 452 478 q 462 463 458 463 l 483 428 l 483 350 q 474 327 483 337 q 457 307 465 316 q 456 304 456 306 q 453 296 455 302 q 448 281 451 291 q 438 257 444 272 q 437 255 437 256 q 435 254 435 254 q 424 243 427 249 q 418 232 420 238 q 412 221 415 227 q 404 210 410 215 q 390 201 397 204 q 376 196 383 198 q 362 193 369 195 q 348 188 355 192 q 342 184 347 188 q 333 176 338 180 q 323 167 328 171 q 317 162 319 163 q 311 159 316 162 q 300 151 306 155 q 288 142 294 146 q 282 137 283 138 q 273 128 279 134 q 261 115 267 122 q 251 102 255 109 q 247 92 247 95 q 250 88 247 88 l 273 88 q 305 86 290 88 q 334 79 319 85 l 368 79 q 441 84 404 79 q 510 104 477 90 q 517 113 516 108 q 520 122 517 117 q 544 142 529 134 q 572 159 558 151 l 583 124 q 577 101 583 113 q 565 75 572 89 q 561 58 563 71 q 555 33 559 46 q 544 10 551 20 q 526 0 537 0 l 515 -1 q 463 -9 488 -5 q 411 -13 437 -13 q 395 -10 403 -13 q 380 -4 388 -7 q 365 2 372 -1 q 350 5 357 5 q 319 3 336 5 q 290 -2 302 1 q 282 -6 288 -2 q 273 -13 276 -9 l 210 5 q 195 0 203 5 q 178 -6 187 -5 q 154 -8 165 -7 q 131 -11 142 -9 q 106 -12 119 -12 q 78 -13 94 -13 q 65 -12 72 -13 q 54 -9 59 -12 q 45 -4 48 -7 q 41 6 41 0 l 41 8 z "},"3":{"ha":519,"x_min":17,"x_max":417,"o":"m 17 -229 q 18 -208 17 -216 q 24 -196 20 -200 q 36 -189 28 -191 q 57 -183 43 -186 q 74 -176 63 -180 q 91 -172 85 -172 q 111 -177 102 -172 q 130 -188 120 -182 q 149 -199 139 -194 q 171 -204 159 -204 q 202 -198 187 -204 q 231 -183 218 -193 q 255 -160 244 -173 q 273 -134 266 -147 q 275 -123 274 -131 q 277 -111 277 -115 q 283 -107 279 -109 q 290 -103 287 -105 q 296 -98 294 -101 q 299 -89 299 -95 l 299 -21 q 296 -11 299 -17 q 289 1 293 -5 q 282 12 286 7 q 277 18 278 16 q 254 44 266 33 q 229 65 242 55 q 202 84 216 75 q 173 103 188 93 q 171 107 173 104 q 165 114 168 111 q 159 120 162 117 q 155 122 157 122 q 139 119 147 122 q 122 113 130 116 q 106 106 114 109 q 91 103 98 103 q 76 113 83 103 q 68 130 68 122 q 79 154 68 144 q 106 171 91 164 q 137 183 121 178 q 161 191 153 188 q 165 195 162 192 q 171 202 168 198 q 177 209 174 205 q 182 212 180 212 q 213 232 197 224 q 238 256 229 240 l 246 267 q 280 328 264 297 q 295 393 295 359 q 291 399 295 395 q 281 410 287 404 q 269 424 275 416 q 259 437 263 431 q 240 450 253 447 q 216 453 227 453 q 175 440 192 445 q 136 435 157 435 l 104 437 q 90 447 94 437 q 86 465 86 457 q 90 484 86 479 l 108 493 q 130 511 121 500 q 151 532 138 522 q 208 557 175 549 q 271 566 240 566 q 296 560 285 566 q 321 547 307 554 q 359 529 345 538 q 384 509 374 521 q 399 482 393 498 q 410 444 405 467 q 414 429 412 436 q 417 414 417 422 q 412 381 417 399 q 399 343 407 362 q 380 307 391 324 q 360 278 370 290 q 349 268 355 271 q 337 262 343 264 q 324 257 330 260 q 313 249 318 254 q 299 228 302 238 q 288 209 296 218 q 277 202 280 206 q 274 190 274 197 q 275 187 274 187 q 275 185 275 186 q 292 165 279 176 q 319 143 304 155 q 347 121 334 132 q 367 103 361 111 q 375 70 369 83 q 388 45 381 57 q 399 19 394 33 q 404 -18 404 5 q 403 -39 404 -25 q 399 -69 401 -54 q 394 -98 397 -85 q 388 -117 391 -112 l 370 -140 q 363 -151 366 -144 q 357 -165 360 -158 q 351 -178 354 -172 q 342 -190 347 -185 q 293 -231 325 -209 q 226 -273 262 -254 q 154 -304 190 -292 q 92 -317 119 -317 q 73 -308 81 -317 q 57 -290 65 -299 q 40 -279 47 -284 q 28 -267 33 -273 q 20 -251 22 -260 q 17 -229 17 -242 z "},"4":{"ha":669,"x_min":16,"x_max":657,"o":"m 286 -210 l 298 -174 l 294 -132 q 297 -105 294 -117 q 303 -80 300 -94 q 309 -52 307 -66 q 311 -24 311 -39 q 304 -11 311 -18 q 294 -1 297 -4 l 216 2 q 194 1 207 2 q 167 -2 181 1 q 138 -7 151 -5 q 112 -9 125 -9 l 86 -3 q 80 -5 84 -3 q 70 -9 77 -7 q 61 -7 64 -9 q 55 -3 58 -5 q 47 1 52 -1 q 35 3 43 3 q 28 3 31 3 q 22 2 26 3 q 17 20 18 13 q 16 39 16 28 q 17 60 16 53 q 22 77 18 68 q 81 163 54 120 q 134 251 108 206 l 149 277 q 157 283 153 281 q 165 287 161 285 q 173 290 169 288 q 181 298 177 292 q 183 308 182 301 q 184 317 184 314 q 190 322 186 318 q 198 330 194 326 q 206 339 203 334 q 210 345 210 343 l 220 370 l 233 381 q 238 392 234 384 q 247 408 242 399 q 257 424 252 416 q 264 435 262 432 q 266 443 264 437 q 268 448 267 448 l 304 486 q 306 491 304 489 q 308 496 307 494 q 309 500 308 497 q 311 507 310 503 q 313 514 312 511 q 315 517 314 517 l 336 540 q 350 559 345 551 q 362 574 356 568 q 377 584 368 581 q 401 587 386 587 q 420 570 413 587 q 430 533 427 554 q 434 492 433 512 q 435 463 435 471 l 435 431 q 424 412 425 420 q 422 392 422 404 q 426 374 422 380 q 430 358 430 368 l 424 310 l 424 298 l 430 277 l 420 155 q 422 136 420 145 q 438 124 425 126 q 461 122 450 123 q 484 122 472 122 q 507 122 495 122 q 532 124 519 123 q 553 135 543 134 q 578 136 564 136 q 598 132 585 136 q 624 120 611 127 q 647 104 637 113 q 657 85 657 95 q 653 52 657 68 q 642 23 650 36 q 620 3 633 11 q 587 -5 606 -5 q 572 -3 579 -5 q 558 1 566 -1 q 543 4 551 3 q 524 6 534 6 q 508 4 516 5 q 491 3 500 3 q 466 2 478 3 q 443 -4 453 1 q 427 -19 433 -9 q 420 -45 420 -28 q 419 -52 419 -47 q 419 -62 419 -57 l 419 -117 q 419 -129 419 -123 q 420 -137 419 -134 q 416 -157 416 -146 q 420 -170 416 -166 q 427 -184 425 -174 q 430 -208 429 -197 q 431 -231 431 -220 q 430 -255 431 -243 q 427 -277 429 -267 q 421 -291 427 -283 q 406 -307 414 -299 q 389 -319 397 -314 q 377 -325 380 -325 q 365 -318 371 -325 q 351 -311 359 -312 q 319 -301 329 -306 q 306 -288 309 -296 q 300 -268 302 -279 q 294 -236 299 -256 l 286 -210 m 144 129 q 151 116 144 121 q 166 109 157 111 q 185 107 175 107 q 205 106 196 106 q 234 109 214 106 q 277 115 255 111 q 315 126 298 119 q 332 142 332 132 q 331 163 332 150 q 329 190 330 177 q 327 214 328 203 q 326 225 326 224 l 319 237 q 318 249 318 242 q 318 265 318 256 q 316 291 318 277 q 310 314 315 304 q 297 332 305 325 q 276 339 289 339 q 253 329 264 339 q 231 306 241 319 q 213 277 221 292 q 199 254 204 263 l 154 164 q 146 146 148 152 q 144 129 144 140 z "},"5":{"ha":507,"x_min":70,"x_max":470,"o":"m 70 -254 q 81 -218 70 -237 q 110 -191 92 -199 q 162 -140 138 -165 q 200 -88 186 -115 q 204 -77 203 -83 q 206 -63 206 -71 q 207 -51 206 -57 q 210 -41 208 -45 l 222 -7 q 223 1 222 -1 q 224 7 224 3 q 225 13 224 10 q 230 18 227 15 q 234 25 232 20 q 235 37 235 29 l 232 66 l 239 102 q 233 118 239 107 q 218 141 227 129 q 200 165 210 153 q 185 184 191 177 q 183 187 184 185 q 180 190 182 189 l 179 193 q 165 205 176 197 q 144 221 155 213 q 124 238 133 230 q 113 251 115 245 l 110 272 q 100 289 104 281 q 93 302 96 296 q 89 316 90 309 q 87 336 87 324 q 88 352 87 345 q 90 365 88 359 q 93 379 91 372 q 99 397 95 387 q 97 406 98 401 q 96 413 96 410 q 99 440 96 429 q 108 460 102 451 q 120 479 113 470 q 132 498 126 488 l 132 516 l 153 538 q 172 561 164 552 q 189 576 180 570 q 210 583 198 581 q 240 585 222 585 q 271 583 255 585 q 303 576 287 580 q 335 570 319 572 q 366 567 351 567 q 397 575 382 567 q 424 594 412 584 q 446 613 436 605 q 463 622 456 622 q 467 619 466 622 q 469 612 469 616 q 470 604 470 608 q 470 597 470 600 l 470 596 q 463 564 466 578 q 456 542 459 552 q 451 530 453 532 q 448 523 451 527 q 444 516 446 519 l 431 503 q 426 487 428 496 q 421 469 424 477 q 412 453 418 460 q 396 447 407 447 q 348 451 370 447 q 303 461 325 456 q 259 472 281 467 q 214 476 237 476 l 182 476 q 166 460 172 473 q 160 435 160 447 q 176 413 160 431 q 212 374 192 395 l 237 350 q 259 322 248 336 q 275 298 270 307 q 293 270 281 283 q 315 241 304 257 l 326 215 q 341 200 338 204 q 343 193 343 197 q 345 172 343 182 q 354 159 347 163 l 354 130 l 348 64 l 354 47 q 353 33 354 41 q 351 16 353 25 q 348 -1 350 7 q 345 -15 347 -9 l 330 -32 q 325 -45 326 -37 q 322 -61 323 -53 q 320 -78 321 -70 q 315 -94 318 -87 q 296 -125 309 -105 q 266 -167 283 -144 q 230 -213 249 -189 q 191 -255 210 -236 q 153 -285 172 -273 q 121 -297 135 -297 q 104 -294 113 -297 q 87 -286 95 -291 q 75 -272 80 -280 q 70 -254 70 -264 z "},"6":{"ha":592,"x_min":67,"x_max":605,"o":"m 67 229 q 74 282 67 255 q 85 334 81 310 q 87 339 86 336 q 90 346 88 342 q 101 372 96 358 q 111 400 106 386 q 121 429 115 414 q 138 458 127 444 q 155 483 146 473 q 172 501 164 494 q 190 518 182 510 q 204 536 198 527 q 217 555 211 545 q 233 577 224 566 l 264 606 l 273 624 q 280 629 273 625 q 296 640 287 634 q 316 652 306 646 q 336 663 327 659 q 351 671 349 669 q 356 672 353 671 q 363 675 359 673 q 371 677 368 676 q 377 680 375 679 q 389 693 384 687 q 398 704 393 699 q 407 714 402 709 q 420 725 412 720 q 452 738 435 731 q 483 753 469 745 q 496 766 491 760 q 508 777 502 772 q 520 784 513 781 q 539 786 528 786 q 559 785 547 786 q 581 782 570 785 q 598 772 591 779 q 605 753 605 765 q 602 739 605 744 q 594 729 599 733 q 582 723 589 726 q 568 717 575 720 q 555 697 560 708 q 539 680 550 686 q 529 677 536 680 q 515 669 522 674 l 496 659 q 478 643 484 652 q 460 624 471 633 q 440 608 452 616 q 418 591 429 600 q 399 571 407 582 q 391 547 391 559 q 372 537 382 541 q 352 529 362 533 q 332 519 342 525 q 315 501 322 513 q 314 492 315 500 q 311 484 313 484 l 304 475 q 316 470 304 473 q 342 464 327 467 q 371 456 357 460 q 391 450 385 453 q 417 434 406 441 q 438 419 429 427 q 458 401 448 411 q 478 379 467 392 q 488 361 482 376 q 500 329 494 346 q 510 297 506 312 q 514 278 514 282 q 511 253 513 260 q 509 244 509 245 q 511 231 511 236 q 512 220 512 225 q 511 208 512 212 q 509 201 509 203 q 506 174 509 186 q 496 148 503 162 q 472 108 481 126 q 448 69 462 90 q 445 67 448 68 q 443 64 443 66 q 434 63 441 64 q 424 61 427 62 q 419 56 422 60 q 412 49 416 53 q 404 41 408 45 q 399 35 401 37 q 389 35 396 35 q 375 34 382 35 q 360 32 367 33 q 351 29 353 31 q 339 24 344 28 q 329 17 334 20 q 318 10 323 13 q 304 7 313 7 q 278 9 290 7 q 255 16 266 12 q 232 25 243 20 q 208 35 221 30 q 201 37 207 35 q 190 39 196 38 q 178 42 183 41 q 172 43 172 43 q 154 52 163 45 q 136 68 144 59 q 119 86 127 77 q 107 100 112 95 q 103 111 106 100 q 96 133 100 121 q 89 157 92 146 q 85 172 86 169 q 82 181 84 175 q 79 194 81 187 q 75 205 77 200 q 71 212 73 211 q 68 221 70 220 q 67 229 67 222 m 146 228 l 149 211 q 154 198 151 208 q 161 176 157 189 q 172 148 165 163 q 186 119 178 133 q 207 90 193 103 q 236 69 220 77 q 244 68 237 68 l 288 68 q 303 72 296 69 q 315 79 311 75 q 322 85 316 80 q 335 98 328 91 q 348 111 342 104 q 355 119 354 117 q 380 146 370 132 q 394 176 389 160 q 401 211 399 192 q 403 251 403 229 q 401 271 403 262 q 395 288 399 279 q 388 304 392 296 q 380 323 384 313 l 380 346 q 364 369 373 363 q 340 381 355 376 q 328 389 335 383 q 311 402 320 395 q 293 415 302 409 q 275 422 283 420 q 259 421 269 422 q 238 417 249 420 q 219 411 228 415 q 208 400 210 406 l 163 313 l 165 302 q 164 287 165 296 q 164 271 164 279 q 162 257 163 263 q 160 249 161 251 q 158 244 160 248 q 153 237 155 241 q 148 231 151 234 q 146 228 146 228 z "},"7":{"ha":635,"x_min":39,"x_max":557,"o":"m 317 -317 l 312 -311 l 317 -289 q 313 -269 313 -280 q 317 -254 313 -264 l 312 -233 q 328 -201 321 -218 q 340 -168 336 -184 l 352 -129 q 365 -98 355 -113 q 376 -68 374 -83 q 386 -27 379 -45 q 399 14 393 -9 q 402 26 401 22 q 404 35 404 30 q 402 41 404 39 q 401 50 401 44 l 404 66 l 405 70 q 407 75 406 75 q 412 80 409 77 q 419 88 416 84 q 426 96 423 92 q 429 101 429 100 l 435 122 q 449 167 442 143 q 469 209 456 191 l 469 227 q 472 259 469 243 q 478 290 475 275 q 485 323 481 306 q 490 360 488 340 q 484 388 490 377 q 466 405 477 399 q 442 412 456 410 q 415 414 429 414 l 365 414 q 309 420 336 417 q 253 422 282 422 l 241 422 l 233 428 l 124 428 q 109 413 115 428 q 95 381 103 399 q 75 349 87 363 q 42 334 62 334 q 39 340 39 334 l 39 357 q 41 380 39 370 q 46 399 43 391 q 51 416 48 408 q 54 432 53 424 q 55 450 55 438 q 57 475 56 462 q 61 503 58 489 q 68 529 63 517 q 80 547 73 540 q 100 555 88 555 q 111 551 108 553 q 116 546 114 549 q 119 540 117 543 q 124 532 120 536 q 137 529 125 532 q 163 523 149 526 q 190 517 177 519 q 206 515 203 515 q 213 515 210 515 q 219 517 216 516 q 225 519 222 519 q 233 519 229 519 q 261 516 248 519 q 290 511 275 513 q 337 508 314 511 q 383 505 360 505 q 412 509 397 505 q 424 511 418 511 q 437 511 429 511 q 448 510 445 511 q 460 501 452 509 l 534 501 q 541 499 536 501 q 548 493 545 496 q 554 486 551 490 q 557 481 557 483 q 549 435 557 456 q 542 395 542 414 l 547 350 q 541 315 544 334 q 534 276 538 296 q 523 239 530 257 q 504 209 516 222 l 504 153 q 492 132 496 143 q 477 109 487 120 q 470 98 474 104 q 465 89 465 92 l 473 66 q 471 61 473 64 q 465 53 468 57 q 459 45 462 49 q 455 40 456 41 q 449 21 450 31 q 447 2 448 12 q 443 -15 446 -7 q 429 -28 439 -23 l 429 -40 q 428 -63 429 -50 q 425 -89 427 -76 q 420 -113 422 -101 q 416 -134 418 -125 q 413 -142 416 -138 q 402 -168 406 -155 q 398 -193 399 -180 q 397 -220 397 -206 q 395 -248 397 -233 q 384 -269 392 -260 q 373 -290 376 -278 l 370 -302 q 358 -321 364 -315 q 330 -326 351 -326 q 317 -317 319 -326 z "},"8":{"ha":564,"x_min":79,"x_max":471,"o":"m 327 437 q 347 412 336 422 q 367 393 357 402 q 388 375 377 384 q 409 353 398 366 l 422 332 l 439 318 q 449 292 444 310 q 460 254 455 274 q 468 215 465 233 q 471 188 471 197 q 471 163 471 177 q 468 134 470 149 q 460 105 465 119 q 448 83 456 92 q 409 44 428 61 q 370 17 391 28 q 324 0 349 5 q 267 -6 299 -6 q 177 13 220 -6 q 104 69 134 31 q 88 110 98 90 q 79 153 79 131 q 83 183 79 168 q 95 212 88 198 q 110 240 102 227 q 125 267 118 254 q 134 291 132 279 q 148 313 137 302 q 164 330 155 321 q 183 349 174 339 q 198 369 192 358 q 204 393 204 380 q 197 415 204 404 q 178 437 189 427 q 155 458 168 448 q 132 475 142 468 q 120 497 129 478 q 102 537 112 515 q 86 578 93 559 q 79 604 79 598 q 89 687 79 648 q 120 756 98 726 q 175 804 141 786 q 256 821 208 821 q 318 816 288 821 q 378 797 348 810 q 406 771 393 788 q 430 735 419 755 q 448 694 441 715 q 457 654 455 673 q 449 611 457 636 q 428 561 440 586 q 401 514 416 536 q 374 480 387 492 q 364 471 372 476 q 348 460 356 466 q 333 449 340 455 q 327 437 327 443 m 204 87 q 239 59 218 71 q 283 47 260 47 q 313 55 299 47 q 338 77 328 64 q 355 105 349 90 q 361 136 361 121 q 357 154 361 146 q 353 174 353 163 q 357 189 353 177 q 362 199 360 193 q 366 208 365 205 q 355 242 366 220 q 330 283 345 263 q 297 318 315 303 q 267 332 280 332 q 225 317 240 332 q 201 281 210 302 q 190 235 193 259 q 183 191 186 210 q 180 181 182 189 q 179 170 179 173 q 183 159 179 168 q 187 148 186 151 q 191 136 188 144 q 197 118 194 128 q 202 100 199 109 q 204 87 204 91 m 183 650 q 190 606 183 633 q 209 552 197 578 q 239 508 222 526 q 277 489 256 489 q 287 490 280 489 q 302 494 294 490 q 303 499 302 495 q 303 508 303 504 q 304 517 304 513 q 306 522 305 521 q 308 527 306 524 q 312 533 310 530 q 317 540 315 537 q 322 545 320 543 q 328 557 323 547 q 334 572 333 567 q 339 582 336 575 q 347 596 343 589 q 354 608 351 603 q 357 615 357 614 q 352 639 357 627 q 345 663 347 651 q 340 690 342 677 q 335 715 338 703 q 326 739 332 728 q 309 759 320 749 q 299 766 305 762 q 287 775 292 771 q 276 782 281 779 q 270 786 271 785 l 254 786 q 214 772 229 786 q 193 738 199 759 q 184 694 186 718 q 183 650 183 670 z "},"9":{"ha":608,"x_min":-22,"x_max":533,"o":"m -22 -151 l -12 -138 q -12 -132 -12 -136 q -10 -122 -11 -127 q -9 -113 -9 -117 q -9 -108 -9 -109 q -3 -97 -6 -100 q 4 -92 1 -94 q 12 -87 7 -90 q 20 -79 16 -84 q 25 -71 24 -75 q 26 -63 26 -66 q 28 -56 27 -59 q 35 -50 30 -52 q 66 -31 53 -43 q 96 -8 79 -19 l 178 29 q 204 53 186 40 q 239 81 222 66 q 271 110 257 95 q 284 138 284 124 q 269 144 284 140 q 233 155 253 149 q 194 168 213 161 q 170 180 176 174 q 118 225 139 204 q 84 270 97 246 q 66 323 72 294 q 60 394 60 353 q 70 441 60 418 q 93 487 79 465 q 125 526 107 508 q 162 558 144 545 q 177 568 170 564 q 193 575 185 572 q 208 583 200 578 q 222 593 215 587 q 254 598 238 597 q 287 600 269 600 q 315 598 300 600 q 345 593 330 597 q 351 590 348 593 q 357 585 354 587 l 397 577 q 424 565 410 573 q 450 547 437 557 q 471 525 462 537 q 486 498 481 512 q 487 485 486 494 q 490 475 488 476 l 506 458 q 519 433 513 448 q 527 402 524 418 q 532 371 530 386 q 533 346 533 356 q 531 331 533 342 q 526 308 528 320 q 521 286 524 296 q 519 275 519 276 l 511 267 l 511 244 q 508 241 511 243 q 502 236 505 239 q 496 230 499 233 q 493 228 494 228 l 493 209 q 489 202 492 205 q 483 195 486 199 q 475 189 479 192 q 471 184 472 186 q 470 175 471 183 q 467 165 469 167 q 454 153 462 158 q 439 142 447 147 q 423 132 431 137 q 410 119 416 126 q 350 49 382 80 q 284 -13 317 18 q 277 -21 283 -14 q 269 -28 272 -27 q 262 -31 268 -28 q 252 -35 256 -33 q 221 -52 237 -41 q 191 -74 204 -62 l 175 -89 l 147 -95 l 132 -111 q 108 -128 121 -119 q 79 -145 94 -137 q 49 -159 64 -153 q 20 -164 33 -164 l -18 -157 l -22 -151 m 183 304 l 183 291 q 189 282 184 289 q 198 267 193 275 q 208 253 203 260 q 215 244 212 246 q 236 220 224 227 q 262 208 248 213 l 288 195 q 295 189 293 193 q 299 179 298 184 q 303 169 301 174 q 309 162 305 164 q 334 176 323 168 q 353 194 345 184 q 370 215 361 203 q 387 241 378 227 q 392 267 389 254 q 400 292 396 279 q 407 318 404 305 q 410 345 410 332 q 410 358 410 354 q 409 365 410 361 q 407 374 408 370 q 406 386 406 378 l 410 413 q 388 467 396 443 q 369 507 380 490 q 338 532 357 524 q 284 541 319 541 l 262 541 q 256 525 262 533 q 243 510 250 517 q 228 496 235 503 q 215 484 220 489 q 202 464 208 475 q 191 440 196 452 q 182 416 186 428 q 175 393 178 404 q 177 360 175 376 q 182 330 179 345 q 183 323 183 327 q 183 315 183 319 l 183 304 z "}," ":{"ha":292,"x_min":0,"x_max":0,"o":""},"!":{"ha":393,"x_min":73,"x_max":389,"o":"m 74 73 l 74 96 q 75 100 74 97 q 78 108 77 104 q 82 117 80 113 q 85 123 84 121 q 89 129 86 125 q 95 137 92 132 q 101 145 98 141 q 104 150 104 149 q 105 154 104 151 q 109 161 106 157 q 114 169 111 165 q 120 172 117 172 q 200 153 168 172 q 249 85 232 134 l 249 80 q 246 54 249 64 q 237 36 243 44 q 221 19 231 27 q 199 1 212 12 q 192 0 197 1 q 180 -3 186 -1 q 169 -5 174 -4 q 161 -7 163 -7 l 156 -7 q 137 -4 148 -7 q 114 5 125 -1 q 93 17 102 10 q 77 32 83 24 q 74 42 75 36 q 73 53 73 47 q 73 63 73 58 q 74 73 74 68 m 138 291 q 147 323 138 308 q 161 357 156 339 q 166 378 164 368 q 168 397 168 387 q 169 416 168 406 q 170 439 169 427 q 174 457 171 448 q 179 475 176 466 q 185 494 182 484 q 188 513 188 503 q 185 530 188 522 q 183 547 183 538 q 189 595 183 572 q 197 642 195 618 l 197 675 q 198 708 197 692 q 204 741 199 724 q 207 747 205 743 q 211 755 209 751 q 216 763 214 760 q 220 768 218 767 l 220 795 q 223 808 220 798 q 232 829 227 818 q 242 849 237 840 q 249 860 247 858 q 257 865 250 862 q 267 871 264 869 l 270 874 q 280 875 273 875 q 297 876 288 876 q 313 877 305 877 q 323 878 320 878 l 331 878 q 351 869 340 878 q 368 855 361 861 q 386 827 383 842 q 389 791 389 812 q 387 764 389 783 q 382 722 386 744 q 374 682 379 701 q 360 659 368 664 l 360 593 q 356 589 358 591 q 350 585 353 586 q 326 552 334 572 q 313 509 317 532 q 308 463 309 486 q 307 422 307 440 q 288 388 292 409 q 280 342 283 366 q 270 292 277 317 q 245 246 264 267 q 235 234 240 241 q 225 223 231 228 q 213 214 220 218 q 198 211 207 211 l 193 211 q 153 243 167 225 q 138 291 138 260 z "},"\"":{"ha":684,"x_min":161,"x_max":801,"o":"m 161 692 q 166 697 163 694 q 170 702 169 701 q 232 720 202 713 q 286 739 262 727 q 323 771 309 750 q 338 831 338 792 q 327 859 338 848 q 302 880 315 869 q 277 901 288 890 q 266 929 266 912 q 272 958 266 948 q 289 973 279 968 q 312 982 299 979 q 338 990 325 985 l 376 990 q 465 961 439 990 q 491 867 491 932 q 488 811 491 838 q 471 759 486 784 q 444 723 462 743 q 405 685 427 703 q 361 656 384 668 q 321 644 339 644 l 238 644 q 227 647 231 647 q 217 648 224 648 l 192 644 q 182 649 187 644 q 173 661 177 654 q 166 676 169 668 q 161 691 163 684 l 161 692 m 470 694 q 474 701 471 697 q 478 706 477 705 q 541 723 511 716 q 594 742 571 730 q 632 775 618 753 q 646 836 646 796 q 635 863 646 852 q 610 884 624 874 q 586 906 597 895 q 574 935 574 918 q 581 963 574 954 q 597 977 587 972 q 621 985 608 982 q 646 994 633 987 l 685 994 q 774 965 747 994 q 801 871 801 937 q 798 815 801 843 q 780 762 794 788 q 754 726 772 745 q 714 689 736 706 q 670 660 693 671 q 630 648 648 648 l 547 648 q 535 652 539 651 q 526 652 532 652 l 500 648 q 492 652 496 648 q 483 663 487 656 q 475 677 479 669 q 470 693 472 686 l 470 694 z "},"#":{"ha":1109,"x_min":71,"x_max":1093,"o":"m 540 111 q 544 131 540 121 q 553 148 548 140 q 563 166 558 157 q 568 185 567 175 q 570 202 569 196 q 572 212 571 208 q 575 219 574 216 q 578 227 577 222 q 583 234 581 229 q 587 245 585 238 q 589 255 589 252 q 591 262 590 259 q 596 270 593 266 q 606 283 599 275 q 605 291 605 288 q 605 298 605 294 q 605 307 605 302 q 606 319 605 312 q 608 326 606 322 q 610 332 610 329 l 609 332 q 607 333 608 332 q 605 333 606 333 q 572 331 595 333 q 517 323 550 328 l 452 332 q 435 326 435 332 l 392 326 q 383 309 392 314 q 377 303 380 307 q 370 299 374 299 q 371 290 370 294 q 371 283 371 286 q 369 262 371 269 q 361 254 366 256 q 361 217 361 232 q 357 193 360 201 q 349 185 356 191 q 338 178 341 180 q 332 163 333 170 q 331 148 331 157 q 330 136 331 138 q 325 123 328 127 q 319 117 322 119 q 314 111 317 114 q 310 98 312 107 l 274 85 q 264 92 270 85 q 252 106 258 98 q 241 122 245 115 q 237 130 237 129 q 240 150 237 141 q 247 166 243 158 q 254 182 250 174 q 260 201 258 191 q 262 211 261 203 q 266 222 262 218 q 272 240 267 231 q 279 260 277 248 q 280 266 279 262 q 281 276 280 271 q 282 285 281 281 q 283 291 283 290 q 292 301 284 294 q 302 313 300 309 q 301 320 302 316 q 298 325 301 325 q 277 316 287 319 q 266 313 267 313 q 260 315 262 315 q 255 315 258 315 q 242 313 248 315 q 231 309 236 311 q 219 306 225 307 q 207 304 214 304 l 162 310 q 144 306 149 307 q 136 305 140 305 q 116 307 127 305 q 95 312 105 308 q 78 322 85 315 q 71 340 71 329 q 74 354 71 346 q 82 370 77 362 q 93 384 87 378 q 104 393 99 391 q 159 400 137 398 q 201 401 181 401 q 231 401 216 401 q 261 400 245 401 q 283 394 277 395 q 290 393 289 393 q 334 417 321 402 q 352 451 347 432 q 360 493 357 471 q 374 540 363 515 q 380 548 376 545 q 387 552 384 550 q 392 558 390 555 q 395 568 395 561 q 394 570 394 568 q 393 572 393 571 q 386 573 389 572 q 381 574 384 573 q 376 576 379 575 q 366 578 372 577 q 359 576 362 577 q 350 576 355 576 l 324 581 q 312 578 318 581 q 300 571 306 575 q 287 565 294 568 q 274 562 281 562 l 231 572 q 213 567 218 569 q 205 566 209 566 q 185 567 197 566 q 164 573 174 569 q 148 584 155 577 q 141 603 141 591 q 144 616 141 608 q 152 632 147 624 q 162 647 156 640 q 173 656 168 653 l 192 656 l 330 663 l 357 654 q 377 660 367 654 q 399 667 387 665 q 410 665 403 667 q 418 663 416 663 q 420 664 418 663 q 422 667 422 666 q 449 726 437 693 q 467 789 461 758 l 467 806 q 471 813 467 809 q 475 821 474 818 q 484 831 481 827 q 486 844 486 836 q 492 872 486 859 q 506 897 497 885 q 526 918 515 908 q 551 935 538 928 q 567 929 560 935 q 577 915 573 923 q 582 898 581 906 q 583 886 583 890 q 577 873 583 877 q 572 865 572 869 q 576 850 574 859 q 578 838 578 841 q 576 827 578 831 q 571 819 574 823 q 565 813 568 816 q 559 806 562 810 q 556 798 558 804 q 552 782 554 791 q 548 766 549 774 q 546 754 546 758 q 542 726 546 737 q 533 706 538 715 q 522 688 528 696 q 514 667 517 680 l 606 663 l 656 663 q 681 663 668 663 q 705 665 693 663 q 727 670 717 667 q 744 678 737 673 q 748 691 744 679 q 758 718 753 703 q 767 746 763 732 q 771 762 772 759 l 771 783 q 776 790 772 787 q 784 797 780 793 q 791 804 788 800 q 795 813 795 808 q 799 843 795 829 q 808 869 802 857 q 820 893 814 882 q 832 915 827 904 q 841 917 837 916 q 848 918 845 918 q 864 916 858 918 q 871 911 871 913 q 882 893 876 900 q 892 882 888 886 q 890 873 892 879 q 885 861 888 867 q 880 849 882 854 q 878 844 878 844 q 879 830 879 836 q 879 821 879 825 q 878 810 879 814 q 875 804 877 807 q 871 799 873 802 q 864 791 868 796 q 860 783 861 787 q 858 773 859 779 q 855 762 857 768 q 848 746 853 755 l 853 724 q 852 711 853 718 q 849 698 851 705 q 844 686 847 691 q 836 678 840 680 l 882 682 q 895 676 889 682 q 909 671 900 671 q 925 676 917 671 q 945 682 934 682 l 1014 678 l 1065 682 q 1084 670 1078 682 q 1093 649 1090 659 q 1053 615 1075 627 q 1004 603 1031 603 q 994 603 996 603 q 991 604 991 603 q 966 599 978 602 q 951 595 954 596 q 943 591 948 593 q 930 589 938 589 q 917 595 923 589 q 902 593 906 593 q 896 593 899 593 q 872 593 878 593 q 864 595 865 593 q 842 584 850 587 q 823 581 833 581 q 805 584 810 584 q 797 585 800 585 q 780 563 785 574 q 771 541 774 552 q 767 517 768 529 q 763 490 766 505 q 754 474 760 484 q 741 455 747 465 q 729 438 734 446 q 724 427 724 430 q 727 418 726 422 q 730 412 729 413 q 748 415 737 414 q 771 418 759 417 q 794 419 783 419 q 813 420 805 420 l 840 412 q 856 416 847 412 q 876 420 865 420 l 945 415 l 996 420 q 1016 409 1009 420 q 1025 389 1022 398 q 935 340 991 340 q 927 342 931 340 q 922 344 922 344 q 913 340 920 344 q 903 337 905 337 q 891 335 897 337 q 880 332 886 334 q 864 328 871 328 q 853 330 858 329 q 845 332 849 331 q 840 332 841 332 q 833 331 836 331 q 826 331 829 331 q 800 331 805 331 q 795 332 795 331 q 773 320 783 321 q 755 318 764 318 l 702 328 q 696 318 697 325 q 696 305 696 311 l 674 254 q 671 245 673 251 q 669 235 670 240 q 668 224 669 229 q 668 217 668 219 q 666 195 668 203 q 660 180 664 187 q 650 166 656 174 q 636 148 644 159 q 633 137 633 140 q 633 126 633 130 q 634 119 634 123 q 633 115 634 117 q 633 111 633 113 q 626 102 631 109 q 618 95 621 96 q 616 85 618 92 q 614 76 614 79 q 596 68 605 71 q 578 66 588 66 q 567 72 574 66 q 555 85 561 77 q 544 100 549 92 q 540 111 540 107 m 522 595 q 492 592 503 595 q 475 582 481 589 q 467 563 469 574 q 464 535 465 552 q 455 508 463 517 q 448 498 448 498 q 448 494 448 497 q 446 486 447 490 q 445 479 446 482 q 445 475 445 475 q 435 463 439 467 q 426 456 430 458 q 420 450 422 454 q 418 439 418 447 q 416 420 416 437 l 416 400 l 531 407 q 548 406 535 407 q 593 400 561 405 q 623 401 608 400 q 648 407 637 401 q 654 421 650 407 q 663 454 658 435 q 673 489 668 472 q 680 513 677 507 q 683 518 682 517 q 686 519 684 519 q 690 520 688 519 q 694 524 692 521 q 705 583 705 548 q 687 598 695 595 q 670 601 680 601 l 586 585 l 522 595 z "},"$":{"ha":775,"x_min":55,"x_max":797,"o":"m 206 -47 q 208 -24 205 -34 q 213 -7 210 -15 q 220 9 216 1 q 227 28 224 18 l 228 31 q 192 44 210 38 q 156 58 174 50 q 152 62 155 60 q 149 63 150 63 q 132 74 144 66 q 107 90 120 81 q 82 106 94 98 q 68 116 71 113 q 58 130 62 121 q 55 148 55 139 q 57 163 55 155 q 63 181 60 172 q 69 199 66 190 q 73 216 72 208 q 74 237 73 222 q 77 268 75 251 q 82 303 79 286 q 90 336 85 321 q 100 360 94 351 q 114 370 106 370 q 132 361 124 370 q 145 342 140 353 q 153 319 151 331 q 156 300 156 307 q 154 273 156 287 q 153 237 153 260 q 163 197 155 219 q 182 153 170 175 q 208 111 193 131 q 240 79 222 92 l 242 85 l 251 121 q 252 124 250 122 q 257 129 254 126 q 264 134 260 132 q 269 137 267 136 l 266 170 q 270 186 267 179 q 279 199 274 193 q 288 211 283 205 q 294 224 292 217 q 299 235 296 227 q 305 250 302 242 q 310 266 308 258 q 312 276 312 273 q 316 294 313 278 q 325 328 319 310 q 337 361 330 346 q 351 376 344 376 q 364 404 359 389 q 373 434 369 418 q 379 467 376 450 q 386 497 382 483 l 392 511 q 354 561 374 536 q 318 611 334 585 q 306 642 312 623 q 295 680 300 660 q 288 718 291 699 q 285 749 285 736 q 286 775 285 764 q 291 794 288 785 q 298 812 294 803 q 311 832 303 821 q 321 853 317 843 q 328 873 325 863 q 334 894 331 884 q 342 916 337 905 q 360 936 347 925 q 389 956 374 946 q 417 972 404 965 q 435 981 431 979 q 441 985 437 982 q 451 990 446 987 q 462 996 457 993 q 469 1000 467 998 q 490 1001 480 1001 q 511 1002 500 1002 q 558 998 534 1002 q 561 1012 559 1005 q 563 1025 562 1019 q 566 1042 564 1034 q 571 1056 568 1050 q 582 1066 575 1062 q 600 1069 589 1069 q 621 1068 608 1070 q 645 1061 631 1067 q 668 1045 659 1055 l 671 1006 q 666 998 670 1004 q 660 989 661 991 q 659 980 659 985 q 659 971 659 976 q 689 960 673 966 q 722 955 704 955 l 772 969 q 789 960 781 969 q 797 943 797 951 q 776 893 786 922 q 762 841 766 865 q 756 815 758 828 q 751 788 753 803 q 747 754 749 772 q 741 710 745 735 q 733 711 736 711 q 726 712 730 711 q 719 714 723 713 q 707 720 714 716 q 698 755 702 735 q 691 794 694 775 q 683 828 687 813 q 671 850 678 844 q 667 852 669 850 q 662 859 665 855 q 657 865 660 862 q 654 868 655 867 q 652 874 654 869 q 647 883 650 878 q 641 892 644 888 q 637 897 638 897 l 631 903 q 630 893 630 898 q 631 876 630 888 q 624 858 629 867 q 612 839 618 848 q 598 822 606 830 q 587 806 591 813 q 578 783 574 788 l 578 781 l 576 759 q 566 722 574 739 q 550 696 557 705 q 550 683 549 688 q 551 674 552 677 q 550 655 551 662 q 547 643 549 648 q 543 636 545 639 q 537 630 540 633 q 530 612 534 625 q 524 588 526 600 q 534 578 529 583 q 545 567 540 572 q 553 558 549 562 q 557 553 556 555 q 571 542 563 548 q 587 527 579 535 q 599 510 594 519 q 604 492 604 501 q 627 467 618 479 q 640 444 635 456 q 650 418 646 431 q 659 389 654 405 l 675 363 q 673 304 675 334 q 666 246 671 275 q 651 190 661 217 q 625 138 642 163 q 609 114 618 128 q 590 86 600 100 q 568 61 579 73 q 545 45 556 50 l 514 41 q 509 37 513 41 q 500 28 505 33 q 492 20 496 24 q 488 14 488 16 q 474 5 484 9 q 454 -4 465 0 q 432 -11 443 -8 q 415 -13 422 -13 q 374 -9 393 -13 q 333 -2 354 -5 q 317 -15 329 -7 q 312 -24 313 -19 q 311 -34 311 -28 q 312 -46 311 -40 q 312 -59 313 -53 q 304 -70 308 -67 q 298 -75 300 -73 q 294 -81 296 -77 q 292 -96 292 -85 l 246 -101 q 234 -92 241 -100 q 221 -74 227 -83 q 210 -56 214 -64 q 206 -47 205 -48 m 524 249 q 518 299 524 279 q 502 336 512 319 q 477 370 491 353 q 450 407 464 386 q 442 391 444 399 q 439 376 441 383 q 444 342 444 351 q 441 328 444 334 q 432 316 435 322 q 428 304 429 310 q 425 295 426 298 q 424 290 425 291 q 420 285 424 288 q 412 279 416 282 q 402 274 407 276 q 397 272 398 272 q 393 253 393 267 q 391 226 392 240 q 389 198 391 212 q 384 180 388 185 q 379 175 382 178 q 373 170 376 172 q 369 164 370 167 q 369 161 368 162 q 370 153 370 155 q 372 146 371 150 q 373 140 374 143 q 371 124 374 131 q 365 113 369 118 q 357 106 361 109 q 351 102 353 103 q 349 78 349 86 q 339 66 349 69 q 340 60 339 64 q 342 51 341 56 q 429 79 391 56 q 501 138 467 102 q 515 160 510 147 q 522 187 519 172 q 524 217 524 201 q 524 249 524 233 m 399 768 q 427 734 414 753 q 450 696 439 715 q 454 711 452 705 q 461 723 457 718 q 468 734 465 728 q 476 750 472 741 q 500 819 492 783 q 519 888 509 854 q 528 913 522 902 q 541 941 534 925 q 542 942 541 941 l 541 942 q 534 941 539 942 q 524 939 530 940 q 512 936 517 937 q 505 934 507 935 l 444 929 q 420 908 429 925 q 407 872 412 892 q 399 833 401 852 q 397 804 397 814 q 397 798 397 802 q 397 787 397 793 q 398 777 397 782 q 399 768 398 771 z "},"%":{"ha":1140,"x_min":127,"x_max":988,"o":"m 206 -124 q 212 -104 208 -113 q 221 -89 216 -96 q 232 -75 227 -82 q 243 -58 237 -68 l 253 -40 q 260 -23 256 -29 q 269 -8 265 -17 l 283 24 q 287 27 283 25 q 293 31 290 29 q 300 35 297 33 q 304 38 304 37 l 311 67 q 317 81 313 75 q 328 92 322 87 q 338 103 333 98 q 347 114 343 108 q 354 123 349 117 q 363 137 359 130 q 371 151 368 144 q 375 160 374 157 q 382 176 376 162 q 398 206 389 190 q 417 235 408 222 q 434 248 427 248 q 467 300 454 270 q 492 355 481 330 l 534 413 q 554 459 547 442 q 567 485 562 476 q 575 496 572 493 q 581 500 578 498 q 601 541 588 518 q 628 587 613 563 q 657 634 642 610 q 686 679 673 658 q 709 716 699 699 q 722 743 719 733 q 738 770 729 758 q 766 782 746 782 q 785 780 774 782 q 802 773 793 779 q 820 758 810 767 l 813 722 q 807 715 812 721 q 801 708 802 709 q 792 682 794 696 q 783 654 791 668 q 772 643 779 646 q 755 633 765 640 q 751 624 753 629 q 749 608 750 620 q 714 555 728 574 q 693 528 701 536 q 683 517 686 519 q 680 516 680 516 q 680 516 679 517 q 682 508 681 515 q 676 491 679 497 q 670 480 673 484 q 664 474 667 477 q 658 469 661 472 q 652 460 656 466 q 644 448 648 454 q 637 434 640 441 q 634 422 635 427 q 624 394 631 405 q 611 376 617 382 q 599 365 604 369 q 592 358 593 361 q 588 351 592 355 q 583 345 584 347 q 573 322 578 332 q 561 304 568 312 q 545 289 553 296 q 528 273 536 281 q 518 259 522 267 q 512 245 515 252 q 508 215 509 224 q 503 202 506 207 q 485 182 490 193 q 478 170 479 172 q 473 165 477 168 q 465 160 469 163 q 456 156 460 158 q 450 154 452 154 q 441 138 446 149 q 433 113 437 126 q 425 88 429 100 q 416 72 421 77 q 412 68 415 70 q 405 63 408 66 q 399 59 401 61 q 397 56 397 57 q 399 48 399 51 q 399 43 399 45 q 397 37 399 39 q 384 13 394 21 q 369 3 374 5 q 361 -18 363 -10 q 351 -28 359 -25 q 350 -37 351 -31 q 347 -50 350 -43 q 343 -67 345 -60 q 337 -80 340 -75 q 327 -91 333 -86 q 312 -100 321 -96 q 305 -107 307 -103 q 301 -117 302 -112 q 299 -127 300 -122 q 296 -138 298 -133 q 287 -148 291 -146 q 280 -152 283 -151 q 275 -157 277 -154 q 269 -170 272 -161 l 229 -174 q 221 -165 225 -173 q 213 -149 216 -158 q 208 -133 210 -140 q 206 -124 205 -125 m 692 67 q 674 106 680 91 q 668 134 668 121 q 671 188 668 163 q 687 233 673 213 l 715 277 q 730 292 720 283 q 754 307 741 300 q 779 320 766 315 q 798 326 791 326 q 809 323 805 323 q 817 322 814 322 q 822 323 820 322 q 825 326 824 324 l 846 326 q 872 322 861 326 q 897 308 883 319 l 923 282 l 938 275 q 949 262 946 269 q 954 247 953 255 q 957 231 956 239 q 964 217 959 223 q 972 208 968 211 q 978 203 975 205 q 983 197 981 201 q 986 186 985 193 q 987 163 987 179 q 988 136 988 148 q 986 126 988 132 q 982 112 984 119 q 977 100 979 105 q 975 94 975 94 q 969 82 973 90 q 962 65 966 74 q 953 50 958 57 q 947 39 949 42 q 931 30 937 35 q 922 20 926 25 q 914 12 918 16 q 903 5 910 7 q 879 -3 892 -1 q 854 -9 866 -5 l 833 -9 q 786 -4 805 -9 q 753 11 768 1 q 725 35 739 20 q 692 67 711 49 m 702 163 q 706 139 702 154 q 718 110 711 125 q 733 81 725 94 q 750 62 742 68 q 773 50 760 55 q 803 40 787 44 q 832 34 818 36 q 857 31 847 31 q 865 36 863 31 q 873 41 868 40 q 883 45 880 44 q 890 48 887 46 q 895 52 892 50 q 901 60 898 54 q 910 70 905 66 q 920 78 915 74 q 928 86 924 81 q 933 98 932 91 q 935 108 934 101 q 936 115 935 115 q 941 132 939 125 q 944 150 944 138 q 942 174 944 163 q 928 193 939 184 q 926 201 926 199 q 926 205 926 203 q 919 225 926 218 q 903 243 913 232 q 886 262 894 256 q 871 270 879 268 q 855 275 863 273 q 836 284 847 277 l 798 284 q 787 280 797 284 q 770 271 777 275 q 747 252 759 265 q 725 224 734 239 q 708 192 715 208 q 702 163 702 176 m 151 460 q 134 499 140 484 q 127 527 127 515 q 130 581 127 556 q 146 626 133 606 l 174 671 q 190 685 179 677 q 213 701 201 693 q 238 713 226 708 q 258 719 250 719 q 269 716 264 717 q 276 715 273 715 q 281 716 279 715 q 285 719 283 718 l 305 719 q 332 715 321 719 q 356 701 342 712 l 382 675 l 397 668 q 409 655 406 663 q 414 640 412 648 q 417 624 415 632 q 424 610 418 616 q 431 602 428 604 q 437 596 435 599 q 442 590 440 594 q 446 579 444 587 q 447 557 446 572 q 448 529 448 541 q 446 519 448 526 q 441 506 444 513 q 437 493 439 498 q 434 488 435 488 q 429 475 433 483 q 421 459 425 467 q 413 443 417 450 q 406 433 408 435 q 391 424 397 429 q 381 414 385 418 q 373 405 377 409 q 363 399 370 401 q 339 390 352 392 q 313 384 326 389 l 293 384 q 246 389 264 384 q 213 404 227 394 q 184 428 198 414 q 151 460 170 442 m 161 556 q 166 533 161 547 q 177 503 170 518 q 193 474 184 488 q 210 455 201 461 q 233 443 219 448 q 262 433 247 437 q 292 427 277 429 q 317 425 307 425 q 325 429 322 425 q 333 435 328 433 q 343 438 339 437 q 349 441 347 439 q 355 445 352 443 q 361 453 357 448 q 370 463 365 459 q 379 471 374 467 q 388 479 384 475 q 393 492 391 484 q 394 501 393 494 q 395 509 395 508 q 401 525 398 519 q 404 543 404 531 q 401 567 404 557 q 387 587 399 578 q 386 594 386 592 q 385 598 385 597 q 379 618 385 612 q 363 636 372 625 q 346 655 353 650 q 331 664 338 661 q 315 668 323 666 q 296 677 307 671 l 257 677 q 246 673 256 677 q 230 665 236 669 q 206 646 218 659 q 184 617 194 633 q 168 585 174 602 q 161 556 161 569 z "},"&":{"ha":988,"x_min":92,"x_max":994,"o":"m 132 165 q 118 193 125 178 q 105 223 111 208 q 95 257 99 239 q 92 294 92 275 q 92 338 92 316 q 97 383 93 361 q 109 426 100 405 q 132 465 117 446 q 154 484 142 477 q 175 499 165 492 q 192 517 185 507 q 199 545 199 528 l 178 576 q 168 595 173 585 q 162 616 162 604 q 171 669 162 644 q 198 714 180 693 q 240 754 215 735 q 298 792 266 774 q 330 808 314 801 q 370 814 347 814 q 399 802 379 810 q 438 784 418 794 q 472 761 457 774 q 486 734 486 749 q 486 724 486 731 q 484 708 485 716 q 481 692 482 700 q 479 682 479 684 q 468 664 476 674 q 450 654 460 654 q 435 664 446 657 q 412 677 424 670 q 390 690 400 684 q 376 698 379 696 q 350 708 364 704 q 324 712 335 712 q 294 705 311 712 q 262 687 277 698 q 235 662 246 675 q 224 635 224 648 l 234 580 q 244 568 237 574 q 258 562 251 563 q 271 569 266 566 q 280 573 276 572 q 289 575 285 574 q 300 575 294 575 q 328 571 312 575 q 358 559 344 567 q 383 541 373 552 q 393 517 393 530 q 388 490 393 505 q 372 461 382 474 q 351 438 363 448 q 326 429 339 429 q 304 437 316 433 q 279 445 292 441 q 254 451 267 449 q 231 453 242 453 q 223 452 226 453 q 217 450 220 452 q 212 445 214 448 q 204 437 209 442 q 179 405 184 424 q 173 365 173 387 l 175 328 q 171 321 172 324 q 170 313 170 318 q 173 299 170 305 q 180 287 176 292 q 188 275 184 281 q 193 263 191 270 q 193 256 193 261 q 194 247 193 252 q 196 237 195 241 q 199 233 197 233 q 204 225 200 231 q 214 215 209 220 q 223 205 219 210 q 229 199 228 201 l 237 183 q 239 181 237 182 q 246 174 240 179 q 265 159 252 169 q 300 134 277 150 q 336 117 316 124 q 377 104 356 109 q 419 96 398 99 q 461 93 441 93 q 528 100 491 93 q 603 118 566 106 q 675 143 641 129 q 736 174 710 158 q 743 185 740 180 q 748 195 745 190 q 753 205 750 200 q 762 217 756 210 q 778 230 770 224 q 795 246 785 235 q 797 259 795 251 q 798 270 798 268 q 802 275 799 271 q 810 282 806 278 q 818 289 814 286 q 821 292 821 292 q 831 312 828 300 q 837 337 835 323 q 839 363 838 350 q 839 387 839 376 l 839 444 q 835 450 837 448 q 831 454 833 452 q 826 458 829 456 q 821 465 824 460 q 808 487 814 476 q 798 509 803 498 q 785 530 792 519 q 769 549 779 540 q 751 554 762 553 q 736 558 741 555 q 719 566 726 562 q 705 573 712 570 q 688 578 698 576 q 662 580 678 580 q 657 578 661 580 q 649 576 654 577 q 641 573 645 574 q 636 572 637 572 l 609 572 q 596 563 602 570 q 586 551 591 557 q 564 532 574 543 q 544 509 553 522 q 530 482 535 496 q 525 452 525 468 q 528 428 525 439 q 539 407 532 416 q 556 392 546 397 q 581 386 567 386 q 591 387 585 386 q 602 389 597 387 q 612 395 608 391 q 617 404 616 398 q 615 408 616 404 q 611 416 613 412 q 608 424 609 420 q 606 429 606 428 q 611 449 606 441 q 624 464 616 458 q 642 472 632 469 q 662 475 652 475 l 675 474 q 693 458 687 465 q 703 444 700 452 q 706 428 706 437 q 707 405 707 418 q 707 399 707 403 q 707 390 707 395 q 706 381 707 385 q 705 376 706 377 q 692 353 703 365 q 666 331 681 341 q 634 315 650 321 q 607 309 618 309 q 577 315 590 309 q 551 332 565 321 q 524 350 538 342 q 503 372 510 358 q 484 429 492 398 q 477 496 477 460 q 606 654 508 600 q 610 664 607 658 q 617 672 614 669 q 629 671 621 671 q 648 671 638 671 q 667 671 659 671 q 680 672 676 671 q 684 673 680 672 q 691 676 688 675 q 699 680 695 678 q 703 682 702 681 q 722 684 713 684 q 738 685 730 684 q 751 691 745 686 q 762 709 758 696 l 812 709 q 822 703 818 704 q 829 703 825 703 q 864 717 849 703 q 888 751 878 731 q 903 793 898 771 q 908 829 908 814 q 889 872 908 861 q 842 884 869 884 q 832 884 836 884 q 825 880 829 883 q 810 860 817 870 q 795 842 803 850 q 778 828 787 833 q 755 823 768 823 q 740 827 745 823 q 732 838 735 831 q 729 851 730 844 q 729 863 729 858 q 734 884 729 874 q 746 902 739 894 q 763 915 753 909 q 782 924 772 921 l 817 926 q 889 918 857 926 q 946 893 922 911 q 982 847 969 876 q 994 776 994 819 q 987 745 994 759 q 972 713 981 730 q 970 710 971 713 q 969 703 970 707 q 969 695 969 699 q 968 690 968 691 l 945 665 q 942 659 944 663 q 937 651 939 655 q 932 643 935 646 q 930 638 930 639 q 921 635 928 637 q 906 631 914 633 q 892 627 899 629 q 882 624 885 625 l 860 624 q 844 617 854 623 q 825 606 834 612 q 808 592 815 599 q 802 580 802 585 q 809 558 802 568 q 826 538 817 548 q 845 520 836 529 q 860 505 855 512 q 879 468 872 487 q 888 428 885 449 q 891 384 891 407 q 892 338 892 361 q 891 305 892 317 q 888 282 890 292 q 883 261 886 272 q 873 233 879 250 q 867 219 870 228 q 861 200 864 210 q 855 182 858 190 q 852 174 852 175 q 828 138 843 152 q 798 112 813 124 q 768 84 782 99 q 747 45 753 69 q 717 42 730 45 q 693 34 705 39 q 671 24 682 30 q 648 14 661 19 q 606 1 628 6 q 565 -13 585 -3 q 549 -12 557 -12 q 533 -12 542 -12 l 405 -18 q 394 -14 403 -17 q 375 -8 385 -12 q 355 -2 365 -5 q 343 1 346 1 l 326 1 q 288 14 311 3 q 242 42 265 26 q 199 74 219 58 q 170 102 180 91 q 162 116 165 109 q 155 132 159 124 q 147 145 151 139 q 136 156 143 152 l 132 165 z "},"'":{"ha":376,"x_min":161,"x_max":492,"o":"m 192 646 q 173 664 181 652 q 161 691 165 675 q 163 699 161 694 q 170 705 164 703 q 232 722 201 715 q 286 741 262 729 q 324 773 310 752 q 338 833 338 794 q 333 853 338 844 q 320 869 328 861 q 303 883 312 876 q 286 896 294 889 q 273 912 278 903 q 268 932 268 921 q 274 960 268 951 q 290 975 280 970 q 313 983 300 980 q 338 993 326 987 l 383 993 q 467 963 442 993 q 492 871 492 932 q 489 814 492 842 q 472 762 486 787 q 446 725 463 745 q 406 688 428 705 q 361 658 385 670 q 319 646 338 646 q 283 644 302 644 q 240 646 260 644 q 228 649 232 649 q 218 650 224 650 l 192 646 z "},"(":{"ha":401,"x_min":62,"x_max":578,"o":"m 578 915 q 574 902 578 912 q 565 881 570 892 q 555 859 560 869 q 547 847 550 849 q 519 830 535 836 q 491 813 504 824 q 418 745 456 777 q 346 675 381 714 q 344 667 346 674 q 341 659 342 661 q 331 625 335 642 q 315 591 326 608 q 299 578 309 582 q 280 568 289 574 q 248 534 267 556 q 213 487 230 512 q 182 437 195 462 q 165 395 169 412 l 165 368 q 160 352 163 358 q 154 342 157 347 q 147 332 151 337 q 140 319 143 328 q 128 267 132 296 q 121 207 123 238 q 119 146 119 176 q 118 94 118 117 q 117 78 118 87 q 117 58 117 69 q 118 34 117 47 q 122 11 119 22 q 132 -9 125 -1 q 147 -22 138 -18 l 147 -56 l 158 -61 q 157 -73 157 -66 q 157 -85 157 -79 q 159 -119 157 -102 q 168 -152 162 -136 q 183 -181 174 -168 q 205 -205 192 -195 q 224 -218 217 -215 q 236 -225 231 -222 q 244 -236 241 -229 q 253 -257 248 -242 q 259 -267 254 -260 q 264 -275 264 -273 l 264 -280 q 258 -298 264 -290 q 242 -312 252 -307 q 223 -320 233 -317 q 205 -323 213 -323 l 203 -323 q 170 -308 180 -315 q 154 -294 159 -301 q 145 -276 149 -286 q 131 -252 141 -267 q 128 -249 131 -252 q 121 -243 125 -246 q 114 -236 117 -239 q 110 -233 111 -233 q 109 -226 109 -231 q 107 -216 108 -221 q 106 -207 106 -211 q 105 -202 105 -202 q 96 -179 102 -191 q 85 -155 91 -167 q 75 -131 80 -142 q 69 -111 71 -120 l 69 -61 q 68 -56 69 -60 q 65 -47 67 -52 q 63 -39 64 -43 q 62 -34 62 -35 l 62 -21 q 63 21 62 -1 q 66 62 65 43 q 68 71 66 67 q 66 85 66 78 q 66 100 66 92 q 65 104 65 102 q 64 106 64 105 q 67 134 64 120 q 72 161 69 148 q 77 188 75 175 q 79 216 79 201 l 79 241 q 74 249 75 245 q 73 257 73 252 q 77 290 73 274 q 85 322 81 306 q 93 354 90 338 q 96 387 96 370 q 119 429 113 406 q 129 478 125 453 q 136 529 132 504 q 153 575 140 554 q 169 591 160 585 q 185 602 177 597 q 200 610 194 606 q 210 618 207 613 q 219 634 214 625 q 231 653 225 644 q 241 672 237 663 q 248 689 246 682 q 252 700 250 692 q 253 710 253 709 q 256 714 254 711 q 262 720 259 717 q 269 725 266 722 q 273 728 272 727 q 281 741 277 734 q 290 756 286 749 q 299 770 294 764 q 312 781 304 777 q 327 790 320 786 q 338 798 333 793 q 348 808 344 802 q 355 825 352 814 q 370 849 359 839 q 394 866 380 859 q 421 880 407 873 q 448 894 436 886 q 461 912 455 900 q 474 936 468 924 q 487 957 481 948 q 502 966 494 966 q 528 964 515 966 q 553 956 542 962 q 571 941 564 951 q 578 915 578 931 z "},")":{"ha":448,"x_min":-127,"x_max":389,"o":"m -127 -273 q -123 -260 -127 -271 q -114 -239 -119 -250 q -104 -217 -109 -227 q -96 -205 -99 -208 q -68 -188 -84 -195 q -40 -172 -52 -182 q 33 -104 -5 -136 q 106 -34 71 -72 q 107 -26 106 -33 q 111 -18 109 -19 q 121 17 117 -1 q 136 50 125 34 q 152 64 142 60 q 172 74 162 68 q 203 108 185 86 q 238 155 221 130 q 269 204 256 180 q 286 246 282 229 l 286 273 q 291 289 288 283 q 297 300 294 295 q 304 310 300 304 q 311 323 308 315 q 323 375 319 346 q 330 435 328 404 q 333 495 332 465 q 333 548 333 524 q 334 563 333 554 q 334 583 334 572 q 333 608 334 595 q 329 631 332 620 q 319 651 326 642 q 304 664 313 660 l 304 698 l 294 703 q 294 714 294 708 q 294 728 294 721 q 283 793 294 760 q 246 847 272 827 q 228 860 235 856 q 215 867 220 863 q 207 877 210 871 q 198 899 203 884 q 193 908 197 901 q 188 916 188 915 l 188 922 q 194 941 188 932 q 209 954 200 949 q 228 963 218 960 q 246 966 238 966 l 249 966 q 282 950 272 957 q 297 935 292 943 q 306 918 302 928 q 320 894 310 908 q 324 891 321 894 q 330 884 327 888 q 337 878 334 881 q 341 874 340 875 q 342 868 342 873 q 344 858 343 863 q 345 849 345 853 q 346 844 346 844 q 354 821 349 833 q 366 796 360 808 q 376 772 371 784 q 382 752 380 761 l 382 703 q 384 697 382 701 q 386 689 385 694 q 388 681 387 685 q 389 675 389 677 l 389 663 q 388 621 389 643 q 385 580 387 598 q 384 572 385 575 q 385 556 385 564 q 385 542 385 549 q 386 540 385 541 q 387 538 386 540 q 387 536 387 537 q 385 508 387 522 q 379 481 382 494 q 374 454 376 467 q 372 426 372 440 l 372 400 q 377 393 376 397 q 378 385 378 389 q 374 352 378 368 q 366 320 370 336 q 358 288 361 304 q 355 254 355 271 q 332 212 338 236 q 323 163 326 189 q 315 113 319 138 q 298 67 311 88 q 282 50 291 56 q 266 40 274 44 q 251 32 258 36 q 241 24 244 28 q 232 7 237 16 q 220 -11 226 -1 q 210 -30 214 -21 q 203 -47 205 -39 q 200 -58 201 -50 q 198 -68 198 -67 q 195 -72 198 -69 q 189 -78 192 -75 q 182 -83 185 -81 q 178 -85 179 -85 q 162 -115 170 -98 q 140 -140 154 -131 q 125 -148 132 -144 q 113 -156 119 -152 q 103 -167 108 -161 q 96 -183 99 -173 q 82 -207 92 -197 q 58 -224 71 -217 q 30 -238 44 -232 q 3 -252 16 -244 q -11 -270 -4 -258 q -23 -294 -17 -282 q -36 -315 -29 -306 q -50 -323 -42 -323 q -77 -321 -64 -323 q -102 -314 -91 -319 q -120 -299 -113 -309 q -127 -273 -127 -289 z "},"*":{"ha":716,"x_min":175,"x_max":771,"o":"m 364 509 q 368 536 364 523 q 375 562 371 549 q 382 587 378 574 q 385 614 385 600 l 380 614 q 371 608 378 614 q 352 593 363 602 q 331 576 342 585 q 314 561 321 567 q 307 555 312 561 q 301 548 302 549 q 291 543 298 547 q 276 535 283 539 q 262 527 269 531 q 254 522 256 524 l 247 522 q 236 526 241 522 q 228 535 231 530 q 223 548 224 541 q 221 561 221 555 q 225 584 221 576 q 237 594 230 591 q 254 599 244 597 q 273 606 263 601 q 277 610 274 607 q 283 616 280 613 q 290 623 287 620 q 292 627 292 626 q 302 634 294 629 q 319 647 311 640 q 336 659 328 653 q 347 665 345 664 q 349 671 347 667 q 351 680 351 676 l 351 683 l 351 685 q 350 689 351 687 q 347 692 348 691 q 326 689 334 690 q 309 687 317 688 q 292 685 300 686 q 273 685 283 685 q 248 687 264 685 q 216 695 232 690 q 187 708 199 700 q 175 726 175 715 q 187 743 175 735 q 214 758 199 751 q 245 768 230 764 q 267 772 260 772 q 314 768 290 772 q 362 764 338 764 l 393 764 q 376 788 387 778 q 354 808 366 799 q 329 826 342 817 q 306 844 316 834 q 295 853 302 846 q 279 869 288 861 q 264 884 271 877 q 254 894 257 891 q 248 906 250 900 q 247 918 247 911 l 247 930 l 247 954 q 258 966 252 964 q 273 968 265 968 q 298 962 286 968 q 319 948 311 956 l 444 823 q 450 828 448 823 q 451 838 451 833 l 451 846 q 448 872 451 860 q 444 900 444 884 q 445 943 444 922 q 451 987 446 964 q 457 999 452 992 q 469 1013 462 1006 q 483 1023 475 1019 q 497 1027 491 1027 q 502 1023 499 1025 q 510 1019 506 1020 q 525 1011 518 1015 q 538 1003 532 1007 q 546 992 543 998 q 549 976 549 986 q 544 941 549 958 q 533 906 539 924 q 519 871 526 889 q 510 836 513 854 l 510 810 q 505 801 509 804 q 498 793 502 797 q 492 786 495 790 q 490 777 490 783 q 491 765 490 773 q 499 757 493 757 l 503 757 q 506 768 504 760 q 510 777 508 776 q 528 805 516 788 q 555 842 540 823 q 588 880 570 861 q 623 914 606 899 q 657 939 641 929 q 688 948 674 948 q 703 946 695 948 q 717 941 711 945 q 728 932 724 938 q 732 918 732 926 l 732 915 q 712 870 724 891 q 686 831 701 848 q 679 823 684 828 q 673 815 674 819 q 654 801 669 812 q 623 777 640 790 q 592 753 606 764 q 574 739 578 742 q 568 732 568 733 q 569 729 568 731 q 570 723 570 727 q 596 721 585 723 q 623 718 608 718 q 646 722 637 718 q 668 726 654 726 q 700 726 682 726 q 734 720 718 725 q 761 704 750 715 q 771 675 771 694 q 751 633 771 647 q 705 619 732 619 q 679 625 692 619 q 653 633 667 631 q 617 640 631 638 q 584 642 604 642 q 574 640 581 642 q 568 640 572 640 l 562 627 l 634 555 q 648 529 643 545 q 654 500 654 512 q 651 480 654 490 q 643 462 648 470 q 630 449 638 454 q 610 444 621 444 q 576 456 592 444 q 546 486 560 468 q 521 526 532 505 q 501 565 510 547 q 485 595 492 583 q 473 608 478 608 q 471 607 472 608 q 469 606 470 606 q 466 604 467 606 q 464 601 464 602 l 464 496 q 461 473 463 486 q 454 447 459 459 q 440 426 449 435 q 418 418 432 418 q 388 425 398 418 q 373 444 377 432 q 367 471 368 456 q 364 502 366 486 l 364 509 z "},"+":{"ha":728,"x_min":81,"x_max":707,"o":"m 86 474 q 109 485 94 481 q 142 489 124 489 q 161 488 156 489 q 170 486 166 488 l 272 486 q 311 488 295 486 q 334 496 328 490 q 346 545 346 509 l 333 704 q 336 736 333 722 q 346 759 338 751 q 380 768 357 768 q 410 764 395 768 q 431 752 424 760 l 450 711 q 451 709 450 711 q 453 703 452 708 q 455 689 454 699 q 458 662 456 679 q 448 654 452 659 q 440 640 442 647 q 437 624 437 633 q 440 590 437 608 q 446 557 442 571 q 447 545 446 548 q 448 540 448 543 q 447 518 448 529 q 446 500 446 507 l 446 498 q 446 498 446 498 q 452 493 451 493 q 501 499 475 493 q 547 505 526 505 q 566 503 558 505 q 581 498 574 500 l 686 498 q 694 496 689 498 q 701 493 700 494 q 707 473 707 486 l 707 421 l 695 408 q 634 386 673 386 q 573 393 604 386 q 516 401 542 400 l 500 395 l 458 392 q 452 374 455 386 q 448 347 450 362 q 444 316 446 332 q 443 284 443 299 q 445 256 443 269 q 449 233 446 244 q 452 214 452 220 q 451 202 452 211 q 449 191 449 193 l 451 159 q 446 138 451 144 q 415 132 435 132 q 382 136 397 132 q 361 143 366 140 q 349 179 352 159 q 343 220 345 199 q 340 263 342 241 q 334 307 338 286 l 348 359 q 343 373 348 366 q 329 382 336 379 q 313 386 322 386 q 290 383 301 386 q 264 380 279 380 q 251 380 255 380 q 245 381 248 380 q 229 386 241 386 l 212 385 q 190 381 201 382 q 168 380 179 380 q 145 381 156 380 q 123 385 134 382 q 104 387 112 385 q 90 399 97 389 q 81 440 81 414 q 85 467 83 461 q 86 474 86 473 z "},",":{"ha":340,"x_min":-121,"x_max":210,"o":"m -121 -159 q -117 -154 -119 -158 q -113 -149 -114 -150 q -51 -132 -81 -139 q 3 -114 -20 -125 q 41 -81 26 -102 q 55 -21 55 -60 q 44 7 55 -4 q 19 28 33 18 q -5 50 6 38 q -16 80 -16 62 q -10 107 -16 98 q 6 121 -4 117 q 29 128 16 125 q 55 136 42 131 l 100 136 q 184 108 159 136 q 210 16 210 80 q 207 -41 210 -13 q 189 -93 203 -69 q 161 -129 180 -109 q 121 -167 143 -149 q 77 -197 100 -184 q 37 -209 55 -209 l -45 -209 q -56 -203 -53 -204 q -66 -203 -60 -203 l -92 -209 q -102 -203 -97 -209 q -110 -191 -106 -198 q -117 -176 -114 -184 q -121 -164 -119 -169 l -121 -159 z "},"-":{"ha":616,"x_min":129,"x_max":519,"o":"m 363 317 q 345 314 355 315 q 319 313 335 313 q 296 318 304 313 q 278 313 286 315 q 262 312 269 312 q 237 314 249 312 q 212 319 224 317 q 186 324 199 321 q 159 326 173 326 l 144 326 q 129 363 129 342 q 143 405 129 394 q 183 415 158 415 q 198 415 191 415 q 212 414 205 415 l 248 410 q 264 410 256 410 q 281 412 273 410 l 365 404 q 389 404 376 404 q 415 408 401 405 q 436 414 429 414 q 453 415 442 415 q 473 414 462 415 q 494 409 484 412 q 512 399 505 406 q 519 382 519 393 q 518 376 519 379 q 516 371 517 374 q 500 336 508 349 q 482 317 493 323 q 454 309 471 311 q 412 307 437 307 q 407 309 410 307 q 399 314 403 311 q 391 318 395 316 q 387 320 388 320 l 363 317 z "},".":{"ha":312,"x_min":-3,"x_max":189,"o":"m -3 132 q 11 146 -1 136 q 37 165 22 155 q 64 182 51 174 q 81 189 77 189 q 120 180 101 189 q 155 157 140 172 q 179 124 170 142 q 189 85 189 105 q 177 39 189 56 q 146 12 165 22 q 104 -1 127 2 q 58 -5 81 -5 q 28 8 40 -5 q 9 38 16 20 q -1 76 2 56 q -3 109 -3 95 l -3 132 z "},"/":{"ha":385,"x_min":-28,"x_max":637,"o":"m -27 5 q -21 24 -25 16 q -13 40 -18 33 q -2 54 -7 47 q 9 71 3 61 l 20 89 q 27 106 22 100 q 36 121 31 112 l 50 153 q 53 156 50 154 q 60 160 56 158 q 66 164 63 162 q 71 167 70 165 l 77 196 q 84 210 79 204 q 94 221 89 216 q 105 232 100 227 q 113 243 110 237 q 121 252 116 245 q 130 266 125 259 q 138 280 134 273 q 142 289 141 286 q 149 305 142 291 q 165 335 156 319 q 184 363 174 351 q 200 376 193 376 q 233 429 219 399 q 259 484 248 458 l 300 542 q 321 588 313 571 q 334 613 329 605 q 342 625 339 622 q 347 629 345 627 l 361 652 q 369 669 364 663 q 378 681 373 675 q 388 692 382 686 q 399 707 393 698 q 435 768 420 736 q 468 829 451 799 q 483 852 474 842 q 500 876 491 862 q 508 887 503 878 q 519 907 513 897 q 530 930 525 918 q 539 949 536 941 q 554 977 546 965 q 583 989 562 989 q 602 987 590 989 q 621 980 610 985 q 637 964 632 974 l 629 929 q 624 922 629 928 q 618 915 619 916 q 609 889 610 903 q 600 861 608 875 q 589 849 595 852 q 572 840 582 846 q 568 831 569 836 q 565 814 567 827 q 554 798 562 806 q 539 782 547 790 q 524 767 532 774 q 510 754 515 760 q 499 741 502 747 q 496 733 496 736 l 496 732 l 489 712 q 471 680 481 694 q 450 656 460 665 q 449 645 448 650 q 448 637 449 640 q 442 620 445 626 q 436 609 439 613 q 430 603 433 606 q 425 598 427 601 q 418 589 422 595 q 411 576 414 583 q 404 563 407 570 q 401 551 401 556 q 391 523 397 534 q 377 505 384 511 q 366 494 371 498 q 359 487 360 490 q 355 480 359 484 q 349 474 351 475 q 339 451 345 460 q 327 433 334 441 q 312 418 320 425 q 294 401 303 410 q 284 388 288 395 q 279 374 281 380 q 274 344 276 353 q 269 331 272 336 q 252 311 257 322 q 245 299 246 300 q 240 294 243 297 q 231 289 236 292 q 222 285 227 287 q 216 283 218 283 q 208 267 212 278 q 200 242 204 255 q 192 217 196 229 q 182 201 187 205 q 178 197 181 199 q 172 192 175 195 q 166 188 168 190 q 164 184 163 186 q 165 177 165 180 q 165 172 165 174 q 164 165 165 168 q 151 142 161 150 q 136 132 141 134 q 128 111 130 119 q 118 101 126 104 q 117 92 117 98 q 113 79 117 86 q 109 61 111 68 q 103 48 107 54 q 94 38 100 43 q 78 28 87 33 q 68 12 68 23 q 63 -9 67 1 q 54 -19 58 -17 q 47 -23 50 -22 q 41 -28 44 -25 q 36 -41 39 -32 l -4 -45 q -13 -37 -8 -44 q -20 -20 -17 -29 q -26 -4 -24 -12 q -27 5 -28 3 z "},":":{"ha":359,"x_min":-2,"x_max":338,"o":"m 144 501 q 159 515 147 505 q 186 535 172 525 q 213 552 200 545 q 231 559 227 559 q 271 551 252 559 q 305 527 290 542 q 329 493 320 512 q 338 454 338 475 q 326 408 338 426 q 295 381 314 391 q 252 367 275 371 q 205 363 228 363 q 177 376 189 363 q 158 408 165 389 q 148 446 151 426 q 144 479 144 465 l 144 501 m -2 128 q 12 140 0 131 q 38 159 24 150 q 65 177 52 169 q 83 184 78 184 q 123 176 104 184 q 158 152 143 167 q 182 119 173 138 q 191 80 191 100 q 179 34 191 52 q 148 7 167 17 q 105 -6 129 -3 q 59 -9 82 -9 q 29 3 41 -9 q 11 34 18 16 q 1 71 3 52 q -2 103 -2 90 l -2 128 z "},";":{"ha":381,"x_min":-113,"x_max":353,"o":"m -113 -128 q -108 -122 -112 -125 q -102 -117 -104 -119 q -41 -100 -71 -107 q 12 -82 -12 -94 q 49 -48 35 -70 q 63 13 63 -27 q 52 40 63 29 q 27 61 41 51 q 3 82 14 71 q -7 111 -7 94 q -1 139 -7 130 q 16 153 5 148 q 38 160 26 157 q 63 170 51 163 l 110 170 q 193 141 169 170 q 218 48 218 111 q 215 -8 218 19 q 200 -62 213 -36 q 172 -97 191 -78 q 133 -134 154 -117 q 89 -163 111 -151 q 48 -175 66 -175 l -35 -175 q -46 -172 -43 -172 q -58 -172 -50 -172 l -81 -175 q -91 -170 -86 -175 q -100 -159 -96 -165 q -108 -145 -104 -152 q -113 -132 -111 -138 l -113 -128 m 159 501 q 174 514 161 505 q 200 533 186 524 q 228 551 214 543 q 245 558 241 558 q 286 550 266 558 q 320 527 305 541 q 344 493 335 512 q 353 453 353 474 q 341 409 353 426 q 311 381 330 391 q 268 367 292 371 q 220 363 245 363 q 191 376 203 363 q 173 408 180 389 q 162 445 165 426 q 159 477 159 465 l 159 501 z "},"<":{"ha":751,"x_min":120,"x_max":840,"o":"m 317 245 l 308 265 q 275 290 283 284 q 267 296 267 296 q 255 302 259 296 q 248 316 251 308 q 244 332 245 324 q 242 344 243 340 q 232 349 236 347 q 223 354 227 351 q 217 361 220 357 q 210 374 214 366 l 181 419 q 159 429 171 422 q 138 446 148 436 q 124 469 129 456 q 124 495 120 481 q 143 522 129 511 q 176 543 158 534 q 211 560 193 552 q 241 575 229 568 q 252 582 246 576 q 263 592 258 587 q 275 603 269 598 q 284 608 280 608 q 302 621 295 616 q 316 629 310 626 q 328 636 322 633 q 343 646 334 640 q 350 654 347 650 q 354 661 353 658 q 369 675 356 667 l 417 690 l 476 734 q 494 736 486 734 q 501 739 498 738 q 510 747 507 742 q 522 754 513 751 q 550 771 539 765 q 566 781 560 777 q 575 786 572 784 q 598 797 585 787 q 623 819 610 807 q 647 841 635 831 q 667 854 659 852 q 686 863 680 858 q 698 872 693 867 q 709 883 703 878 q 724 893 714 888 q 749 905 736 900 q 774 915 762 910 q 800 925 787 920 q 825 937 813 930 q 836 920 831 931 q 836 894 840 908 q 821 868 830 878 q 800 853 812 859 q 775 839 789 846 q 748 820 762 832 q 727 813 741 820 q 698 796 713 806 q 669 778 683 787 q 649 765 655 768 q 640 760 647 764 q 626 750 633 755 q 612 741 619 745 q 604 734 606 736 l 549 704 q 534 691 543 699 q 516 676 525 684 q 497 664 507 669 q 479 659 487 659 q 475 661 475 659 q 471 655 473 659 q 465 647 469 651 q 459 640 462 643 q 454 635 456 636 q 448 632 450 633 q 441 630 442 630 q 416 617 425 627 q 393 602 406 608 q 357 581 372 588 q 330 567 342 573 q 303 552 317 560 q 269 532 289 545 q 270 510 265 520 q 281 500 274 500 q 321 463 304 481 q 358 424 338 444 q 363 419 359 422 q 370 415 368 416 q 378 409 372 415 q 393 396 385 404 q 408 383 401 389 q 418 376 415 377 q 423 359 420 362 q 430 355 426 355 q 438 354 433 355 q 449 344 443 353 q 456 329 450 339 q 468 308 461 318 q 483 289 475 297 q 496 281 490 281 q 521 259 508 270 q 545 236 534 248 q 553 226 550 231 q 559 217 556 221 q 565 209 562 212 q 575 201 568 205 q 593 188 583 195 q 613 171 604 180 q 627 151 623 162 q 627 124 632 139 q 614 102 624 115 q 592 77 605 89 q 563 57 578 65 q 533 48 547 48 q 513 58 522 48 q 497 75 505 67 q 481 81 492 79 q 463 88 471 82 l 443 130 l 429 137 q 419 150 422 142 q 412 168 416 159 q 402 186 408 177 q 385 201 396 195 q 372 211 379 203 q 359 227 366 218 q 348 241 353 235 q 341 248 342 248 l 317 245 z "},"=":{"ha":656,"x_min":54,"x_max":648,"o":"m 54 220 q 56 234 54 223 q 62 249 59 244 q 70 268 65 258 q 82 288 75 279 q 98 302 89 296 q 121 310 108 309 l 155 310 q 186 317 172 311 q 216 323 201 323 l 252 313 q 269 316 261 313 q 283 318 276 318 q 306 316 296 318 q 327 311 317 313 q 346 306 336 309 q 367 304 356 304 q 407 309 385 304 q 448 313 428 313 l 473 310 q 485 312 479 310 q 495 317 490 314 q 506 321 500 319 q 518 323 511 323 q 547 316 534 323 q 563 294 559 308 l 555 276 q 549 260 551 265 q 543 252 546 256 q 535 243 539 248 q 526 227 531 238 l 524 215 q 487 195 509 201 q 449 190 466 190 l 377 196 q 280 195 330 196 q 180 191 231 194 q 134 186 157 190 q 90 182 111 182 q 65 194 77 182 q 54 220 54 205 m 163 532 q 170 550 167 541 q 177 566 173 559 q 188 578 181 573 q 208 585 195 583 l 242 585 q 272 592 258 585 q 303 598 287 598 q 312 597 309 598 q 320 593 316 595 q 328 590 323 591 q 338 589 332 589 l 370 593 l 454 578 l 534 589 l 560 585 q 582 591 571 585 q 604 598 592 598 q 631 591 619 598 q 648 569 644 583 l 632 514 l 624 495 q 587 476 608 481 q 549 471 566 471 l 477 476 q 431 476 456 476 q 378 475 405 476 q 326 474 351 475 q 281 473 301 473 q 235 467 259 471 q 190 463 212 463 q 178 466 184 463 q 166 474 172 469 q 156 485 160 479 q 152 498 152 492 l 163 532 z "},">":{"ha":750,"x_min":-4,"x_max":747,"o":"m 389 251 l 366 251 q 354 244 363 251 q 333 230 345 238 q 308 214 321 222 q 284 204 294 207 q 262 189 273 198 q 242 171 252 180 q 223 154 233 162 q 205 141 214 146 l 189 136 l 140 92 q 117 86 129 87 q 96 79 105 85 q 69 62 82 71 q 44 54 56 54 q 19 62 29 54 q 3 82 9 71 q -3 106 -2 94 q -1 129 -4 119 q 16 155 4 144 q 43 175 28 166 q 73 191 58 184 q 101 204 89 197 q 116 212 110 208 q 129 221 123 216 q 140 231 134 226 q 155 241 146 236 q 193 263 173 252 q 231 285 213 275 q 250 293 237 285 q 277 311 263 300 q 302 332 290 321 q 319 347 314 342 q 337 357 331 356 q 347 359 342 359 q 356 363 351 360 q 372 379 361 366 q 386 388 374 382 q 411 401 397 395 q 434 414 424 408 q 446 419 445 419 q 456 424 450 420 q 463 429 462 428 q 525 467 495 448 q 589 505 555 486 q 598 507 593 505 q 608 514 603 510 q 617 524 613 518 q 623 535 621 529 q 603 557 612 549 q 585 572 593 565 q 566 586 576 578 q 543 606 556 593 q 536 613 538 609 q 531 622 534 618 q 525 630 528 626 q 515 636 521 633 q 512 636 514 636 q 509 637 511 636 q 504 638 506 637 q 502 645 502 641 q 501 653 501 650 q 499 660 500 657 q 493 663 497 663 q 479 668 485 663 q 468 682 473 674 q 460 696 464 689 q 454 707 457 704 l 420 741 q 415 745 418 741 q 407 753 411 749 q 399 763 403 758 q 394 768 395 767 q 382 780 390 771 q 365 799 374 789 q 346 816 355 808 q 328 823 336 823 q 315 843 323 836 q 299 856 307 850 q 288 871 292 863 q 290 897 284 880 q 307 923 294 911 q 331 941 320 935 q 347 928 338 933 q 366 918 356 923 q 385 908 376 913 q 401 897 394 903 q 410 886 408 892 q 415 876 412 881 q 421 866 417 871 q 435 858 425 862 q 445 845 440 856 q 455 823 450 835 q 466 801 460 810 q 481 789 473 791 l 484 788 q 486 786 486 787 q 506 766 499 774 q 515 753 512 758 q 520 746 519 749 q 525 743 522 744 q 532 742 528 742 q 539 741 535 741 q 548 741 543 741 q 554 732 551 738 q 561 719 557 726 q 568 706 564 712 q 576 696 572 700 q 603 679 594 686 q 616 666 612 671 q 621 657 620 661 q 623 650 621 654 q 631 641 627 644 q 640 635 635 638 q 649 627 645 631 q 659 614 654 623 q 664 609 662 614 q 668 597 666 604 q 672 586 670 591 q 677 578 675 580 q 698 564 685 571 q 723 547 711 556 q 741 526 734 538 q 742 498 747 514 q 725 472 738 485 q 697 450 713 460 q 665 432 682 439 q 638 422 649 425 q 623 414 632 421 q 606 399 614 407 q 589 384 597 391 q 578 378 581 378 q 564 365 570 370 q 552 357 557 360 q 541 353 547 355 q 527 347 535 351 q 516 336 523 344 q 502 320 510 328 q 486 306 494 312 q 470 299 477 299 q 465 298 469 299 q 461 297 463 297 q 438 289 448 294 q 416 276 427 285 l 389 251 z "},"?":{"ha":498,"x_min":79,"x_max":612,"o":"m 79 71 q 84 103 79 83 q 98 142 89 123 q 120 175 107 161 q 148 189 132 189 q 191 186 168 189 q 234 173 214 182 q 267 147 254 163 q 280 106 280 131 q 273 75 280 90 q 256 47 266 60 q 234 21 245 34 q 214 -3 222 9 q 206 -6 210 -6 q 196 -7 201 -7 l 180 -7 q 144 -2 162 -7 q 112 12 126 3 q 88 36 97 22 q 79 71 79 51 m 135 319 q 137 335 135 330 q 143 343 140 340 q 151 350 146 347 q 161 361 156 354 q 159 386 159 374 q 160 411 159 398 q 161 437 161 423 q 159 459 161 448 q 153 479 157 469 l 153 585 q 154 589 153 585 q 158 601 156 594 q 162 613 160 607 q 165 623 164 620 q 183 653 173 641 q 205 675 193 665 q 231 694 217 685 q 258 715 244 703 q 284 724 272 718 q 311 732 297 730 q 317 733 312 732 q 329 734 323 734 q 339 736 334 735 q 345 736 344 736 q 350 741 347 737 q 356 748 353 744 q 363 755 360 752 q 366 759 366 759 q 372 761 369 759 q 376 764 376 762 q 385 765 378 764 q 400 768 392 766 q 414 770 408 769 q 425 771 421 771 q 434 781 431 776 q 441 790 438 786 q 448 799 444 795 q 460 807 452 803 q 468 811 462 808 q 481 818 475 814 q 495 825 488 822 q 503 829 501 828 q 510 840 505 831 q 520 859 515 848 q 530 878 526 869 q 534 890 534 887 q 527 906 534 897 q 510 922 520 914 q 490 934 500 929 q 471 939 479 939 q 448 936 460 939 q 425 930 437 933 q 401 924 413 926 q 376 921 389 921 q 331 930 349 921 q 297 960 314 940 l 297 962 q 309 1009 297 989 q 341 1043 321 1029 q 385 1063 361 1057 q 432 1070 408 1070 l 442 1070 q 524 1040 491 1061 q 576 987 556 1019 q 604 916 596 956 q 612 829 612 876 l 612 820 q 612 810 612 817 q 610 798 611 804 q 609 787 610 791 q 608 781 608 782 q 600 767 605 773 q 588 755 594 761 q 577 742 583 749 q 569 728 572 736 l 515 675 q 507 672 514 675 q 498 667 500 669 q 495 664 498 667 q 488 657 492 661 q 481 652 485 654 q 476 649 477 649 q 470 648 475 648 q 459 647 465 648 q 448 646 453 646 q 442 645 443 646 q 427 634 436 643 q 407 616 417 626 q 387 599 397 606 q 372 591 378 591 l 323 591 q 306 577 317 583 q 289 562 296 572 q 258 494 266 530 q 246 422 251 459 q 237 402 243 411 q 231 385 231 394 q 237 369 231 378 q 249 349 242 360 q 261 325 256 338 q 267 296 267 311 l 267 285 q 250 275 256 279 q 235 272 244 272 q 209 277 225 272 q 176 289 192 282 q 147 305 159 296 q 135 319 135 313 z "},"@":{"ha":1050,"x_min":138,"x_max":1078,"o":"m 629 277 q 633 283 631 279 q 637 292 635 287 q 642 302 640 297 q 646 309 644 307 q 649 328 649 317 q 648 332 648 330 q 648 337 648 334 q 645 345 648 340 q 637 350 642 350 q 635 349 635 350 q 633 347 634 349 q 628 346 630 347 q 625 345 627 345 q 623 342 624 342 q 621 340 621 341 q 618 337 621 339 q 612 331 615 334 q 606 326 609 328 q 602 323 604 323 l 562 297 q 558 292 561 296 q 551 284 555 288 q 544 277 547 281 q 538 273 540 274 q 499 246 522 256 q 454 233 476 235 l 434 233 q 415 234 425 233 q 395 236 405 234 q 393 237 395 236 q 390 241 391 239 q 366 262 376 248 q 351 293 357 277 q 348 308 348 301 q 347 325 347 315 l 347 339 q 351 359 347 350 q 359 376 354 368 q 379 421 368 399 q 401 463 389 444 q 409 475 405 469 q 416 486 412 481 q 418 490 416 487 q 420 494 419 492 q 427 503 422 496 q 437 515 432 509 q 448 528 443 522 q 454 536 452 534 q 463 543 457 541 q 472 549 469 545 l 528 597 l 528 598 q 529 600 528 599 l 530 601 q 537 608 532 602 q 549 621 543 614 q 560 633 555 627 q 567 642 566 640 q 571 645 568 643 q 575 648 574 646 l 576 649 l 580 649 q 583 650 581 649 q 592 655 588 651 q 599 662 595 659 q 651 694 625 683 q 710 712 677 706 q 732 715 722 715 q 755 715 743 715 l 760 715 q 771 711 766 714 q 781 706 775 707 q 785 705 783 705 q 789 704 787 704 l 804 704 l 805 705 q 814 714 810 709 q 823 725 818 720 q 841 742 831 734 q 863 749 850 749 l 869 749 q 884 729 880 740 q 888 704 888 718 q 881 667 888 682 q 864 633 873 651 q 861 621 862 626 q 859 611 860 616 q 857 604 859 607 l 784 454 q 782 449 782 451 q 781 445 781 448 q 781 434 781 437 q 770 411 775 422 q 760 387 766 399 l 760 385 q 756 376 758 380 q 753 370 755 373 q 751 366 752 367 q 748 360 750 363 q 747 352 747 357 q 748 339 747 345 q 757 333 749 333 q 770 337 765 333 q 781 345 775 340 l 857 389 q 861 392 859 390 q 866 394 863 393 q 905 428 886 410 q 941 465 925 446 q 968 507 957 485 q 983 554 980 529 q 987 578 986 566 q 988 603 988 591 q 986 623 988 612 q 982 644 983 633 q 955 711 966 682 q 928 762 943 741 l 927 762 l 880 826 q 843 845 859 833 q 808 867 827 857 q 769 891 787 881 q 732 905 751 902 q 718 902 723 903 q 709 901 712 901 l 699 901 q 689 901 692 901 q 681 899 685 901 l 656 910 q 617 907 637 910 q 582 888 596 904 q 512 877 540 885 q 462 854 484 869 q 422 818 440 840 q 382 767 404 797 l 365 749 l 340 711 q 334 700 336 707 q 332 685 332 692 l 299 603 q 289 566 292 588 q 283 529 286 545 q 280 519 283 526 q 275 506 278 513 q 271 491 273 498 q 269 479 269 484 q 285 378 272 423 q 317 296 298 333 q 324 279 322 288 q 329 260 326 270 q 337 240 332 250 q 357 222 343 230 q 374 190 364 207 q 398 163 384 174 q 414 149 407 157 q 427 134 420 142 q 441 116 434 125 q 460 98 449 107 q 478 93 468 96 q 498 87 488 90 q 515 81 507 84 q 526 77 522 78 l 567 64 l 629 66 q 659 70 646 68 q 683 71 672 71 q 714 69 703 71 q 730 67 726 67 q 738 65 734 67 q 751 63 741 63 q 766 65 760 63 q 778 69 772 66 q 788 74 783 72 q 804 79 794 77 q 818 87 805 80 q 846 103 831 95 q 874 119 861 112 q 888 125 887 125 q 917 120 909 125 q 925 106 925 115 q 915 82 925 95 q 898 61 905 68 q 882 40 888 47 q 870 28 875 32 q 861 23 865 24 q 852 22 857 22 q 836 20 843 22 q 823 14 829 18 q 784 1 805 7 q 736 -5 762 -5 l 738 -3 q 727 -5 734 -5 q 711 -5 720 -5 l 621 -5 q 603 -5 611 -5 q 591 -3 595 -5 q 551 0 571 -3 q 510 7 530 3 q 469 17 490 12 q 429 26 449 22 q 426 27 429 26 q 421 31 422 29 q 340 83 383 60 l 317 88 q 302 98 313 89 q 277 118 290 107 q 254 140 264 130 q 242 155 243 151 l 189 249 q 176 287 184 261 q 158 341 167 313 q 144 396 150 370 q 138 434 138 422 q 140 445 138 441 q 143 456 143 449 l 138 495 q 141 533 138 511 q 150 579 145 555 q 159 624 154 603 q 165 659 163 646 q 168 665 166 661 q 172 672 170 668 q 176 680 174 676 q 180 684 178 683 q 190 701 186 692 q 196 717 193 709 q 201 733 198 725 q 209 749 203 741 q 216 759 212 755 q 224 764 220 762 q 230 771 228 767 q 233 783 233 775 l 312 863 l 369 890 q 372 895 370 892 q 378 902 375 899 l 411 913 l 501 956 l 676 990 l 713 990 l 747 975 l 766 977 l 812 962 q 831 955 818 960 q 858 944 844 949 q 884 933 872 939 q 901 924 897 928 q 932 897 919 907 q 962 876 945 887 q 980 859 968 872 q 1002 830 991 846 q 1023 801 1014 815 q 1033 783 1031 787 q 1034 766 1034 774 q 1035 751 1034 758 q 1039 738 1036 744 q 1049 728 1042 732 q 1060 680 1055 705 q 1069 633 1065 654 q 1076 595 1073 611 q 1078 577 1078 580 q 1076 553 1078 562 q 1070 532 1073 545 q 1053 509 1059 519 q 1046 493 1046 499 q 1032 471 1036 481 q 1023 453 1027 462 q 1013 436 1019 445 q 994 418 1007 428 q 955 386 970 398 q 925 365 939 374 q 895 346 911 355 q 857 323 880 336 l 812 286 l 808 281 q 800 276 806 280 q 793 271 795 272 q 781 264 788 266 q 768 258 774 262 q 748 243 757 252 q 729 230 739 235 l 707 222 l 704 222 l 660 230 q 656 231 659 231 q 654 233 655 232 q 651 233 652 233 q 644 239 648 235 q 638 245 640 242 q 629 271 629 258 l 629 277 m 469 334 q 472 318 469 326 q 484 307 475 311 q 489 302 486 304 q 495 300 492 300 q 525 308 513 300 q 549 328 537 315 q 572 348 559 335 q 598 374 585 361 q 629 405 613 389 l 686 479 l 713 511 l 745 574 l 760 627 q 760 630 760 628 q 760 633 760 632 q 759 645 760 639 q 753 654 758 651 q 749 660 751 659 l 747 662 l 745 662 q 743 663 743 662 q 738 663 741 663 q 734 664 734 663 l 725 664 l 723 663 q 715 660 721 663 q 703 655 709 658 q 692 650 697 652 q 684 646 686 647 q 679 644 681 645 q 676 641 677 642 q 668 634 674 640 q 655 622 662 628 q 642 610 648 615 q 634 603 635 604 l 627 597 l 620 597 l 568 542 q 559 522 561 534 q 556 515 557 519 q 554 508 555 511 q 542 493 549 499 q 530 480 535 487 q 522 467 526 477 q 515 456 517 458 l 472 379 l 472 374 q 470 354 471 365 q 469 334 469 344 z "},"A":{"ha":993,"x_min":-121,"x_max":1019,"o":"m -121 12 q -117 28 -121 19 q -107 44 -113 37 q -95 58 -102 52 q -81 66 -87 64 q -73 67 -79 66 q -59 68 -66 68 q -45 70 -52 69 q -37 71 -39 71 q 3 80 -18 73 q 46 99 25 88 q 87 121 67 109 q 122 143 106 133 q 127 149 123 144 q 139 159 132 153 q 152 171 145 165 q 163 180 159 177 q 169 189 165 184 q 175 193 174 193 q 191 212 183 205 q 207 224 199 218 q 225 234 216 229 q 245 246 234 239 q 260 260 254 252 q 272 278 267 269 q 282 298 277 288 q 294 317 288 309 q 327 352 312 338 q 363 379 342 365 q 377 392 373 383 q 387 407 381 401 q 408 420 397 414 q 429 433 418 426 q 449 447 439 439 q 467 466 458 455 q 471 472 469 467 q 477 483 474 477 q 482 493 479 488 q 485 500 484 498 q 499 510 488 505 q 521 521 509 515 q 542 533 532 527 q 554 548 552 540 l 554 569 q 557 576 554 571 q 564 586 560 581 q 570 596 567 591 q 574 603 573 601 q 577 607 575 605 q 581 609 580 609 q 599 619 593 614 q 609 631 605 625 q 619 646 614 638 q 635 662 624 653 q 649 672 642 667 q 665 683 657 677 q 681 693 673 688 q 692 706 688 699 q 726 744 708 727 q 763 778 744 762 q 800 809 781 793 q 838 842 819 825 q 887 893 863 868 q 930 945 910 919 q 975 958 953 958 q 1007 944 995 958 q 1019 910 1019 929 q 1014 873 1019 890 q 1000 838 1008 855 q 983 805 992 821 q 967 772 974 789 q 965 764 967 771 q 962 755 963 757 q 948 732 958 741 q 935 711 939 722 q 935 705 935 709 q 933 697 934 701 q 931 689 932 692 q 930 684 930 685 q 924 664 928 673 q 913 646 919 654 q 900 629 907 637 q 889 609 894 620 q 865 535 876 572 q 842 463 854 498 q 825 420 836 442 q 808 374 814 397 q 807 368 807 373 q 808 358 807 362 q 808 353 808 354 q 795 322 806 336 q 776 293 785 309 q 774 288 776 292 q 773 281 773 284 q 768 269 771 279 q 763 245 766 258 q 757 220 760 232 q 755 205 755 209 q 745 183 751 193 q 735 164 740 174 q 726 143 730 154 q 723 119 723 133 q 724 116 723 117 q 724 114 724 115 q 747 88 733 98 q 773 69 760 79 q 795 47 786 60 q 804 11 804 34 q 798 9 802 11 q 793 7 794 8 q 786 6 791 7 q 775 6 781 6 q 765 5 770 5 q 759 5 760 5 q 707 11 733 9 q 656 13 682 13 q 599 11 627 13 q 541 5 570 8 q 532 1 535 3 q 521 -1 529 -1 q 502 0 513 -1 q 480 5 490 1 q 463 17 470 9 q 456 37 456 24 q 469 65 456 57 q 499 76 482 73 q 534 80 517 79 q 559 87 551 81 q 580 107 573 98 q 591 126 587 116 q 596 148 595 136 q 600 176 597 159 q 602 186 600 182 q 606 192 604 190 q 612 197 608 195 q 622 205 616 200 q 634 231 629 214 q 644 267 640 248 q 650 304 648 286 q 652 331 652 321 q 651 341 652 335 q 648 353 650 347 q 642 363 646 359 q 635 367 639 367 l 585 367 q 553 379 571 379 q 533 378 547 379 q 505 376 519 377 q 478 372 490 374 q 461 367 465 370 l 427 330 q 390 287 406 311 q 358 237 375 262 q 334 212 351 229 q 301 174 318 194 q 271 135 284 154 q 258 106 258 116 q 270 86 258 92 q 295 77 281 81 q 320 68 309 73 q 331 53 331 64 q 329 39 331 47 q 322 25 326 32 q 314 13 319 18 q 304 5 309 7 q 259 -2 279 3 q 215 -6 238 -6 l 146 0 q 124 -5 134 0 q 100 -11 113 -11 q 96 -9 99 -11 q 89 -6 92 -8 q 81 -2 85 -4 q 75 0 77 -1 q 59 -3 67 0 q 43 -9 51 -6 q 28 -16 36 -13 q 12 -19 20 -19 l -27 -15 q -43 -17 -36 -15 q -58 -19 -51 -19 q -73 -16 -62 -19 q -94 -8 -83 -13 q -113 2 -104 -3 q -121 12 -121 7 m 625 507 q 633 476 625 487 q 663 466 642 466 q 701 478 683 466 q 732 507 719 491 q 740 523 738 513 q 743 542 741 532 q 748 559 745 551 q 759 572 751 567 l 773 583 q 776 594 775 587 q 779 609 777 601 q 781 624 780 616 q 784 636 782 631 q 791 643 787 637 q 797 649 795 648 q 795 660 797 658 q 789 662 793 662 q 759 656 770 662 q 740 643 748 651 q 726 627 732 635 q 711 614 720 619 q 707 612 711 613 q 700 609 704 610 q 692 605 696 607 q 688 603 688 604 q 686 601 687 602 q 685 599 686 600 q 684 598 684 599 l 681 593 q 662 574 672 583 q 644 554 652 564 q 631 532 636 544 q 625 507 625 521 z "},"B":{"ha":865,"x_min":28,"x_max":835,"o":"m 126 6 q 110 8 121 6 q 86 12 99 9 q 62 16 73 14 q 47 19 52 18 q 40 20 45 19 q 33 22 35 21 q 30 24 31 22 l 28 27 l 28 62 q 33 67 28 64 q 42 73 37 70 q 56 81 48 77 q 59 83 56 81 q 66 88 62 85 q 74 92 70 90 q 79 94 77 94 q 91 97 81 94 q 111 101 100 99 q 132 105 121 103 q 146 108 142 107 q 163 129 155 114 q 175 155 172 144 q 193 205 185 179 q 207 257 200 231 q 222 308 214 283 q 239 358 229 334 q 254 399 244 379 q 273 440 264 420 q 279 458 277 449 q 282 478 281 468 q 285 498 283 488 q 290 517 287 508 q 322 617 308 567 q 353 718 337 667 q 363 744 357 731 q 375 771 369 758 q 385 798 380 785 q 389 825 389 811 q 372 874 389 859 q 330 897 355 890 q 276 906 304 904 q 224 916 248 909 q 214 925 216 921 q 212 934 212 928 q 215 946 212 940 q 224 958 219 953 q 236 967 230 964 q 247 970 242 970 l 248 970 q 257 968 252 969 q 264 967 262 967 l 401 961 q 417 961 410 961 q 432 962 425 961 q 441 954 435 956 q 455 949 448 951 q 469 948 462 948 q 481 947 476 947 l 538 947 q 552 938 545 939 q 567 937 558 937 q 584 942 576 937 q 601 947 592 947 q 624 944 609 947 q 655 938 640 942 q 684 927 671 933 q 701 913 697 921 q 721 915 711 915 q 756 906 740 915 q 784 883 772 897 q 805 852 796 869 q 821 820 814 836 q 826 809 823 813 q 831 800 829 804 q 834 791 833 796 q 835 780 835 787 q 829 750 835 766 q 814 720 823 735 q 796 691 806 705 q 779 667 786 677 q 764 652 774 664 q 743 627 754 641 q 721 600 732 612 q 707 581 711 587 q 682 549 693 564 q 670 513 670 534 q 670 509 670 512 q 670 502 670 506 q 670 495 670 498 q 671 492 671 492 l 716 452 q 755 367 743 410 q 768 273 768 324 q 763 258 768 264 q 758 241 758 253 l 764 202 q 760 189 763 197 q 754 170 758 180 q 746 153 750 161 q 737 142 741 144 q 733 140 736 142 q 725 136 729 138 q 716 132 720 134 q 713 128 713 130 q 709 124 711 127 q 704 118 707 121 q 700 112 702 115 q 697 108 698 109 q 681 91 688 96 q 668 83 675 86 q 653 77 661 80 q 635 67 646 74 q 632 63 634 66 q 628 57 630 60 q 625 52 626 54 q 623 50 623 50 q 611 40 618 45 q 594 32 603 35 q 577 25 585 28 q 564 20 569 22 l 561 19 l 540 19 l 387 6 l 319 11 l 292 6 l 239 11 q 189 5 213 11 q 144 0 165 0 q 134 1 137 0 q 126 6 130 1 m 326 124 q 333 102 326 110 q 351 90 340 94 q 374 85 362 86 q 396 85 387 85 l 422 85 q 430 88 425 85 q 441 94 435 91 q 452 100 447 97 q 458 103 457 103 l 486 104 q 514 115 505 106 q 534 132 523 123 q 559 149 547 142 q 582 164 571 156 q 601 184 593 173 q 614 212 610 195 q 615 224 614 217 q 616 238 615 231 q 619 251 617 245 q 627 262 621 258 q 631 292 628 274 q 635 328 635 310 q 634 331 635 328 q 631 337 633 334 q 629 343 630 340 q 627 346 627 346 q 612 380 620 364 q 596 410 605 396 q 577 438 587 425 q 555 467 567 452 l 547 477 q 515 488 533 484 q 483 492 498 492 q 467 489 478 492 q 443 481 455 486 q 421 470 431 476 q 410 460 411 465 q 400 389 407 422 q 385 323 393 356 q 372 311 376 321 q 367 289 368 301 q 367 266 366 277 q 366 249 367 254 l 356 235 q 356 229 356 234 q 355 218 355 224 q 353 208 354 213 q 353 202 353 203 q 348 187 351 197 q 340 164 344 176 q 332 141 336 152 q 326 124 328 130 m 458 577 q 460 565 458 572 q 467 551 463 557 q 475 541 471 545 q 485 537 480 537 q 517 538 499 537 q 553 542 535 539 q 588 550 571 545 q 618 563 605 555 q 653 602 637 575 q 679 661 668 629 q 695 723 689 692 q 701 774 701 754 l 701 780 l 668 846 q 659 855 665 850 q 647 866 654 861 q 634 874 640 871 q 623 878 627 878 q 571 868 589 878 q 546 844 554 859 q 534 806 538 828 q 522 760 530 785 q 512 737 517 750 q 502 711 507 724 q 493 684 497 697 q 485 659 488 670 l 484 654 l 484 621 q 479 608 484 613 q 471 599 475 604 q 462 590 466 595 q 458 577 458 585 z "},"C":{"ha":694,"x_min":96,"x_max":808,"o":"m 96 212 q 104 304 96 258 q 126 396 113 351 q 157 486 140 442 q 194 572 175 530 q 218 613 203 591 q 238 654 232 635 l 242 667 q 252 697 247 682 q 265 727 258 712 q 281 755 272 742 q 304 780 291 769 q 312 786 306 781 q 327 797 319 791 q 340 808 334 803 q 347 815 347 813 q 352 820 349 816 q 358 830 355 825 q 363 839 361 835 q 366 845 366 844 q 389 870 376 857 q 416 895 402 882 q 445 918 431 907 q 473 937 459 928 q 492 945 482 943 q 513 950 501 947 q 519 954 513 951 q 532 962 525 958 q 546 969 539 966 q 555 972 552 972 q 589 969 567 972 q 636 960 612 966 q 681 945 660 954 q 710 928 702 937 l 794 928 q 800 924 797 928 q 804 916 802 921 q 807 907 806 911 q 808 901 808 903 q 804 874 808 891 q 793 839 799 857 q 781 805 787 821 q 773 780 775 789 q 768 751 770 767 q 761 720 766 734 q 745 696 755 706 q 713 686 734 686 q 704 691 709 686 q 695 703 699 696 q 689 716 692 709 q 685 728 686 724 q 682 733 684 728 q 678 745 680 739 q 674 759 676 752 q 671 771 672 766 l 671 773 q 676 791 671 783 q 681 812 681 800 q 679 830 681 819 q 672 854 676 842 q 662 878 668 867 q 649 893 656 888 l 631 893 q 617 896 623 895 q 604 897 612 897 q 581 895 593 897 q 553 889 570 892 q 533 870 542 880 q 516 850 524 860 q 498 829 507 840 q 477 810 489 819 q 465 794 471 805 q 454 772 459 784 q 446 750 450 761 q 437 731 441 739 l 405 683 q 385 648 396 667 q 366 610 374 628 q 365 605 366 609 q 363 598 363 600 q 350 567 358 583 q 334 537 342 552 q 317 507 325 522 q 304 474 309 491 q 304 465 304 473 q 305 450 305 456 q 305 443 305 446 q 304 439 305 440 q 300 427 303 433 q 294 416 298 422 q 287 406 290 411 q 281 394 283 400 l 273 346 q 260 317 270 331 q 244 289 250 302 q 242 276 243 285 q 240 257 241 267 q 239 239 239 248 q 238 228 238 231 q 248 183 238 208 q 274 136 258 158 q 309 100 290 115 q 346 85 328 85 q 354 86 351 85 q 359 88 357 87 q 365 92 361 90 q 376 98 368 95 l 431 125 q 465 158 446 135 q 504 203 484 180 q 544 244 524 227 q 578 262 563 262 q 586 257 585 262 q 588 248 588 253 q 587 240 588 244 q 587 235 587 236 q 581 205 587 220 q 566 175 575 190 q 546 148 557 161 q 524 125 535 134 q 510 112 520 121 q 488 92 500 102 q 466 72 477 81 q 450 60 455 62 q 445 57 449 59 q 437 53 441 55 q 429 48 433 50 q 425 45 425 46 l 401 28 q 394 24 398 25 q 386 24 389 24 l 373 24 l 363 22 q 349 18 355 21 q 337 11 343 15 q 322 1 330 5 q 297 -3 314 -3 q 293 -2 296 -3 q 287 2 290 0 q 281 5 284 3 q 278 7 279 7 q 268 7 276 7 q 250 9 260 8 q 232 11 241 9 q 222 12 224 12 q 173 36 190 19 q 147 76 156 54 q 132 122 138 98 q 116 169 126 146 q 114 172 116 170 q 109 177 111 174 q 104 183 106 180 q 102 186 102 186 q 98 199 99 189 q 96 212 96 210 z "},"D":{"ha":982,"x_min":24,"x_max":974,"o":"m 354 846 q 349 853 353 848 q 341 866 345 859 q 333 879 337 873 q 328 887 330 885 q 327 888 328 888 q 321 889 326 888 q 308 890 317 890 q 284 890 299 890 q 274 893 281 891 q 259 898 267 895 q 245 905 252 901 q 239 913 239 909 q 245 925 239 922 q 258 935 250 929 q 272 940 266 940 l 297 939 q 300 940 297 939 q 306 944 302 942 q 312 948 309 946 q 317 949 315 949 q 348 954 329 952 q 387 957 366 956 q 428 958 408 958 q 463 958 448 958 q 492 956 482 958 q 513 948 502 954 q 546 950 530 949 q 577 951 562 951 q 604 951 591 951 q 630 949 618 950 q 647 943 638 945 q 665 941 656 941 q 682 939 673 940 q 699 935 691 938 l 789 890 q 794 889 789 890 q 803 886 798 888 q 813 884 808 885 q 818 882 817 883 q 831 875 826 880 q 840 865 836 871 q 847 853 844 859 q 855 842 850 848 q 904 783 882 813 q 935 713 926 753 q 936 708 935 712 q 936 699 936 704 q 937 689 937 694 q 939 684 938 685 q 945 669 941 676 q 954 656 949 663 q 961 642 958 649 q 964 627 964 635 q 963 613 964 621 q 961 601 962 604 q 964 593 962 598 q 968 587 966 588 q 972 564 970 575 q 974 541 974 553 q 972 517 974 530 q 968 494 970 505 q 968 490 968 494 q 969 483 969 487 q 970 475 970 479 q 971 471 971 471 l 971 469 q 966 436 971 453 q 954 404 961 420 q 939 372 947 388 q 924 342 930 357 l 916 321 q 901 290 911 307 q 880 257 892 273 q 856 225 868 241 q 833 197 844 210 q 784 140 808 169 q 726 90 760 111 q 718 87 725 89 q 709 85 710 85 l 656 56 q 614 45 635 47 q 571 39 593 43 l 541 24 q 532 23 539 24 q 518 22 526 22 q 504 20 511 21 q 497 19 498 19 q 409 6 454 14 q 317 -2 364 -2 q 298 -1 311 -2 q 271 0 286 -1 q 244 1 257 1 q 228 2 232 2 q 207 12 216 10 q 186 13 198 13 q 158 10 172 13 q 132 3 144 7 q 106 -4 119 -1 q 82 -7 94 -7 q 65 -3 75 -7 q 46 7 55 1 q 30 21 37 13 q 24 39 24 29 q 24 45 24 41 q 25 55 24 50 q 27 63 26 60 q 33 68 29 67 q 102 96 65 91 q 146 117 129 100 q 176 156 164 133 q 195 204 187 178 q 209 251 202 229 q 221 284 214 267 q 230 318 229 301 q 233 334 233 327 q 233 348 233 341 q 236 361 233 354 q 245 376 238 368 q 253 426 247 399 q 267 474 258 452 q 275 495 269 485 q 286 517 280 506 q 296 538 292 528 q 302 561 301 549 q 304 592 304 576 q 306 625 304 608 q 309 657 307 641 q 317 688 311 673 q 329 724 322 706 q 341 760 335 742 q 350 798 347 779 q 354 838 354 817 l 354 846 m 323 144 q 327 138 324 144 q 333 123 330 132 q 341 105 337 114 q 347 90 345 96 q 357 79 349 84 q 375 71 365 75 q 395 63 385 66 q 414 58 406 60 q 425 56 416 58 q 427 56 426 56 q 433 55 429 55 q 457 60 445 55 q 481 74 469 66 q 503 91 492 82 q 524 106 513 100 q 529 106 525 106 q 537 108 532 107 q 545 110 541 109 q 550 111 549 111 q 571 128 559 118 q 594 149 583 138 q 616 170 606 159 q 633 189 626 180 q 637 197 637 193 q 638 207 638 202 q 640 217 639 212 q 646 225 642 222 q 664 237 658 231 q 674 249 670 243 q 680 263 677 256 q 688 281 683 271 q 699 296 692 286 q 714 319 706 307 q 729 341 722 331 q 741 355 736 352 q 759 414 750 383 q 771 474 768 446 q 775 484 772 479 q 781 493 778 489 q 786 502 784 498 q 789 511 789 507 q 793 551 791 532 q 795 589 795 571 q 793 621 795 606 q 789 649 791 635 q 785 660 787 652 q 779 675 783 667 q 772 695 776 686 q 767 710 769 705 q 765 718 766 711 q 764 724 764 720 l 764 749 q 754 765 762 751 q 738 795 747 779 q 721 824 729 811 q 712 838 713 837 q 686 871 701 858 q 656 895 671 884 q 636 903 645 903 l 612 903 q 596 909 605 905 q 578 917 587 913 q 559 924 569 921 q 542 927 550 927 q 525 923 530 927 q 518 912 519 918 q 516 897 516 905 q 513 882 515 889 q 510 873 513 880 q 506 865 507 866 q 504 856 505 863 q 501 841 503 849 q 498 826 499 833 q 497 817 497 819 q 496 808 496 815 q 497 797 496 804 q 497 789 497 791 q 494 782 496 788 q 493 772 493 775 q 490 767 492 771 q 486 757 488 762 q 482 747 484 752 q 480 741 480 743 l 480 699 q 478 696 480 699 q 473 690 476 693 q 468 684 471 686 q 466 680 466 681 q 465 677 465 679 q 463 674 464 675 q 461 670 462 672 q 432 559 448 613 q 404 448 416 505 l 386 405 q 383 388 384 396 q 382 372 382 380 q 381 355 382 363 q 376 339 380 347 q 363 304 370 319 q 352 275 357 289 q 343 244 347 260 q 338 205 340 229 q 330 181 336 192 q 323 159 323 171 l 323 144 z "},"E":{"ha":928,"x_min":-1,"x_max":945,"o":"m -1 40 q 10 67 -1 58 q 37 79 21 76 q 69 84 52 83 q 96 88 85 85 q 106 91 99 88 q 121 98 113 94 q 136 104 129 101 q 146 109 143 108 q 153 125 152 117 q 155 142 153 133 q 158 155 155 145 q 165 177 161 164 q 174 203 169 189 q 183 230 178 218 q 190 252 187 243 q 195 265 193 262 q 208 306 199 285 q 223 354 217 327 q 235 408 229 380 q 251 460 241 436 q 272 493 260 478 q 291 530 283 509 q 291 534 291 531 q 292 542 292 538 q 294 551 293 547 q 294 557 294 555 q 311 628 300 591 q 332 698 321 665 q 341 726 336 712 q 352 752 347 739 q 361 779 357 766 q 368 806 366 792 q 373 824 369 815 q 378 841 378 832 q 377 851 378 846 q 374 861 377 857 q 318 890 350 882 q 251 899 287 899 q 244 907 245 903 q 243 919 243 911 q 247 930 243 926 q 258 936 251 934 q 272 939 264 939 q 288 940 280 940 q 304 939 297 940 q 315 937 311 939 q 386 932 351 934 q 455 930 420 930 q 522 932 489 930 q 588 937 555 934 q 600 945 595 942 q 609 949 605 947 q 618 951 614 951 q 630 951 623 951 l 730 941 q 767 944 750 941 q 802 948 784 948 l 834 937 l 861 941 l 886 941 q 903 940 896 941 q 915 936 910 939 q 924 926 920 932 q 932 910 928 920 q 936 902 934 907 q 941 892 939 897 q 945 880 943 886 l 945 784 q 943 781 944 783 q 942 779 943 780 q 941 777 941 778 q 931 769 935 772 q 920 765 928 765 q 898 774 905 765 q 887 796 890 784 q 881 820 884 808 q 874 836 879 831 q 867 843 872 838 q 857 853 863 848 q 847 864 852 859 q 839 871 842 869 q 804 878 821 871 q 773 900 787 884 l 637 894 l 572 907 q 553 902 565 907 q 538 889 542 897 l 538 871 q 536 864 538 869 q 532 852 534 859 q 528 839 530 845 q 526 832 526 833 q 524 823 525 831 q 522 806 523 815 q 519 788 520 797 q 517 777 518 779 q 515 771 517 776 q 511 762 513 767 q 506 752 508 757 q 503 747 504 748 l 503 718 q 495 681 501 699 q 481 646 488 663 q 469 610 474 628 q 463 574 463 593 l 463 562 q 468 556 464 560 q 476 547 471 551 q 484 538 480 542 q 490 534 488 534 l 528 534 q 571 534 552 534 q 614 537 591 534 q 622 542 616 538 q 631 550 627 545 q 640 557 636 554 q 644 562 644 561 q 665 589 657 573 q 682 620 673 605 q 703 644 690 634 q 737 654 715 654 q 754 648 747 654 q 762 629 762 641 l 762 619 q 744 569 755 593 q 722 520 732 545 q 704 470 711 495 q 696 416 696 444 l 696 385 q 678 359 687 370 q 650 349 669 349 q 643 350 648 349 q 632 352 637 351 q 621 353 627 353 q 614 354 616 354 q 597 375 602 363 q 590 400 592 387 q 587 426 588 413 q 581 450 585 439 q 565 466 576 460 q 535 473 555 473 l 463 468 q 460 469 463 468 q 454 470 458 469 q 448 471 451 471 q 442 473 444 472 q 423 461 430 473 q 410 435 416 450 q 397 406 404 420 q 378 385 390 391 q 377 378 378 382 q 376 369 377 374 q 375 360 376 364 q 374 354 375 355 q 369 347 374 351 q 361 339 363 342 q 362 332 361 338 q 363 321 363 327 q 361 315 363 315 q 352 280 359 297 q 340 248 345 263 q 332 222 338 238 q 321 189 327 206 q 311 156 315 172 q 307 132 307 140 q 336 103 321 116 q 366 80 351 90 q 400 65 382 70 q 441 60 419 60 l 637 83 l 654 83 q 665 90 661 85 q 671 98 669 94 q 675 109 673 103 q 680 119 677 114 q 694 134 686 127 q 709 147 701 141 q 724 159 717 153 q 738 172 732 165 q 747 182 741 175 q 760 196 753 189 q 774 211 767 204 q 785 222 781 218 q 793 242 787 232 q 807 261 799 253 q 826 276 816 270 q 848 284 837 282 q 856 281 852 284 q 862 274 859 278 q 865 266 864 270 q 867 262 867 262 q 860 214 865 240 q 844 168 855 188 q 840 162 843 166 q 833 152 837 157 q 827 143 830 147 q 824 136 824 138 q 812 106 814 123 q 804 75 809 90 q 787 41 798 54 q 763 20 777 28 q 733 10 749 13 q 697 7 716 7 l 670 8 q 589 13 629 11 q 507 15 549 15 q 458 9 482 15 q 410 3 433 3 l 361 9 q 343 8 352 9 q 326 5 334 7 q 308 3 317 4 q 288 1 298 1 l 176 1 q 163 -1 172 0 q 143 -3 153 -2 q 123 -5 132 -5 q 109 -6 113 -6 q 96 -12 104 -9 q 72 -15 88 -15 q 45 -10 58 -13 q 22 -2 32 -7 q 5 14 12 4 q -1 40 -1 24 z "},"F":{"ha":789,"x_min":14,"x_max":948,"o":"m 14 13 q 29 44 16 34 q 59 60 42 54 q 95 72 77 66 q 126 88 114 77 q 133 97 129 89 q 138 106 136 104 q 142 110 138 107 q 149 116 145 113 q 157 122 153 119 q 161 127 160 125 q 206 286 180 207 q 250 445 232 365 q 251 449 250 446 q 254 454 252 453 q 257 461 254 456 q 264 472 260 466 q 271 482 268 477 q 275 488 275 487 q 277 494 275 490 q 279 502 278 498 q 280 508 279 505 q 281 511 281 511 q 285 529 282 517 q 292 552 288 541 q 299 574 295 564 q 304 588 302 585 q 310 608 307 596 q 318 634 314 621 q 325 663 322 648 q 328 689 328 677 q 334 699 330 692 q 342 715 338 707 q 350 731 347 724 q 355 743 353 739 q 355 748 355 744 q 357 756 356 752 q 358 764 357 761 q 361 768 359 768 q 374 806 366 787 q 382 845 382 825 q 371 871 382 863 q 345 884 361 880 q 311 889 329 888 q 276 895 292 891 q 250 907 260 899 q 239 932 239 915 q 270 957 254 950 q 308 963 286 963 q 323 961 315 963 q 340 958 331 958 l 342 958 q 349 960 344 959 q 360 962 354 961 q 371 963 366 962 q 377 963 376 963 q 412 960 397 963 q 440 951 427 956 l 630 951 q 671 946 650 949 q 712 939 691 943 q 753 933 732 936 q 795 930 774 930 l 819 930 l 830 937 l 854 937 q 899 933 881 937 q 928 920 917 930 q 943 891 939 909 q 948 842 948 872 q 946 832 948 838 q 941 819 945 825 q 933 808 938 813 q 922 804 928 804 q 895 815 905 804 q 876 843 884 827 q 857 871 867 858 q 830 888 846 885 l 752 888 q 745 890 751 888 q 737 894 739 892 l 648 894 q 616 900 629 894 q 587 907 603 907 q 558 899 570 907 q 537 879 546 891 q 523 853 528 867 q 513 827 517 840 q 512 821 513 825 q 511 811 512 817 q 510 802 511 806 q 509 794 510 797 l 509 777 q 507 774 509 777 q 502 769 505 772 q 496 764 498 766 q 493 762 494 762 q 488 745 488 754 q 484 728 487 736 q 471 707 477 717 q 461 684 465 696 q 459 671 461 680 q 454 654 456 663 q 450 638 452 645 q 448 631 448 632 q 443 625 446 630 q 440 619 440 621 l 440 608 q 450 574 440 587 q 475 552 460 560 q 508 541 490 544 q 543 537 526 537 q 557 544 550 537 q 567 553 564 550 q 599 568 582 560 q 626 588 616 576 q 642 614 633 597 q 661 646 651 630 q 681 673 670 662 q 703 685 692 685 q 717 681 711 685 q 723 667 723 677 q 719 626 723 646 q 701 588 715 606 q 696 574 699 584 q 691 555 694 565 q 686 535 688 545 q 683 524 684 526 q 680 485 681 510 q 675 434 679 460 q 661 390 671 409 q 631 372 651 372 q 605 383 611 372 q 596 409 598 394 q 593 437 595 423 q 581 458 591 452 q 571 464 579 460 q 559 468 562 467 q 553 468 557 468 q 544 469 549 469 q 534 471 538 470 q 528 471 530 471 l 509 488 q 490 498 502 496 q 467 500 478 500 l 451 500 q 407 483 422 500 q 382 441 391 466 q 372 389 374 416 q 369 340 370 361 q 348 304 357 324 q 332 262 339 283 q 318 219 324 240 q 308 180 312 197 q 306 177 307 179 q 302 171 304 174 q 298 165 300 168 q 297 162 297 163 q 301 138 297 151 q 313 115 306 125 q 331 98 321 105 q 352 92 340 92 l 399 98 q 429 89 414 98 q 444 61 444 79 q 443 44 444 52 q 441 31 443 37 q 434 19 439 24 q 420 9 429 14 q 414 5 418 7 q 406 0 410 3 q 397 -4 401 -3 q 391 -6 393 -6 l 319 -6 q 307 2 311 -1 q 297 6 302 5 q 288 9 293 8 q 275 9 283 9 l 215 5 l 197 -6 l 91 -6 q 85 -6 90 -6 q 73 -4 80 -5 q 60 -2 66 -3 q 50 0 53 -1 q 41 1 46 1 q 31 2 36 1 q 21 6 25 3 q 14 13 16 8 z "},"G":{"ha":956,"x_min":133,"x_max":971,"o":"m 264 61 q 250 73 260 64 q 229 94 240 83 q 208 115 218 105 q 193 129 197 125 q 184 143 187 136 q 179 157 181 150 q 176 172 178 164 q 171 188 175 180 q 142 291 151 238 q 133 397 133 344 q 133 427 133 410 q 134 459 133 443 q 136 492 135 476 q 141 519 138 507 q 153 549 146 535 q 169 577 161 563 q 185 605 177 591 q 200 633 193 618 q 220 692 210 663 q 250 749 231 721 q 255 758 250 751 q 266 771 260 764 q 276 785 271 779 q 282 792 281 791 q 296 810 290 803 q 310 822 303 817 q 325 834 317 827 q 341 850 332 840 l 348 863 q 361 877 355 871 q 374 886 368 882 q 387 894 380 890 q 402 905 394 898 q 410 912 404 906 q 422 924 416 918 q 435 936 429 930 q 441 943 441 942 q 446 946 443 943 q 450 949 448 948 l 485 955 q 492 961 486 956 q 498 966 497 966 q 514 972 507 970 q 527 976 521 975 q 541 977 534 977 q 558 979 548 977 q 567 982 559 979 q 583 986 574 984 q 600 991 592 989 q 610 994 608 994 l 645 994 q 662 994 650 994 q 686 993 673 994 q 711 991 699 992 q 728 988 722 990 q 736 984 730 987 q 749 975 742 980 q 762 966 756 970 q 769 960 768 962 q 817 945 789 948 q 867 942 844 942 q 884 947 877 942 q 899 953 891 953 q 909 948 903 953 q 920 937 915 943 q 929 924 926 930 q 933 913 933 917 l 933 911 q 925 890 930 899 q 920 868 920 882 q 924 843 920 854 q 928 823 928 832 l 928 814 q 924 806 927 812 q 919 791 922 799 q 913 775 916 783 q 910 766 910 768 q 907 746 907 755 q 906 728 907 736 q 898 716 904 721 q 877 712 892 712 q 839 724 851 712 q 820 754 826 736 q 810 793 813 772 q 801 832 807 814 q 776 869 793 852 q 736 899 758 886 q 690 919 714 911 q 647 926 667 926 l 640 926 l 625 916 l 581 916 q 559 907 572 916 q 532 887 546 898 q 506 864 519 876 q 485 847 494 853 q 478 842 484 846 q 464 832 471 838 q 450 822 456 827 q 441 814 443 817 q 435 807 438 811 q 433 799 433 804 q 433 792 433 794 q 427 780 431 789 q 417 762 422 772 q 408 744 412 752 q 402 732 404 735 q 384 697 397 722 q 358 643 372 671 q 335 588 345 614 q 326 551 326 562 q 309 490 317 521 q 298 427 302 459 q 289 399 291 414 q 287 370 287 385 l 287 325 l 282 254 l 303 197 q 301 187 303 192 q 298 175 298 182 q 306 166 298 174 q 325 146 313 158 q 349 122 336 135 q 373 98 361 109 q 393 79 385 87 q 402 71 401 71 q 419 64 410 66 q 441 63 429 63 l 499 63 q 520 68 505 63 q 551 79 535 73 q 580 92 567 85 q 595 103 593 99 q 605 120 598 108 q 620 145 612 132 q 635 171 628 159 q 645 188 642 183 q 648 192 646 189 q 650 196 650 195 l 650 222 q 656 240 652 230 q 666 261 661 250 q 675 284 671 273 q 679 305 679 296 q 676 325 679 313 q 667 346 673 336 q 655 365 662 357 q 640 376 648 374 q 623 383 632 380 q 608 389 614 385 q 596 399 601 392 q 592 418 592 406 q 597 431 592 425 q 610 444 603 438 q 625 454 617 450 q 635 460 632 458 q 656 457 650 460 q 671 453 663 454 l 711 453 q 734 448 724 452 q 756 444 745 444 q 790 448 774 444 q 821 453 806 453 q 844 454 828 453 q 877 454 859 454 q 911 454 896 454 q 933 453 927 453 q 938 455 935 454 q 941 456 941 456 q 950 454 945 456 q 960 447 955 451 q 968 438 964 443 q 971 431 971 434 q 971 426 971 428 q 967 421 970 425 q 959 416 966 420 q 943 407 951 412 q 928 397 935 401 q 920 391 922 392 q 909 382 917 389 q 892 367 901 375 q 877 352 884 359 q 867 342 869 345 q 857 322 863 337 q 847 289 852 307 q 838 256 842 272 q 835 233 835 240 l 841 184 q 834 155 841 170 q 818 124 828 139 q 796 97 808 109 q 774 75 784 84 q 683 40 728 58 q 592 1 638 21 q 543 -3 566 0 q 496 -7 520 -7 q 470 -5 482 -7 q 447 0 458 -3 q 425 5 436 2 q 402 9 414 7 q 393 10 400 9 q 377 12 386 11 q 362 14 369 13 q 353 16 355 16 q 330 22 340 17 q 308 34 319 27 q 287 47 297 40 q 264 61 276 55 z "},"H":{"ha":1204,"x_min":-35,"x_max":1315,"o":"m -35 7 q -23 37 -35 27 q 4 50 -12 46 q 37 56 20 54 q 68 63 55 58 q 82 77 77 66 q 91 101 87 87 q 98 127 95 114 q 104 146 100 140 q 107 152 104 147 q 114 160 111 156 q 121 169 118 165 q 126 174 125 173 q 135 191 131 180 q 143 213 140 201 q 150 235 146 224 q 155 254 153 245 q 158 259 156 255 q 164 269 161 264 q 171 279 168 275 q 176 286 174 284 l 185 310 l 185 336 q 188 341 186 337 q 193 350 191 345 q 198 359 195 355 q 201 363 200 363 q 223 435 214 398 q 241 508 232 471 q 259 571 248 540 q 279 633 271 602 q 284 643 281 635 q 290 654 288 650 q 303 698 299 677 q 314 741 307 720 q 327 766 319 754 q 344 788 336 777 q 358 810 352 799 q 364 834 364 821 q 358 849 364 842 q 348 861 353 857 q 340 867 347 862 q 323 881 334 872 q 290 908 311 890 l 290 921 q 303 944 290 937 q 333 951 316 951 q 353 949 343 951 q 373 945 363 947 q 412 939 393 939 l 581 939 q 590 938 583 939 q 605 937 597 937 q 620 935 613 936 q 631 934 627 935 q 638 926 635 932 q 643 914 641 920 q 646 902 645 908 q 647 894 647 897 q 639 881 644 886 q 626 873 633 876 l 557 868 q 539 860 547 866 q 523 847 530 854 q 509 832 515 840 q 499 820 503 825 q 494 812 498 819 q 491 805 491 806 q 491 799 491 804 q 490 788 490 794 q 489 776 489 782 q 488 768 488 770 q 484 765 487 768 q 478 760 481 763 q 473 755 475 758 q 470 753 471 753 q 460 726 461 742 q 457 698 460 711 q 453 684 455 688 q 449 677 451 680 q 443 671 446 674 q 435 659 439 667 q 423 635 430 652 q 409 597 416 617 q 398 559 403 577 q 394 532 394 541 l 395 508 q 416 497 406 499 q 441 495 427 495 l 494 500 l 531 496 l 585 506 l 604 506 q 618 496 607 498 q 638 495 630 495 q 662 499 651 495 q 684 508 673 503 q 704 518 694 513 q 725 522 713 522 q 813 515 770 522 q 899 508 857 508 q 927 518 916 508 q 947 542 939 528 q 962 572 956 556 q 975 600 968 587 q 978 604 975 600 q 983 611 980 607 q 988 619 986 615 q 991 624 991 623 q 993 628 993 626 q 994 632 994 629 q 992 646 994 639 q 991 654 991 653 q 1003 691 996 674 q 1013 726 1010 708 l 1013 753 l 1024 765 q 1037 805 1033 783 q 1040 848 1040 828 q 1031 872 1040 865 q 1007 881 1021 879 q 976 884 993 884 q 945 887 960 884 q 922 898 931 890 q 912 926 912 907 q 917 936 912 930 q 929 945 922 941 q 944 952 936 949 q 957 955 951 955 l 958 955 q 963 954 959 955 q 972 952 967 954 q 982 950 977 951 q 991 948 987 949 q 997 947 993 948 q 1006 943 1002 945 q 1015 940 1010 941 q 1020 939 1019 939 q 1028 940 1022 939 q 1036 942 1034 942 l 1048 942 l 1082 939 l 1090 939 l 1124 942 l 1148 939 l 1249 939 q 1259 938 1252 939 q 1273 937 1265 937 q 1286 935 1280 936 q 1294 934 1292 935 q 1307 925 1299 932 q 1315 911 1315 918 q 1306 899 1315 905 q 1285 886 1298 892 q 1257 874 1272 880 q 1229 861 1242 868 q 1207 846 1215 854 q 1198 829 1198 838 q 1199 827 1198 828 q 1201 823 1199 825 q 1195 817 1199 822 q 1186 806 1190 812 q 1178 794 1182 800 q 1174 787 1175 789 l 1171 765 q 1165 760 1168 762 q 1157 755 1161 758 q 1151 750 1154 753 q 1148 741 1148 747 q 1149 736 1149 739 q 1151 732 1150 734 q 1152 726 1151 729 q 1146 712 1152 717 q 1137 698 1141 707 q 1134 681 1135 688 q 1132 667 1133 673 q 1125 655 1130 661 q 1111 643 1121 650 q 1104 609 1109 623 q 1095 583 1100 595 q 1083 559 1089 571 q 1071 530 1077 547 q 1070 526 1071 529 q 1069 518 1070 522 q 1068 511 1069 514 q 1067 506 1067 507 q 1062 466 1066 487 q 1053 425 1059 444 q 1051 420 1052 422 q 1050 416 1050 418 q 1032 379 1043 396 q 1013 340 1021 362 q 1008 314 1011 330 q 1002 281 1005 298 q 995 250 999 264 q 987 227 991 235 l 958 164 l 954 129 l 939 101 q 948 76 939 85 q 968 67 956 67 q 984 71 977 67 q 999 75 990 75 q 1012 74 1004 75 q 1027 69 1020 73 q 1041 61 1035 66 q 1046 48 1046 56 q 1038 28 1046 35 q 1018 19 1029 22 q 992 15 1006 16 q 970 14 979 14 l 905 19 l 730 8 l 671 8 q 657 16 663 12 q 652 27 652 21 q 657 45 652 38 q 671 58 663 53 q 688 67 679 63 q 703 75 696 71 l 759 75 q 763 78 760 75 q 767 81 766 80 q 771 84 768 81 q 778 90 774 86 q 786 97 782 93 q 793 102 791 100 q 824 170 808 138 q 851 236 840 202 q 881 321 867 279 q 917 404 895 363 q 909 423 917 414 q 891 439 902 432 q 869 449 880 446 q 850 453 858 453 q 831 450 845 452 q 800 445 817 448 q 769 440 784 443 q 748 437 754 438 q 741 433 745 434 q 730 433 736 433 q 704 438 718 433 q 675 444 690 444 q 662 440 671 442 q 642 435 652 438 q 623 431 631 433 q 611 429 614 429 q 600 431 609 429 q 579 435 590 433 q 558 440 568 438 q 547 444 549 442 l 491 444 q 466 441 483 442 q 432 439 450 441 q 399 434 414 437 q 377 426 383 431 l 372 416 q 356 387 367 399 q 338 360 345 374 q 328 332 332 347 q 319 302 324 317 q 308 273 315 288 q 293 246 302 259 l 274 146 q 268 138 271 144 q 263 126 265 133 q 260 114 261 120 q 259 102 259 107 q 268 80 259 87 q 290 68 277 72 q 319 62 304 64 q 349 55 335 60 q 371 43 362 51 q 380 19 380 35 q 375 0 380 7 q 361 -9 370 -6 q 343 -14 353 -13 q 325 -14 334 -14 q 298 -9 309 -14 q 274 0 288 -3 l 197 0 l 176 -7 l 73 -18 q 50 -24 60 -19 q 28 -29 40 -29 q 7 -28 18 -29 q -13 -23 -4 -26 q -28 -12 -22 -19 q -35 7 -35 -5 z "},"I":{"ha":550,"x_min":-26,"x_max":646,"o":"m 199 332 q 201 334 200 333 q 203 335 203 334 q 205 336 204 335 q 228 363 219 347 q 239 397 236 379 l 239 426 q 245 446 241 435 q 255 467 250 456 q 266 487 261 477 q 275 505 271 496 q 282 531 280 520 q 284 551 284 542 l 284 591 q 288 611 284 601 q 298 632 292 622 q 310 653 304 643 q 319 671 316 663 q 320 677 319 672 q 321 687 321 682 q 322 697 322 692 q 323 703 323 702 q 338 735 330 720 q 353 766 346 751 q 364 797 359 781 q 368 832 368 813 q 360 856 368 848 q 341 868 353 864 q 317 873 330 871 q 292 877 303 874 q 273 885 281 880 q 265 901 265 890 q 278 919 265 913 q 305 924 291 924 l 406 918 l 476 924 l 505 924 q 511 920 509 920 q 519 920 513 920 q 537 924 528 920 q 553 934 545 929 q 564 936 557 934 q 572 939 570 939 l 642 939 q 645 933 645 936 q 646 928 646 931 q 632 911 646 918 q 600 900 618 905 q 564 891 582 895 q 540 884 547 888 q 524 862 532 880 q 509 823 516 844 q 498 783 503 802 q 493 757 494 764 q 487 747 492 755 q 482 738 482 739 q 480 732 481 736 q 477 725 479 728 q 475 718 476 721 q 474 715 474 715 q 473 703 473 711 q 472 686 472 695 q 471 667 471 676 q 471 654 471 659 q 459 641 466 651 q 445 619 452 631 q 432 595 437 607 q 426 578 427 584 l 426 536 q 418 517 424 525 q 407 502 413 510 q 397 485 401 494 q 393 460 393 475 q 396 451 393 456 q 399 437 399 446 l 386 416 q 373 374 376 397 q 363 332 370 352 l 342 283 q 338 277 340 281 q 337 269 337 272 l 342 254 q 335 211 342 231 q 319 172 328 191 q 304 132 311 152 q 297 90 297 112 q 306 65 297 75 q 329 48 315 55 q 356 37 342 41 q 382 31 371 33 q 392 23 390 27 q 393 9 393 18 q 390 -2 393 1 q 379 -12 387 -6 l 376 -13 l 351 -14 q 327 -12 338 -14 q 300 -7 315 -10 q 273 -1 286 -3 q 245 1 260 1 q 243 1 245 1 q 238 -1 242 1 q 228 -5 235 -3 q 210 -13 221 -8 q 189 -17 199 -16 q 169 -18 178 -18 l 124 -18 q 79 -25 100 -20 q 34 -29 57 -29 l 11 -29 q -2 -25 5 -26 q -14 -22 -8 -24 q -22 -15 -19 -20 q -26 -1 -26 -11 q -18 16 -26 9 q 2 25 -10 22 q 29 32 14 29 q 57 37 43 34 q 82 45 71 40 q 98 58 93 50 q 107 86 106 73 q 111 116 109 99 q 113 120 111 117 q 116 124 115 123 q 122 130 117 125 q 132 140 127 135 q 141 150 137 145 q 146 156 146 154 q 151 164 149 159 q 153 176 153 170 q 154 188 154 182 q 155 195 155 193 q 166 215 158 203 q 176 236 174 227 q 193 279 186 257 q 199 332 199 302 z "},"J":{"ha":745,"x_min":9,"x_max":823,"o":"m 9 -276 q 13 -252 9 -264 q 22 -231 16 -240 q 38 -215 28 -221 q 61 -209 47 -209 q 80 -214 72 -209 q 98 -220 88 -218 q 103 -220 99 -220 q 112 -222 107 -221 q 120 -223 116 -222 q 125 -224 123 -224 q 136 -234 133 -227 q 144 -247 139 -240 q 159 -258 149 -254 q 193 -263 170 -263 q 216 -255 203 -263 q 242 -233 229 -246 q 267 -202 255 -219 q 289 -168 279 -185 q 304 -136 298 -151 q 310 -111 310 -121 q 304 -93 310 -99 q 299 -77 299 -86 q 324 -55 313 -66 q 342 -35 334 -45 q 353 -18 351 -25 q 355 -9 354 -16 q 356 5 355 -3 q 357 19 357 12 q 358 27 358 26 q 372 95 366 60 q 389 164 379 130 q 394 176 391 171 q 402 186 398 181 q 409 197 406 191 q 412 210 412 203 q 409 216 412 214 q 404 222 407 219 q 399 229 401 225 q 397 238 397 233 l 426 304 q 415 326 426 317 q 390 340 404 335 q 360 348 375 345 q 337 350 345 350 l 309 350 q 297 341 304 347 q 283 336 290 336 q 266 339 275 336 q 247 347 256 342 q 231 359 237 352 q 224 376 224 367 q 238 392 224 385 q 273 408 252 400 q 320 421 294 415 q 368 434 345 428 q 410 445 391 440 q 434 455 428 450 q 445 465 444 461 q 446 474 446 469 q 447 480 446 477 q 450 487 447 484 q 462 498 455 492 q 475 510 469 504 q 488 524 482 517 q 495 540 493 532 q 502 559 498 548 q 511 583 507 571 q 518 607 515 595 q 522 628 522 618 l 567 715 q 570 736 570 724 q 570 759 570 749 l 570 774 q 548 791 563 786 q 520 797 532 797 q 501 794 509 797 q 482 791 493 791 q 459 809 469 802 q 438 820 449 816 q 416 826 428 824 q 387 827 404 827 l 349 823 q 340 825 347 823 q 332 827 333 827 l 329 827 q 318 825 324 827 q 306 820 312 823 q 293 814 299 817 q 283 810 287 811 q 251 800 264 802 q 228 793 237 798 q 214 777 219 789 q 208 738 210 765 q 207 729 208 736 q 207 715 207 721 q 207 700 207 707 q 208 686 208 693 q 211 670 209 679 q 216 649 212 661 q 220 645 218 648 q 224 641 223 642 q 231 635 226 641 q 237 629 236 629 l 243 615 q 254 600 246 606 q 269 586 261 593 q 282 571 276 579 q 288 553 288 564 q 287 546 288 549 q 278 540 286 543 l 263 540 q 235 550 249 540 q 209 575 222 559 q 186 609 197 590 q 168 648 176 629 q 156 685 160 668 q 151 715 151 703 q 175 818 151 773 q 243 901 199 863 q 252 906 245 903 q 260 910 259 909 q 289 921 276 916 q 313 929 301 926 q 339 936 326 933 q 371 942 353 939 q 407 937 386 937 q 421 937 414 937 q 434 939 429 937 q 442 930 435 936 q 450 924 449 925 l 475 928 q 508 923 490 928 q 543 912 525 918 q 579 901 562 906 q 614 897 597 897 q 619 897 615 897 q 623 897 623 897 q 631 901 625 898 q 645 907 637 903 q 659 914 652 911 q 669 920 665 918 q 680 946 671 933 q 699 970 688 960 q 725 986 711 980 q 752 993 739 993 q 778 989 768 993 q 804 981 788 986 q 814 971 810 977 q 820 957 819 964 q 822 942 822 949 q 823 928 823 934 q 809 872 823 895 q 768 827 795 849 q 764 824 767 826 q 760 823 762 823 q 753 822 759 823 q 740 821 747 822 q 727 820 733 821 q 720 818 721 819 q 714 814 719 818 q 703 806 709 811 q 690 796 697 802 q 680 787 684 791 l 671 779 l 671 757 q 668 752 671 755 q 664 746 664 749 q 649 717 654 732 q 641 686 644 702 q 635 654 637 671 q 627 618 632 637 q 620 591 625 605 q 611 563 616 577 q 604 535 607 549 q 601 506 601 521 q 604 499 601 503 q 611 493 607 496 q 620 489 616 490 q 627 487 625 487 l 709 487 q 718 484 713 487 q 726 475 722 480 q 733 465 730 471 q 736 454 736 459 q 715 420 736 435 q 704 414 712 418 q 685 405 695 410 q 667 396 675 400 q 654 389 658 391 q 622 380 640 382 q 591 379 604 379 q 588 375 591 378 q 581 369 585 372 q 574 363 577 366 q 570 358 571 360 q 566 351 568 355 q 564 344 564 347 l 567 323 q 561 317 564 323 q 557 310 559 314 q 540 253 547 282 q 522 195 533 224 q 510 163 515 180 q 500 132 505 146 q 498 129 500 132 q 494 122 496 125 q 489 115 491 118 q 485 111 486 112 q 484 109 485 111 q 483 106 484 108 q 481 102 481 104 q 479 91 481 100 q 475 73 477 82 q 471 55 473 63 q 468 43 469 46 q 462 31 466 37 q 455 18 458 24 q 449 6 452 12 q 446 -7 446 0 q 446 -12 446 -10 q 447 -18 446 -14 l 419 -74 q 370 -169 397 -127 q 305 -252 342 -210 q 289 -274 296 -261 q 268 -296 281 -287 q 256 -305 264 -299 q 240 -317 248 -311 q 223 -329 231 -323 q 214 -334 216 -334 q 206 -337 212 -336 q 199 -339 199 -339 q 190 -343 197 -340 q 181 -347 184 -346 l 151 -349 q 132 -349 142 -349 q 107 -350 121 -350 q 71 -347 87 -350 q 45 -334 54 -344 q 35 -323 41 -331 q 23 -306 28 -315 q 14 -288 18 -296 q 9 -276 9 -280 z "},"K":{"ha":929,"x_min":-40,"x_max":1252,"o":"m 859 -298 q 837 -276 845 -286 q 821 -256 829 -266 q 805 -237 813 -246 q 783 -220 796 -229 l 724 -128 q 705 -110 714 -121 q 687 -86 696 -98 q 672 -60 679 -73 q 659 -37 665 -47 q 646 -12 655 -30 q 627 27 637 6 q 608 70 617 49 q 592 103 598 90 q 590 108 591 106 q 588 111 589 110 q 576 125 583 117 q 564 146 570 133 q 559 177 564 163 q 548 209 553 191 q 536 227 545 218 q 522 243 526 235 q 515 259 517 251 q 513 276 513 268 q 511 293 512 285 q 505 309 509 301 q 499 317 501 315 q 494 321 496 319 q 490 324 492 322 q 486 332 488 326 q 485 336 486 334 q 484 342 484 339 q 483 345 484 344 q 482 349 482 347 q 474 387 479 365 q 461 428 469 408 q 443 460 454 447 q 418 474 432 474 q 404 471 408 474 q 397 462 399 467 q 394 450 395 457 q 389 437 393 444 l 366 416 q 358 395 361 408 q 355 369 356 382 q 353 342 354 355 q 351 318 353 328 q 341 299 347 308 q 327 282 334 290 q 314 264 320 273 q 306 243 308 254 q 302 226 303 237 q 301 203 301 215 q 300 180 300 191 q 297 162 299 169 q 289 146 294 153 q 279 135 283 140 q 272 122 275 130 q 269 103 269 115 q 275 85 269 93 q 291 72 281 77 q 311 65 300 67 q 332 62 322 62 l 365 71 q 385 66 373 71 q 407 55 397 62 q 425 39 418 47 q 433 21 433 30 q 425 8 433 14 q 407 -1 417 3 q 386 -6 397 -5 q 371 -8 376 -8 l 327 -3 q 301 -1 313 -2 q 275 0 288 0 q 236 -1 254 0 q 203 -3 218 -2 q 196 -5 201 -3 q 190 -8 191 -7 q 164 -11 182 -9 q 126 -16 146 -13 q 87 -21 106 -18 q 62 -24 69 -23 l 37 -27 q 16 -25 29 -27 q -10 -19 3 -24 q -31 -5 -22 -14 q -40 16 -40 3 q -25 34 -40 26 q 11 50 -9 43 q 50 64 31 58 q 77 74 69 70 q 84 81 79 76 q 95 91 89 85 q 107 100 101 96 q 116 106 113 104 q 133 127 126 114 q 145 156 140 141 q 155 186 151 172 q 165 212 159 201 q 169 218 165 215 q 176 242 172 228 q 185 270 180 256 q 195 294 191 283 q 203 309 200 305 q 208 313 204 309 q 215 320 212 316 q 222 328 219 324 q 225 332 225 331 q 227 340 227 333 q 226 356 227 348 q 225 366 225 365 q 229 372 226 368 q 234 381 231 376 q 240 389 237 385 q 243 393 242 392 l 246 426 q 264 463 254 446 q 283 498 275 480 q 286 508 283 500 q 288 519 288 515 q 296 555 290 536 q 308 594 301 574 q 321 632 315 613 q 332 669 328 651 l 340 715 q 349 736 343 726 q 360 757 355 747 q 371 778 366 767 q 375 802 375 789 q 369 827 375 819 q 352 839 362 835 q 331 844 342 842 q 310 850 320 846 q 294 861 300 854 q 288 884 288 869 q 296 902 288 896 q 315 912 304 909 q 338 916 326 915 q 359 916 351 916 l 416 907 q 456 909 437 907 q 495 915 476 912 q 534 921 515 918 q 572 924 553 924 q 604 915 589 924 q 619 887 619 905 q 611 869 619 874 q 593 861 604 863 q 571 858 583 859 q 551 854 559 857 q 546 847 547 850 q 543 839 544 843 q 541 830 542 835 q 536 823 539 826 q 525 811 530 815 q 517 805 521 808 q 512 798 514 802 q 508 787 510 794 q 508 781 508 786 q 507 770 507 776 q 505 759 506 764 q 505 753 505 754 q 498 743 505 750 q 492 734 492 736 q 487 723 488 728 q 484 713 485 718 q 484 700 484 707 q 482 684 484 693 q 475 669 480 675 q 463 654 469 664 q 439 601 450 627 q 429 545 429 575 q 433 533 429 539 q 442 528 436 528 q 444 528 443 527 q 447 530 447 528 q 461 538 451 532 q 483 549 471 543 q 504 559 494 554 q 518 567 514 565 q 526 574 521 569 q 536 584 530 578 q 549 592 543 589 q 563 596 556 596 l 606 644 l 619 644 l 672 699 q 674 709 672 704 q 679 715 676 713 l 730 730 q 746 749 735 733 q 768 783 757 764 q 787 821 779 802 q 795 850 795 840 l 768 876 q 763 884 767 877 q 757 894 758 891 q 762 901 758 897 q 770 910 766 906 q 778 919 774 915 q 783 924 781 922 q 791 927 787 927 q 801 928 795 928 l 836 928 l 862 920 q 866 921 863 920 q 874 923 870 922 q 883 926 879 925 q 888 928 887 928 q 902 926 895 928 q 910 924 909 924 l 981 934 q 994 931 989 934 q 1005 928 999 928 l 1006 928 q 1016 931 1009 928 q 1028 937 1022 933 q 1040 943 1035 940 q 1046 948 1045 946 q 1057 944 1051 945 q 1070 943 1063 943 l 1084 943 q 1103 941 1095 943 q 1112 927 1112 939 q 1104 913 1112 921 q 1084 898 1095 905 q 1062 886 1073 891 q 1044 880 1050 880 l 1022 880 q 993 875 1002 878 q 979 866 984 871 q 969 853 974 861 q 951 834 964 845 q 935 826 943 828 q 919 821 927 823 q 902 816 911 819 q 884 805 894 813 l 815 734 q 802 726 808 729 q 791 720 797 723 q 778 711 785 716 q 760 698 770 707 q 757 692 758 696 q 753 680 756 687 q 745 674 750 676 q 735 669 741 671 q 725 664 730 667 q 717 659 720 662 q 713 656 715 659 q 707 651 710 654 q 701 645 704 648 q 698 641 699 642 q 688 636 694 638 q 674 631 682 633 q 660 626 667 629 q 649 618 653 623 l 602 572 q 559 546 571 562 q 548 498 548 530 q 555 479 548 493 q 573 450 563 465 q 592 421 583 435 q 606 401 602 407 l 619 323 q 639 299 629 313 q 657 270 649 286 q 670 239 665 255 q 675 209 675 224 q 683 197 678 203 q 692 183 687 190 q 702 171 697 176 q 709 162 706 165 q 710 157 709 161 q 713 148 711 153 q 715 138 714 142 q 717 132 716 133 q 727 113 720 125 q 744 87 735 100 q 761 62 753 75 q 774 43 770 50 q 787 22 782 34 q 798 -2 793 11 q 808 -28 803 -14 q 821 -58 814 -43 q 830 -71 827 -64 q 836 -86 833 -79 q 842 -102 839 -94 q 849 -116 845 -109 q 871 -142 859 -130 q 895 -167 883 -155 q 918 -192 907 -179 q 937 -220 929 -205 q 942 -224 937 -224 q 947 -228 943 -225 q 956 -232 951 -230 q 964 -237 960 -235 q 969 -239 968 -239 q 975 -251 975 -242 q 977 -265 975 -259 q 993 -279 980 -273 q 1022 -291 1006 -286 q 1052 -299 1038 -296 q 1072 -302 1067 -302 q 1110 -288 1097 -302 q 1124 -250 1124 -273 q 1124 -233 1124 -240 q 1123 -220 1124 -226 q 1120 -207 1122 -214 q 1114 -190 1118 -199 q 1109 -183 1114 -189 q 1104 -176 1105 -178 q 1105 -155 1104 -166 q 1111 -134 1107 -143 q 1121 -118 1114 -124 q 1138 -111 1127 -111 q 1196 -120 1173 -111 q 1231 -146 1218 -130 q 1247 -188 1243 -163 q 1252 -243 1252 -212 q 1219 -312 1236 -286 q 1178 -350 1202 -337 q 1123 -368 1155 -363 q 1045 -372 1090 -372 q 1017 -371 1030 -372 q 991 -369 1004 -371 q 967 -362 979 -367 q 942 -349 955 -357 q 923 -335 932 -343 q 902 -320 913 -328 q 880 -306 891 -312 q 859 -298 869 -300 z "},"L":{"ha":903,"x_min":-5,"x_max":856,"o":"m 361 807 q 358 842 361 829 q 351 862 356 855 q 340 871 347 869 q 328 873 334 873 l 307 871 q 287 874 297 871 q 268 889 277 878 q 262 900 267 890 q 255 915 258 909 l 257 917 q 260 920 258 920 q 273 930 265 925 l 282 937 l 331 941 q 400 938 367 939 q 469 937 434 937 q 539 938 504 937 q 609 941 574 939 q 627 935 617 935 l 649 937 q 659 932 655 937 q 663 915 663 928 q 663 911 663 913 q 663 907 663 909 q 662 902 662 905 q 654 898 662 902 q 637 889 647 895 q 618 879 627 884 q 606 871 609 874 q 593 867 600 868 q 579 866 586 867 q 567 865 573 866 q 557 859 562 863 l 549 852 q 536 838 543 846 q 522 823 528 831 q 510 807 515 815 q 503 791 505 799 q 501 783 502 789 q 500 769 500 777 q 499 755 500 762 q 499 747 499 749 q 496 742 498 745 q 494 733 495 738 q 491 726 492 729 q 490 722 490 722 q 488 719 490 721 q 483 713 486 716 q 478 706 480 709 q 475 702 476 703 l 475 689 q 475 676 475 684 q 474 661 475 669 q 471 645 473 652 q 465 632 469 637 q 450 609 454 620 q 444 587 446 598 q 440 564 441 576 q 435 538 439 552 l 424 511 q 408 458 415 488 q 401 401 401 429 l 401 389 q 394 377 399 386 q 383 357 389 368 q 372 336 377 346 q 365 323 367 327 q 359 311 362 319 q 357 299 357 302 l 357 263 q 350 242 355 254 q 341 218 346 231 q 330 192 336 205 q 321 169 325 180 q 316 159 319 163 q 307 150 313 155 q 304 126 305 136 q 303 103 303 115 q 308 82 303 90 q 320 70 313 75 q 337 62 328 65 q 357 56 347 60 l 385 50 q 393 50 390 50 q 401 52 397 50 q 412 54 407 53 q 422 54 416 54 l 474 50 q 494 53 485 50 l 580 53 q 601 54 589 54 q 626 57 614 55 q 649 62 638 59 q 665 72 660 66 q 675 81 668 75 q 690 95 682 87 q 703 107 697 102 q 710 115 709 113 q 734 148 721 127 q 763 187 747 168 q 795 220 779 206 q 831 235 812 235 q 845 230 840 235 q 853 218 850 226 q 856 201 855 211 q 856 180 856 191 q 854 171 856 177 q 848 157 852 165 q 840 140 844 149 q 832 124 836 132 q 831 119 831 122 q 824 110 829 117 q 814 94 819 102 q 805 77 809 85 q 800 67 800 70 q 797 62 798 66 q 795 56 795 58 l 800 47 l 800 35 q 786 4 800 18 q 758 -16 772 -9 l 747 -16 l 650 -5 l 567 -13 q 548 -13 559 -13 q 528 -11 538 -12 q 508 -7 517 -9 q 494 0 499 -4 q 353 6 422 3 q 213 9 283 9 q 153 6 183 9 q 92 2 123 3 q 76 -8 81 -7 q 61 -9 71 -9 q 44 -7 55 -9 q 22 -1 33 -5 q 3 9 11 3 q -5 26 -5 16 q 12 51 -5 41 q 51 65 28 60 q 93 75 73 71 q 122 85 114 79 q 129 91 126 87 q 135 100 132 95 q 139 110 137 105 q 144 119 142 115 l 167 146 l 167 174 q 172 197 168 184 q 181 223 176 210 q 191 248 186 236 q 197 270 195 260 q 219 356 208 314 q 234 442 229 397 q 247 466 242 454 q 256 490 252 478 q 264 515 260 503 q 274 538 268 527 q 278 547 275 541 q 284 559 281 553 q 290 570 288 565 q 294 578 293 576 q 298 596 296 588 q 302 611 300 604 q 307 626 304 618 q 313 643 309 633 q 316 649 315 644 l 317 654 l 317 698 q 327 719 318 709 q 338 739 335 728 q 341 747 339 741 q 344 760 342 753 q 347 774 345 768 q 348 783 348 781 q 350 787 348 784 q 353 791 352 789 q 357 798 355 792 q 361 806 359 804 l 361 807 z "},"M":{"ha":1402,"x_min":16,"x_max":1476,"o":"m 16 19 q 25 37 16 31 q 46 45 35 42 q 86 53 69 51 q 118 60 104 55 q 146 74 133 64 q 175 106 160 84 q 176 118 175 109 q 178 129 178 126 q 180 132 178 130 q 184 137 182 134 q 188 142 186 140 q 189 144 189 144 q 197 164 194 155 q 201 182 199 173 q 206 200 203 191 q 212 222 208 210 q 219 237 214 230 q 231 251 225 244 q 243 266 237 258 q 249 284 248 274 q 257 342 254 314 q 268 399 260 370 l 313 506 q 322 557 320 532 q 334 608 325 582 q 342 623 337 616 q 351 636 347 630 q 361 647 356 642 q 370 661 366 653 q 377 683 375 670 q 379 709 379 696 q 379 713 379 710 q 380 719 379 715 l 378 792 q 371 809 377 799 q 356 828 364 819 q 338 844 347 838 q 322 850 329 850 l 241 850 q 224 855 232 854 q 210 860 217 857 q 196 868 203 863 q 181 887 189 874 q 194 920 181 905 q 223 940 208 934 l 268 940 q 333 935 300 940 q 396 929 366 929 q 433 938 414 929 q 465 955 452 947 l 472 955 q 512 937 498 945 q 532 918 526 928 q 542 898 539 909 q 546 874 544 887 q 552 845 548 861 q 568 810 557 829 l 568 783 q 569 742 568 762 q 572 701 570 721 q 579 689 574 698 q 586 678 585 681 q 581 659 586 666 q 576 643 576 651 q 579 630 576 637 q 586 617 582 624 q 594 605 590 611 q 601 593 598 598 q 603 584 602 589 q 605 572 604 578 q 606 559 606 566 q 607 549 606 553 q 623 503 614 526 q 634 456 632 480 l 634 421 q 636 414 634 420 q 641 400 638 408 q 646 386 644 393 q 649 376 648 379 q 650 365 650 374 q 651 347 650 357 q 652 327 652 336 q 652 313 652 317 q 661 295 659 306 q 668 273 664 283 q 679 254 672 262 q 699 246 685 246 q 720 263 706 246 q 750 302 734 280 q 779 345 765 324 q 798 373 792 366 q 809 383 801 375 q 828 401 818 391 q 846 419 838 410 q 857 429 854 427 q 870 457 866 443 q 884 482 874 471 q 891 491 886 484 q 900 500 897 498 l 913 509 q 947 545 931 526 q 979 584 963 564 q 1011 622 994 603 q 1047 657 1027 640 q 1059 683 1055 669 q 1074 710 1063 696 q 1113 752 1091 732 q 1152 799 1134 773 q 1182 845 1171 825 q 1204 880 1192 866 q 1234 902 1215 895 q 1286 909 1252 909 l 1295 909 q 1309 909 1302 909 q 1320 903 1316 908 l 1358 903 q 1396 906 1378 903 q 1432 909 1414 909 q 1447 907 1438 909 q 1461 900 1455 904 q 1472 889 1468 895 q 1476 874 1476 882 q 1469 858 1476 864 q 1451 849 1461 852 q 1430 845 1440 846 q 1413 844 1419 844 q 1411 840 1413 842 q 1402 832 1409 838 q 1378 814 1394 826 q 1333 784 1362 803 q 1328 771 1329 778 q 1326 758 1326 764 q 1324 744 1325 751 q 1320 732 1323 737 q 1299 676 1310 704 q 1279 618 1288 649 q 1264 567 1273 593 q 1247 513 1255 540 q 1233 459 1239 486 q 1226 407 1227 433 q 1218 393 1223 399 q 1211 376 1213 386 q 1199 323 1202 349 q 1187 270 1195 298 q 1175 232 1181 250 q 1162 195 1168 214 q 1160 189 1161 193 q 1159 180 1160 185 q 1157 171 1158 175 q 1156 164 1156 166 q 1151 157 1155 161 q 1142 148 1147 153 q 1134 138 1137 143 q 1130 130 1130 134 l 1130 129 q 1137 125 1131 128 q 1144 121 1143 122 q 1149 112 1148 117 q 1152 102 1151 107 q 1153 91 1152 96 q 1156 81 1154 85 q 1183 62 1162 72 q 1227 43 1204 52 q 1269 27 1251 34 q 1286 19 1286 21 q 1281 9 1286 12 q 1266 3 1276 6 q 1239 0 1251 1 q 1216 -2 1227 -1 q 1192 -3 1204 -3 q 1164 -3 1180 -3 q 1151 -3 1157 -3 q 1139 1 1145 -2 l 987 1 q 973 -1 979 1 q 961 -6 967 -3 q 948 -11 955 -8 q 933 -13 941 -13 q 916 -12 928 -13 q 892 -9 904 -12 q 870 -2 880 -7 q 861 13 861 3 q 864 22 861 17 q 873 32 868 27 q 882 40 878 37 q 888 45 886 43 q 895 47 889 46 q 907 50 901 49 q 920 52 914 52 q 928 53 926 53 q 935 55 930 54 q 944 59 939 57 q 953 62 949 60 q 958 63 957 63 q 960 64 959 63 q 961 67 961 66 q 967 79 963 70 q 976 98 971 88 q 986 117 981 108 q 994 129 991 125 q 997 133 995 130 q 1000 140 998 136 q 1003 147 1002 144 q 1006 150 1005 150 l 1010 177 q 1025 197 1016 188 q 1036 217 1034 206 q 1045 257 1044 235 q 1050 298 1047 279 q 1054 306 1052 302 q 1060 312 1057 309 q 1065 320 1063 316 q 1069 333 1068 325 q 1070 343 1069 335 q 1072 362 1071 352 q 1073 380 1072 372 q 1074 389 1074 388 q 1076 397 1074 391 q 1081 410 1078 404 q 1087 423 1084 417 q 1090 429 1090 429 q 1093 436 1091 431 q 1094 444 1094 441 q 1100 474 1097 456 q 1107 508 1103 491 q 1118 542 1112 526 q 1135 568 1124 557 l 1136 589 q 1128 621 1136 608 q 1100 633 1121 633 q 1081 630 1092 633 q 1065 618 1071 626 q 1050 603 1055 611 q 1042 588 1045 595 q 1036 573 1039 580 q 1028 563 1034 567 q 1019 558 1027 562 q 1010 553 1012 554 l 1001 537 l 1000 534 q 999 532 999 533 q 998 530 998 531 q 964 499 977 515 q 937 460 950 484 q 929 454 934 456 q 918 449 924 452 q 905 443 911 447 q 895 433 899 439 q 857 371 874 403 q 816 307 839 338 q 788 273 804 290 q 756 238 773 255 q 723 204 740 220 q 692 174 707 187 q 679 143 690 163 q 652 101 668 122 q 620 65 637 81 q 591 50 604 50 q 576 55 583 50 q 565 68 570 60 q 558 83 561 75 q 555 96 556 91 q 554 107 555 99 q 553 124 553 115 q 552 141 553 134 q 552 150 552 149 q 548 162 551 155 q 541 177 545 170 q 534 192 538 185 q 528 204 531 199 l 528 284 q 527 288 528 286 q 525 292 526 292 q 520 299 525 294 q 514 307 515 305 l 522 330 q 519 337 522 333 q 514 345 517 342 q 510 351 512 349 q 507 354 507 354 q 499 390 503 365 q 489 447 494 416 q 478 512 484 479 q 465 574 472 546 q 451 620 458 602 q 435 638 444 638 q 414 626 423 638 q 398 596 405 614 q 385 555 391 578 q 375 512 380 533 q 368 474 371 491 q 361 448 364 456 q 354 436 359 442 q 345 425 349 431 q 337 414 340 420 q 334 404 334 409 l 338 394 l 338 379 q 335 376 338 378 q 330 371 333 374 q 325 367 327 369 q 322 363 322 364 l 322 333 q 315 317 321 328 q 301 295 309 306 q 288 275 294 284 q 282 263 282 266 l 289 239 q 290 233 289 236 q 290 228 290 231 q 290 223 290 224 q 289 208 290 216 q 282 195 288 201 l 282 172 l 286 125 l 270 81 q 276 70 270 74 q 291 63 282 66 q 308 54 300 59 q 322 41 317 50 q 325 34 323 38 q 329 27 327 31 q 334 19 332 23 q 347 16 338 17 q 365 14 355 16 q 381 7 374 12 q 389 -7 389 3 q 345 -12 368 -7 q 298 -18 321 -18 q 293 -16 297 -18 q 285 -13 290 -15 q 276 -9 280 -11 q 271 -7 272 -7 q 231 -3 250 -3 q 189 -2 211 -2 l 148 -2 q 119 -18 136 -14 q 86 -22 101 -22 q 65 -21 77 -22 q 42 -15 53 -20 q 23 -2 31 -10 q 16 19 16 5 z "},"N":{"ha":1146,"x_min":61,"x_max":1265,"o":"m 235 6 q 208 3 222 6 q 179 0 195 0 l 153 0 q 124 1 140 0 q 95 4 109 1 q 71 14 81 7 q 62 31 62 20 l 61 45 q 62 56 61 52 q 69 63 64 60 q 83 69 74 66 q 100 73 92 71 q 114 78 108 75 q 122 85 121 81 q 131 92 125 87 q 142 104 136 98 q 154 116 149 110 q 161 124 159 121 q 177 152 171 136 q 187 183 183 167 q 195 217 191 200 q 201 248 198 233 q 223 307 209 279 q 246 363 237 334 l 250 393 q 259 415 253 405 q 271 435 265 425 q 282 454 277 444 q 286 475 286 464 l 280 489 q 288 524 280 511 q 317 550 296 536 l 317 558 q 320 595 317 576 q 330 632 323 614 l 334 644 q 347 675 340 659 q 360 709 354 692 q 369 742 366 726 q 373 772 373 758 l 373 779 q 373 789 373 782 q 372 805 372 797 q 370 822 371 814 q 370 833 370 829 q 345 851 359 846 q 313 860 330 857 q 277 865 296 863 q 242 870 259 866 q 209 882 224 873 q 183 907 194 890 l 183 914 q 188 927 183 921 q 200 937 193 932 q 216 946 208 942 q 230 954 224 950 q 231 955 230 954 q 237 955 233 955 q 252 956 242 956 q 280 956 262 956 q 305 956 294 956 q 330 949 316 955 q 333 949 330 949 q 341 947 337 948 q 350 945 346 946 q 357 943 355 944 q 361 941 357 943 q 366 940 363 941 q 412 933 390 937 q 456 922 435 929 q 497 905 477 916 q 539 880 517 895 q 548 869 545 874 q 551 858 550 863 q 554 845 553 852 q 561 833 556 839 l 569 823 q 580 811 578 816 q 583 801 583 806 q 585 790 584 795 q 592 779 586 785 q 602 767 597 772 q 610 759 606 763 q 616 750 613 755 q 623 738 619 745 q 627 720 625 728 q 631 705 629 712 q 638 689 634 697 q 648 672 642 682 q 654 667 650 671 q 664 657 659 663 q 674 647 669 652 q 679 641 678 642 l 696 598 q 703 583 701 588 q 707 572 705 577 q 711 561 709 567 q 717 543 713 555 q 727 533 717 543 q 749 511 737 524 q 772 487 762 499 q 785 471 783 475 q 792 454 788 461 q 800 440 795 447 q 808 427 804 434 q 817 412 812 420 q 817 408 817 411 q 819 401 818 405 q 821 394 820 397 q 822 389 822 390 q 824 387 822 389 q 827 381 825 385 q 831 376 829 378 q 833 371 833 373 q 846 345 840 361 q 861 313 852 328 q 881 286 869 297 q 908 275 892 275 q 929 287 922 275 q 938 314 935 298 q 941 347 940 330 q 944 371 941 363 q 947 377 945 373 q 952 386 949 381 q 957 393 954 390 q 960 397 959 397 l 954 432 q 954 435 954 433 q 954 439 954 437 q 955 444 954 441 l 963 456 l 965 484 q 982 521 970 504 q 998 558 993 538 q 1001 585 1001 570 q 1002 614 1002 600 l 1002 645 q 1002 659 1002 652 q 1003 672 1002 666 q 1005 682 1003 678 q 1009 689 1006 686 q 1014 695 1011 692 q 1019 704 1017 699 q 1033 743 1028 721 q 1038 784 1038 765 l 1038 802 q 1036 804 1038 802 q 1032 810 1034 807 q 1027 816 1029 813 q 1025 819 1025 819 q 1021 832 1022 826 q 1018 845 1020 839 q 1013 855 1017 850 q 998 863 1008 860 q 992 864 998 864 q 980 865 987 865 q 966 866 972 866 q 955 867 959 867 l 941 867 q 934 865 939 867 q 924 863 929 863 q 913 867 918 863 q 904 877 908 871 q 898 890 901 883 q 896 903 896 897 q 905 934 896 925 q 936 943 915 943 q 958 940 947 943 q 981 937 968 937 q 995 940 988 937 q 1008 943 1001 943 q 1038 934 1023 943 l 1131 934 q 1149 939 1137 937 q 1173 942 1160 941 q 1197 943 1185 943 q 1217 943 1208 943 q 1234 942 1225 943 q 1249 937 1242 941 q 1260 927 1256 933 q 1265 911 1265 921 q 1252 885 1265 893 q 1220 871 1238 876 q 1183 862 1202 867 q 1154 848 1164 858 q 1138 835 1146 842 q 1123 819 1130 827 q 1112 799 1116 810 q 1107 774 1107 787 q 1111 766 1109 773 q 1112 757 1112 760 q 1107 732 1109 745 q 1102 708 1105 720 q 1093 686 1099 696 q 1077 667 1087 675 q 1073 656 1076 665 q 1068 639 1071 648 q 1063 622 1065 630 q 1059 610 1061 614 q 1051 585 1056 598 q 1041 559 1046 572 q 1033 533 1036 546 q 1029 507 1029 519 q 1030 496 1029 500 q 1032 487 1032 492 q 1023 453 1032 471 q 1008 421 1014 435 q 1000 402 1003 412 q 995 383 998 393 q 990 363 993 373 q 984 345 988 354 q 981 337 984 344 q 975 328 977 330 q 965 300 968 315 q 961 268 962 284 q 958 234 959 251 q 955 204 957 218 q 940 151 949 176 q 924 98 932 126 q 924 90 924 96 q 923 76 924 83 q 922 62 922 68 q 921 55 921 56 q 920 45 921 52 q 916 32 918 39 q 912 19 914 25 q 910 11 911 13 q 892 5 901 5 q 878 11 885 5 q 864 26 871 17 q 852 44 857 35 q 844 58 846 53 q 828 86 833 71 q 817 115 822 100 q 807 145 812 130 q 794 174 802 159 q 733 279 765 227 q 665 381 702 332 q 656 403 659 391 q 648 425 654 415 q 642 434 647 427 q 630 451 636 442 q 618 469 624 460 q 612 479 613 477 q 609 488 610 484 q 606 498 608 493 q 603 508 605 503 q 595 517 600 513 l 569 543 l 565 576 q 563 579 565 577 q 561 583 562 582 q 554 591 559 585 q 544 605 549 597 q 535 617 539 612 q 530 624 531 623 l 511 661 q 502 669 507 668 q 489 671 496 670 q 475 675 482 671 q 462 690 469 678 q 453 706 459 698 q 439 713 448 713 q 431 713 435 713 q 422 707 427 712 l 422 701 q 414 663 422 679 q 396 628 407 648 q 392 622 395 627 q 388 616 388 618 l 388 576 q 386 570 388 574 q 381 559 384 565 q 376 549 378 554 q 373 543 374 545 l 370 487 q 358 441 368 464 q 339 397 348 419 l 304 278 q 290 244 297 260 q 277 213 283 229 q 267 179 271 197 q 262 142 262 162 q 267 123 262 132 q 277 106 271 114 q 291 92 283 98 q 307 81 299 86 l 326 58 l 368 58 q 381 57 373 58 q 396 53 389 56 q 408 45 403 50 q 414 34 414 41 q 408 12 414 20 q 393 0 402 4 q 373 -6 384 -5 q 353 -8 362 -8 q 315 -7 335 -8 q 277 -5 294 -6 q 270 -3 275 -5 q 258 0 264 -2 q 245 4 251 2 q 237 6 239 5 l 235 6 z "},"O":{"ha":821,"x_min":104,"x_max":802,"o":"m 200 42 q 145 105 165 71 q 116 177 125 140 q 105 256 107 215 q 104 340 104 297 q 112 390 104 368 q 128 437 121 412 q 148 498 138 466 q 170 561 157 530 q 179 580 174 571 q 190 599 184 589 q 200 618 195 608 q 207 640 205 628 q 230 665 220 652 q 249 691 240 678 q 267 716 258 703 q 287 741 276 728 q 372 822 325 787 q 473 878 419 856 q 481 881 477 879 q 488 884 486 884 q 527 895 509 888 q 566 906 546 903 q 582 902 570 905 q 607 897 594 899 q 631 891 619 894 q 647 888 642 889 q 665 878 656 885 q 682 866 674 871 q 686 864 682 865 q 693 860 689 862 q 700 855 696 857 q 703 850 703 852 q 718 841 709 847 q 736 827 727 835 q 752 812 745 820 q 763 795 760 804 q 770 771 767 780 q 775 754 772 762 q 782 738 779 746 q 792 715 786 729 l 792 645 l 802 604 l 802 595 q 799 578 802 586 q 797 561 797 570 q 799 545 797 553 q 802 529 802 537 q 798 496 802 513 q 787 464 793 480 q 774 432 781 448 q 763 401 768 416 q 752 385 758 392 q 743 370 747 378 q 741 350 741 361 q 737 328 740 339 q 722 306 730 315 q 708 285 714 298 q 670 212 691 245 q 610 154 648 179 q 601 140 604 149 q 589 127 597 132 q 528 80 555 103 q 473 39 500 57 q 413 9 446 20 q 335 -2 380 -2 q 297 0 318 -2 q 263 13 277 2 q 257 16 260 13 q 254 20 254 19 q 240 29 246 26 q 227 34 233 33 q 214 37 220 36 q 200 42 208 39 m 226 217 q 228 195 226 209 q 233 164 230 181 q 242 131 237 148 q 253 99 247 113 q 267 77 260 85 q 282 68 274 68 q 292 70 288 68 q 299 76 296 73 q 306 81 302 79 q 314 85 309 84 q 329 91 318 87 q 351 98 339 94 q 372 105 362 102 q 387 109 382 108 q 396 111 388 109 q 408 114 404 112 l 454 159 l 496 210 l 519 272 q 539 301 528 288 q 562 328 551 315 q 582 356 572 342 q 596 389 591 371 q 598 396 597 390 q 602 410 600 403 q 605 424 604 418 q 607 433 606 431 q 619 464 612 448 q 634 495 626 479 q 648 527 642 511 q 659 561 654 543 l 662 590 q 666 595 664 591 q 671 604 669 600 q 675 613 673 609 q 677 618 677 617 q 680 637 680 627 q 680 656 680 646 q 681 674 680 665 q 686 693 682 684 q 687 697 686 694 q 690 704 688 701 q 694 711 692 707 q 695 715 695 714 l 686 731 q 679 759 682 743 q 671 790 676 775 q 655 815 665 805 q 629 826 646 826 q 578 810 606 826 q 519 768 549 793 q 459 710 489 742 q 405 647 430 678 q 360 589 380 616 q 332 545 341 562 q 308 485 317 518 q 288 419 298 452 q 278 393 284 406 q 266 368 272 380 q 254 346 260 357 q 244 321 249 335 q 241 305 241 313 q 241 289 241 296 l 241 272 q 240 254 241 263 q 234 237 239 245 q 230 229 234 235 q 226 220 226 223 l 226 217 z "},"P":{"ha":795,"x_min":20,"x_max":856,"o":"m 147 3 l 105 8 l 63 3 q 33 7 46 3 q 20 29 20 11 q 31 51 20 45 q 55 62 41 58 l 78 63 q 122 76 100 65 q 158 102 144 87 q 159 106 159 104 q 163 111 160 109 q 165 117 163 115 q 166 121 165 119 q 168 123 167 123 q 185 165 180 145 q 198 212 190 186 q 203 224 199 218 q 210 237 206 230 q 215 246 212 241 q 220 257 218 251 q 238 341 231 297 q 260 426 245 385 q 264 434 260 427 q 271 450 267 441 q 277 465 275 458 q 280 474 280 472 q 282 484 281 476 q 284 500 283 491 q 286 516 285 509 q 287 526 287 524 q 303 592 294 559 q 326 654 312 624 q 330 687 329 669 q 334 722 331 706 q 348 752 338 736 q 357 786 357 768 q 347 809 357 796 q 321 832 336 821 q 291 850 307 843 q 264 858 275 858 q 254 856 258 858 q 245 854 250 854 q 219 864 231 854 q 208 888 208 875 q 218 903 208 897 q 244 912 229 909 q 280 919 260 916 q 318 922 300 921 q 351 923 336 923 q 372 924 366 924 q 415 920 394 924 q 460 915 437 916 q 518 908 490 913 q 576 897 547 903 q 634 884 605 891 q 693 871 663 878 q 702 871 695 871 q 715 869 708 870 q 729 868 723 869 q 736 867 735 867 q 760 852 745 865 q 791 822 775 839 q 819 788 806 805 q 836 762 832 770 l 838 738 q 848 717 841 726 q 856 697 856 707 q 845 652 850 679 q 831 597 839 625 q 813 547 824 570 q 787 514 802 524 q 765 499 777 507 q 736 487 752 492 q 731 482 735 486 q 722 473 727 478 q 712 462 717 467 q 703 455 707 457 q 678 448 693 452 q 647 439 663 444 q 621 432 632 435 q 608 429 610 429 l 559 427 l 509 429 q 496 436 503 432 q 484 444 490 439 q 475 453 479 448 q 471 465 471 458 q 485 483 471 476 q 516 494 498 490 q 552 502 534 498 q 576 508 569 505 q 596 517 589 513 q 608 527 603 522 q 617 538 612 532 q 632 551 623 544 q 645 563 637 557 q 660 573 652 568 q 675 583 668 578 q 685 596 682 589 l 685 624 q 689 631 686 627 q 696 640 692 634 q 709 654 701 646 l 703 762 q 654 828 684 806 q 576 850 625 850 l 551 850 q 534 838 544 848 q 516 815 525 828 q 499 789 507 802 q 490 768 492 776 l 490 753 q 475 691 486 722 q 454 632 465 661 q 449 624 452 631 q 446 615 446 616 l 446 585 q 443 575 446 583 q 438 567 439 568 q 428 536 431 551 q 421 505 424 520 q 416 474 418 489 q 410 444 414 458 q 406 427 409 437 q 398 406 402 417 q 390 385 394 395 q 385 367 387 374 q 379 360 383 366 q 374 353 376 354 q 368 336 370 346 q 366 315 366 326 q 364 294 365 304 q 361 276 363 283 q 348 238 355 258 q 333 200 340 219 q 321 161 326 180 q 316 123 316 142 q 322 91 316 103 q 338 71 329 79 q 358 58 347 62 q 379 48 370 53 q 394 38 388 44 q 401 22 401 33 q 391 11 401 16 q 367 4 380 7 q 340 1 353 2 q 322 0 328 0 q 270 4 296 0 q 214 8 243 8 l 147 3 z "},"Q":{"ha":982,"x_min":40,"x_max":1779,"o":"m 620 -80 q 600 -68 609 -77 q 582 -51 591 -60 q 564 -36 573 -43 q 545 -29 555 -29 q 517 -33 529 -29 q 496 -41 506 -36 q 477 -52 486 -46 q 456 -62 467 -58 q 450 -63 454 -62 q 440 -64 446 -64 q 431 -65 435 -65 q 425 -66 427 -66 l 411 -74 q 332 -100 372 -89 q 249 -111 292 -111 q 177 -107 214 -111 q 109 -89 140 -103 q 59 -49 79 -75 q 40 22 40 -22 q 55 62 40 40 q 92 105 71 85 q 137 142 113 126 q 176 164 160 159 l 216 170 q 224 171 218 170 q 239 174 231 172 q 248 171 241 172 q 256 170 255 170 q 262 171 257 170 q 274 171 267 171 q 287 172 280 172 q 299 174 294 173 q 303 172 300 173 q 311 169 307 170 q 319 165 315 167 q 323 164 322 164 q 337 163 324 163 q 360 163 349 163 q 376 164 372 164 q 412 157 394 162 q 449 148 431 153 q 486 138 467 142 q 524 132 504 134 q 535 116 530 126 q 551 106 541 106 q 569 106 559 106 q 589 109 579 107 q 609 114 600 111 q 625 121 618 117 q 628 125 625 122 q 631 129 631 128 q 659 162 645 146 q 686 195 673 178 q 692 211 691 202 q 699 227 693 219 q 702 230 699 227 q 709 236 705 233 q 717 242 713 239 q 721 246 720 245 q 722 253 721 248 q 723 264 722 258 q 724 274 723 269 q 724 279 724 278 q 734 295 726 288 q 747 307 743 301 q 762 331 755 317 q 774 362 769 346 q 784 394 780 378 q 791 420 787 409 q 803 450 796 435 q 813 482 810 465 q 815 514 816 496 q 821 549 815 532 q 827 579 825 564 q 829 609 829 593 q 827 640 829 625 q 821 672 825 655 q 816 690 820 681 q 807 708 812 699 q 797 726 802 717 q 791 743 793 734 q 779 796 785 772 q 762 842 772 821 q 735 881 751 863 q 694 915 719 899 q 646 943 670 931 q 593 955 622 955 q 554 948 573 955 q 515 931 534 941 q 476 911 496 921 q 438 894 457 901 l 425 882 q 417 869 423 879 q 405 848 411 859 q 393 827 398 837 q 385 814 387 817 l 336 753 q 334 742 336 750 q 331 732 333 734 q 313 663 320 696 q 297 593 305 629 q 292 583 296 591 q 288 572 288 576 q 296 523 288 548 q 317 473 304 497 q 346 429 330 450 q 380 394 363 408 q 404 371 391 382 q 434 360 416 360 q 453 356 444 357 q 474 354 463 354 q 492 355 484 354 q 508 360 500 357 q 512 361 509 360 q 519 365 515 363 q 528 369 524 367 q 535 372 532 371 q 578 409 564 389 q 593 466 593 430 q 586 481 593 475 q 570 487 579 487 q 541 483 555 487 q 513 479 527 479 q 477 489 492 479 q 452 516 462 500 q 438 551 443 532 q 433 588 433 570 q 447 626 433 609 q 479 656 460 644 q 521 675 498 668 q 562 682 543 682 q 585 676 571 680 q 611 665 598 671 q 634 653 624 659 q 647 643 644 647 q 649 631 649 635 q 650 624 650 627 q 650 618 650 621 q 654 611 651 616 l 673 589 q 671 574 671 583 q 671 557 671 566 q 672 539 671 548 q 676 522 673 530 q 669 466 674 490 q 653 421 663 441 q 626 381 642 400 q 587 340 610 361 q 585 339 587 340 q 578 336 583 338 q 563 333 573 335 q 535 328 552 330 q 520 316 531 320 q 497 309 509 311 q 471 307 484 307 q 448 307 458 307 q 429 307 439 307 q 407 308 418 307 q 385 310 395 309 q 366 313 374 311 q 330 329 353 317 q 284 356 307 341 q 241 385 260 370 q 216 407 222 399 q 197 433 209 421 q 180 460 186 446 q 177 474 179 463 q 172 497 175 485 q 167 522 170 510 q 162 537 164 533 q 159 547 161 543 q 154 558 157 552 l 154 646 q 161 661 159 656 q 163 670 163 666 q 164 680 164 674 q 168 696 165 685 q 173 710 170 705 q 179 720 176 715 q 186 730 182 725 q 195 743 190 735 q 207 769 201 756 q 218 794 212 782 q 231 818 224 806 q 247 841 237 829 q 261 855 251 846 q 283 875 272 865 q 303 895 294 886 q 313 908 312 904 l 326 934 q 331 939 328 936 q 339 945 335 942 q 348 951 344 949 q 353 955 351 954 q 380 967 366 960 q 410 981 395 974 q 440 994 425 987 q 469 1004 456 1000 q 477 1007 472 1005 q 488 1010 483 1008 q 498 1013 494 1012 q 503 1015 503 1015 q 588 1021 548 1021 q 659 1015 625 1021 q 667 1013 659 1015 q 686 1007 675 1010 q 708 1001 697 1004 q 724 996 719 998 q 735 992 730 995 q 745 985 741 989 q 755 979 750 982 q 765 975 760 976 q 783 970 773 972 q 801 964 792 968 q 818 956 810 961 q 832 942 826 951 q 841 927 836 938 q 853 911 846 916 q 860 909 854 911 q 866 908 863 909 q 896 882 882 901 q 924 841 911 864 q 948 791 937 817 q 969 743 960 765 q 972 719 974 731 q 977 696 971 707 q 981 657 981 676 q 982 621 982 639 q 981 585 982 603 q 979 549 981 567 q 962 482 977 521 q 927 404 947 444 q 886 327 907 363 q 848 267 865 290 q 842 256 847 264 q 831 239 837 248 q 820 222 825 230 q 813 214 815 215 q 803 201 810 210 q 786 183 795 193 q 768 166 777 174 q 757 156 760 158 q 731 144 747 152 q 699 125 715 136 q 670 101 682 114 q 659 74 659 87 q 666 67 659 72 q 683 58 673 63 q 702 47 692 53 q 717 37 712 42 q 757 -9 736 13 q 801 -51 779 -31 q 847 -90 824 -71 q 893 -128 870 -109 q 924 -156 909 -141 q 955 -185 939 -170 q 987 -213 971 -199 q 1022 -236 1004 -226 q 1031 -239 1024 -237 q 1046 -243 1038 -241 q 1063 -249 1055 -245 q 1075 -256 1071 -252 q 1083 -263 1077 -258 q 1097 -276 1090 -269 q 1111 -289 1105 -283 q 1118 -296 1117 -294 l 1162 -318 q 1172 -326 1164 -320 q 1188 -338 1180 -332 q 1203 -351 1196 -345 q 1212 -358 1210 -357 q 1242 -375 1225 -369 q 1278 -385 1259 -380 q 1315 -395 1296 -390 q 1350 -411 1333 -401 q 1380 -422 1363 -420 q 1414 -425 1396 -425 l 1447 -425 q 1460 -425 1453 -425 q 1475 -426 1467 -425 q 1486 -432 1480 -427 q 1501 -437 1491 -437 q 1515 -434 1505 -437 q 1538 -426 1525 -431 q 1565 -414 1551 -421 q 1589 -400 1578 -408 q 1608 -386 1600 -393 q 1615 -373 1615 -379 q 1613 -368 1615 -372 q 1608 -357 1611 -363 q 1604 -344 1606 -351 q 1602 -331 1602 -337 q 1607 -311 1602 -320 q 1615 -292 1611 -302 q 1625 -264 1620 -279 q 1638 -239 1630 -250 q 1657 -220 1645 -227 q 1689 -212 1669 -212 q 1704 -216 1693 -212 q 1725 -224 1714 -219 q 1745 -235 1735 -229 q 1758 -245 1754 -241 q 1763 -258 1759 -251 q 1770 -271 1766 -264 q 1776 -284 1773 -278 q 1779 -296 1779 -291 q 1761 -354 1779 -326 q 1717 -404 1744 -381 q 1659 -442 1690 -426 q 1602 -465 1628 -458 q 1481 -492 1544 -479 q 1360 -505 1419 -505 l 1313 -505 q 1304 -500 1310 -502 q 1293 -498 1297 -498 q 1281 -502 1288 -498 q 1266 -505 1274 -505 q 1245 -501 1255 -505 q 1225 -494 1235 -498 q 1205 -485 1215 -490 q 1186 -479 1196 -481 l 1080 -441 q 1046 -427 1062 -436 q 1014 -406 1029 -417 q 984 -381 998 -394 q 956 -358 969 -369 l 914 -332 q 898 -311 905 -324 q 879 -286 890 -297 q 873 -282 878 -285 q 866 -279 868 -280 q 810 -245 834 -262 q 760 -203 786 -228 q 747 -189 753 -197 q 735 -173 741 -181 q 723 -158 730 -165 q 710 -146 717 -151 q 684 -131 696 -138 q 661 -116 672 -123 q 640 -101 650 -109 q 620 -80 630 -92 m 147 3 q 153 -18 147 -9 q 168 -33 159 -27 q 189 -43 177 -39 q 212 -50 201 -47 l 291 -56 q 293 -58 291 -58 q 297 -58 296 -58 q 315 -52 308 -58 q 331 -43 321 -47 q 360 -37 344 -41 q 393 -30 376 -34 q 427 -20 410 -25 q 456 -8 443 -14 q 459 -2 458 -7 q 459 7 459 3 q 455 25 459 17 q 445 39 451 33 q 430 48 438 45 q 416 53 422 52 q 405 56 414 54 q 387 60 397 58 q 368 64 377 62 q 357 67 359 66 q 329 76 345 71 q 291 81 313 81 q 287 79 290 81 q 280 75 284 77 q 273 72 277 73 q 269 71 270 71 q 232 65 253 68 q 193 57 212 63 q 160 38 174 50 q 147 3 147 26 z "},"R":{"ha":909,"x_min":13,"x_max":1281,"o":"m 460 489 q 439 485 446 489 q 428 472 432 480 q 421 455 424 465 q 413 435 418 446 q 398 409 408 423 q 382 379 389 395 q 379 365 380 372 q 377 353 378 359 q 375 341 376 347 q 370 328 374 335 q 366 320 368 322 q 363 317 364 318 q 360 314 361 316 q 359 309 359 313 l 359 286 q 354 268 357 277 q 347 251 351 259 q 340 234 343 242 q 336 216 336 225 l 336 190 q 332 172 336 184 l 310 127 q 309 121 309 123 q 309 115 309 118 q 309 111 309 113 q 319 80 309 90 q 342 65 330 71 q 366 54 355 60 q 376 37 376 49 q 376 33 376 35 q 375 29 375 31 q 306 3 340 9 q 233 -2 271 -2 q 197 0 218 -2 l 140 0 q 131 -3 138 -1 q 116 -8 125 -5 q 100 -13 108 -11 q 87 -15 92 -15 q 61 -14 75 -15 q 37 -8 48 -12 q 20 6 26 -3 q 13 31 13 15 q 19 52 13 45 q 35 63 25 60 q 57 68 45 67 q 82 69 70 68 q 105 71 94 70 q 123 77 116 73 q 127 82 123 79 q 135 88 130 85 q 143 94 139 91 q 149 98 147 97 q 152 102 150 100 q 155 105 154 104 q 159 108 157 107 q 161 120 159 111 q 163 132 162 129 q 166 136 163 132 q 171 142 168 139 q 177 149 174 146 q 180 153 180 152 q 186 166 185 159 q 186 180 186 174 l 186 199 q 187 210 186 205 q 189 220 188 215 l 195 238 q 230 334 212 286 q 270 429 248 382 q 296 478 281 453 q 318 528 310 503 q 322 552 321 541 q 323 576 323 564 l 323 593 q 323 611 323 603 q 326 627 323 618 q 330 633 327 629 q 338 644 334 638 q 345 653 342 649 q 349 659 348 658 q 355 672 351 663 q 361 692 358 682 q 367 711 364 702 q 370 724 369 720 l 370 725 q 368 732 370 728 q 366 738 366 736 q 365 741 365 738 q 365 745 365 743 q 365 751 365 747 q 366 757 365 755 q 371 767 368 760 q 379 783 375 774 q 388 798 383 791 q 394 807 392 805 q 397 818 396 814 q 399 826 399 821 q 391 849 399 838 q 371 867 383 859 q 346 880 359 875 q 323 884 333 884 q 276 880 300 884 q 231 876 252 876 q 219 878 227 876 q 204 884 212 880 q 191 893 197 888 q 185 903 185 899 q 196 922 185 913 q 221 938 207 931 q 252 948 236 944 q 278 951 268 951 q 317 949 302 951 q 349 945 332 947 q 384 945 367 945 q 420 945 400 945 q 462 950 441 945 q 508 955 483 955 q 571 952 541 955 q 631 944 601 949 q 692 931 661 939 q 755 914 722 923 q 778 903 764 911 q 808 885 792 895 q 839 864 823 876 q 868 841 855 852 q 890 820 882 830 q 901 802 899 809 q 902 792 901 798 q 903 779 903 785 q 905 766 904 772 q 905 757 905 760 q 899 711 905 732 q 883 669 893 689 q 859 631 873 649 q 831 595 846 612 q 818 580 825 587 q 804 566 811 572 q 788 554 797 559 q 768 548 779 549 q 761 547 767 548 q 749 546 755 547 q 736 545 742 545 q 730 543 730 544 q 720 539 728 543 q 703 531 712 535 q 687 522 694 526 q 677 517 679 518 q 653 508 662 510 q 640 503 645 506 q 630 491 634 499 q 622 463 627 482 l 618 450 q 643 425 633 439 q 660 394 653 410 q 670 361 666 378 q 677 328 674 344 l 682 315 q 687 308 682 314 q 698 295 692 302 q 708 281 703 288 q 714 272 713 275 q 718 260 715 270 q 724 240 721 251 q 730 219 728 229 q 734 206 733 209 q 735 198 734 203 q 738 193 736 193 q 744 178 742 185 q 747 162 745 170 q 750 147 748 155 q 755 132 751 139 l 765 114 q 781 90 774 98 q 792 66 787 81 q 793 57 792 64 q 795 43 794 50 q 797 29 796 35 q 799 21 798 23 q 804 17 800 20 q 812 8 808 13 q 821 0 817 4 q 826 -5 825 -3 q 831 -14 827 -7 q 841 -31 836 -22 q 850 -49 846 -40 q 857 -63 855 -58 q 866 -79 862 -73 q 874 -90 870 -85 q 884 -101 879 -95 q 897 -116 890 -107 q 917 -140 908 -129 q 935 -163 926 -152 q 954 -186 944 -175 q 977 -210 964 -198 q 986 -218 979 -212 q 1000 -232 992 -224 q 1013 -246 1007 -239 q 1021 -254 1019 -252 q 1030 -259 1023 -257 q 1044 -260 1037 -260 q 1056 -259 1050 -260 q 1065 -258 1062 -258 q 1074 -269 1069 -263 q 1084 -281 1078 -275 q 1098 -290 1090 -286 q 1112 -294 1105 -294 q 1121 -291 1116 -294 q 1132 -284 1126 -288 q 1140 -277 1137 -280 q 1144 -273 1143 -274 q 1149 -262 1148 -269 q 1151 -248 1150 -256 q 1154 -231 1152 -239 q 1164 -214 1156 -222 l 1164 -167 q 1170 -150 1164 -157 q 1183 -136 1175 -142 q 1201 -127 1192 -130 q 1217 -123 1210 -123 q 1267 -145 1253 -123 q 1281 -203 1281 -167 q 1271 -251 1281 -230 q 1242 -289 1260 -273 q 1201 -317 1224 -305 q 1152 -336 1177 -329 q 1101 -347 1126 -344 q 1053 -351 1076 -351 l 1043 -351 l 1004 -337 l 950 -337 q 944 -335 949 -337 q 935 -331 940 -333 q 924 -326 929 -328 q 916 -321 919 -323 q 882 -299 897 -309 q 854 -277 867 -288 q 831 -252 842 -265 q 808 -222 821 -239 q 807 -218 808 -220 q 804 -214 805 -215 q 803 -210 804 -213 q 800 -202 802 -206 q 797 -195 798 -198 q 795 -190 795 -191 q 791 -186 794 -189 q 784 -178 788 -182 q 778 -171 781 -174 q 774 -167 774 -168 q 750 -124 760 -147 q 726 -82 740 -100 q 723 -79 726 -81 q 719 -74 721 -77 q 714 -70 716 -72 q 711 -67 711 -67 q 709 -61 710 -66 q 707 -48 708 -55 q 704 -35 705 -41 q 703 -27 703 -29 q 700 -22 703 -26 q 694 -13 697 -18 q 688 -5 691 -9 q 685 0 686 -1 q 648 76 665 35 q 618 159 631 118 q 618 163 618 159 q 617 171 618 167 q 616 180 616 176 q 614 185 615 184 q 607 200 612 193 q 597 216 602 208 q 588 231 592 223 q 583 245 583 238 l 583 283 q 580 293 583 288 q 573 303 577 298 q 566 312 570 307 q 561 321 563 317 q 558 330 560 323 q 555 345 557 337 q 551 359 553 353 q 549 366 549 365 q 543 380 548 370 q 535 392 538 390 q 531 397 534 393 q 525 404 528 400 q 519 410 522 407 q 516 415 517 414 q 507 436 511 424 q 497 461 503 449 q 483 481 492 473 q 460 489 474 489 m 458 563 q 467 548 458 553 q 486 543 475 543 q 491 544 487 543 q 500 546 495 545 q 508 547 505 547 q 513 548 512 548 l 561 548 q 579 560 565 553 q 611 573 593 567 q 644 585 628 580 q 667 591 660 589 q 686 601 677 595 q 702 614 694 607 q 717 628 709 621 q 734 641 725 635 q 743 647 736 642 q 752 654 750 652 q 760 674 757 660 q 765 704 764 688 q 768 736 767 720 q 768 762 768 752 q 761 797 768 780 q 740 829 753 813 q 712 858 728 844 q 683 884 697 871 l 671 893 l 653 893 q 601 887 621 893 q 568 871 581 882 q 550 845 556 860 q 538 810 543 829 q 529 767 534 791 q 516 718 524 744 q 502 685 511 705 q 483 643 492 665 q 466 599 473 621 q 458 563 458 578 z "},"S":{"ha":722,"x_min":25,"x_max":767,"o":"m 262 1 q 195 32 230 19 q 126 58 161 44 q 122 62 125 60 q 119 63 120 63 q 102 74 114 66 q 77 90 90 81 q 53 106 64 98 q 38 116 41 113 q 28 130 32 121 q 25 148 25 139 q 27 163 25 155 q 33 181 30 172 q 39 199 36 190 q 43 216 42 208 q 44 237 43 222 q 47 268 45 251 q 53 303 50 286 q 60 336 56 321 q 71 360 64 351 q 84 370 77 370 q 102 361 94 370 q 115 342 110 353 q 123 319 121 331 q 126 300 126 307 q 124 273 126 287 q 123 237 123 260 q 136 188 126 215 q 162 135 146 161 q 198 90 178 110 q 241 63 218 70 q 251 61 244 63 q 266 57 258 59 q 281 52 274 54 q 292 50 288 50 q 391 74 348 50 q 471 138 434 98 q 485 160 480 147 q 492 187 490 172 q 494 217 494 201 q 494 249 494 233 q 488 300 494 279 q 470 339 481 321 q 445 373 459 356 q 416 413 431 390 q 410 427 415 416 q 398 450 404 437 q 386 473 391 463 q 378 487 380 484 q 334 549 359 519 q 288 611 309 578 q 276 642 282 623 q 266 680 270 660 q 258 718 261 699 q 255 749 255 736 q 256 775 255 764 q 261 794 258 785 q 269 812 264 803 q 281 832 273 821 q 291 853 288 843 q 298 873 295 863 q 304 894 301 884 q 313 916 307 905 q 331 936 317 925 q 359 956 344 946 q 388 972 374 965 q 406 981 401 979 q 411 985 407 982 q 421 990 416 987 q 432 996 427 993 q 439 1000 437 998 q 460 1001 450 1001 q 481 1002 471 1002 q 539 996 508 1002 q 595 981 570 990 q 619 975 608 979 q 642 966 631 970 q 666 958 654 962 q 692 955 678 955 l 742 969 q 759 960 751 969 q 767 943 767 951 q 746 893 756 922 q 732 841 736 865 q 726 815 728 828 q 722 788 724 803 q 718 754 720 772 q 711 710 715 735 q 703 711 707 711 q 696 712 700 711 q 689 714 693 713 q 677 720 684 716 q 668 755 672 735 q 661 794 665 775 q 653 828 657 813 q 642 850 648 844 q 637 852 640 850 q 632 859 635 855 q 628 865 630 862 q 625 868 625 867 q 622 874 625 869 q 617 883 620 878 q 611 892 614 888 q 607 897 608 897 q 589 910 604 903 q 558 925 574 918 q 527 938 541 932 q 511 942 513 943 q 505 941 509 942 q 494 939 500 940 q 482 936 488 937 q 475 934 477 935 l 414 929 q 391 908 399 925 q 377 872 382 892 q 370 833 372 852 q 368 804 368 814 q 368 798 368 802 q 368 787 368 793 q 368 777 368 782 q 369 768 368 771 q 400 729 386 750 q 427 685 414 707 q 454 641 440 663 q 484 600 467 618 q 493 590 486 597 q 507 576 499 584 q 520 562 514 568 q 528 553 526 555 q 541 542 533 548 q 557 527 549 535 q 569 510 564 519 q 574 492 574 501 q 597 467 589 479 q 610 444 605 456 q 620 418 616 431 q 629 389 624 405 l 645 363 q 643 304 645 334 q 636 246 642 275 q 622 190 631 217 q 595 138 612 163 q 579 114 589 128 q 560 86 570 100 q 538 61 549 73 q 515 45 526 50 l 484 41 q 479 37 483 41 q 471 28 475 33 q 462 20 466 24 q 458 14 458 16 q 444 5 454 9 q 424 -4 435 0 q 402 -11 413 -8 q 385 -13 392 -13 q 355 -11 370 -13 q 325 -6 340 -8 q 294 -1 310 -3 q 262 1 279 1 z "},"T":{"ha":1067,"x_min":136,"x_max":1225,"o":"m 296 7 q 304 37 296 28 q 325 51 312 47 q 353 56 337 55 q 385 61 369 58 q 405 68 393 62 q 427 84 416 75 q 447 103 438 94 q 460 121 456 113 l 460 159 q 464 181 460 170 q 473 203 468 192 q 482 224 477 214 q 490 244 487 234 q 518 350 505 295 q 537 456 532 404 q 553 556 543 506 q 587 651 564 606 l 587 736 q 589 739 587 736 q 593 747 591 743 q 597 755 595 751 q 600 762 599 760 q 613 797 609 778 q 618 832 618 815 q 612 859 618 848 q 595 877 606 870 q 572 888 585 884 q 547 895 559 892 q 543 897 546 895 q 534 900 539 898 q 524 903 529 901 q 515 905 519 904 l 486 895 q 477 896 480 895 q 468 899 473 897 q 435 902 454 901 q 397 906 417 904 q 356 908 377 907 q 317 909 336 909 q 299 907 307 909 q 283 902 291 905 q 267 898 275 900 q 247 895 258 895 q 236 881 242 892 q 224 857 230 869 q 215 832 218 844 q 211 818 211 821 q 217 809 213 814 q 224 795 220 803 q 231 779 228 787 q 233 762 233 770 q 231 733 233 745 q 223 716 229 722 q 207 708 217 710 q 179 705 196 705 q 148 720 161 705 q 136 752 136 734 q 141 777 136 767 q 154 796 146 787 q 170 812 161 804 q 184 832 178 821 l 184 850 q 193 871 187 865 q 206 886 199 876 l 211 899 q 223 911 215 903 q 233 921 231 920 q 237 922 233 922 q 246 924 241 923 q 254 925 250 924 q 259 926 258 926 l 282 943 q 295 947 285 945 q 317 949 305 948 q 340 951 329 951 q 355 953 351 952 q 451 961 403 956 q 545 967 499 967 q 559 967 551 967 q 568 966 568 967 q 574 964 570 966 q 583 961 578 963 q 591 958 587 959 q 595 956 595 956 l 650 956 q 655 955 650 956 q 664 952 659 954 q 674 950 669 951 q 680 949 679 949 l 694 949 l 769 956 q 807 952 786 956 q 840 940 827 949 q 865 937 853 938 q 891 935 878 935 q 910 936 901 935 q 929 939 920 937 q 941 940 935 940 q 954 941 948 941 q 968 941 962 941 q 978 940 974 941 q 985 940 982 940 q 994 940 989 940 q 1034 944 1016 941 q 1067 953 1051 947 q 1097 969 1082 959 q 1128 993 1112 979 q 1137 1008 1136 1000 q 1139 1025 1137 1017 q 1147 1039 1141 1034 q 1172 1045 1154 1045 q 1200 1042 1187 1045 q 1221 1023 1212 1038 q 1225 956 1225 991 q 1215 928 1225 943 q 1190 900 1204 913 q 1159 877 1175 887 q 1132 863 1143 867 q 1093 860 1115 859 q 1052 855 1071 860 q 1025 858 1038 855 q 1000 865 1013 861 q 976 871 987 868 q 952 874 964 874 q 929 871 940 874 q 909 868 918 868 l 827 874 q 812 872 819 874 q 800 863 806 871 q 789 833 793 848 q 781 804 785 819 q 774 773 778 789 q 766 743 771 758 q 760 737 764 741 q 755 732 755 733 l 755 701 q 746 662 752 681 q 733 625 739 644 q 721 588 726 606 q 712 549 715 569 l 712 519 q 710 510 711 517 q 707 494 709 503 q 704 477 705 485 q 703 466 703 469 q 696 452 701 458 q 685 440 690 446 q 674 427 679 433 q 669 413 669 420 q 666 394 667 403 q 665 378 665 386 q 663 361 664 370 q 658 342 661 353 q 653 331 656 336 q 647 321 650 326 q 642 309 644 315 q 639 291 640 302 q 640 270 639 279 q 642 251 642 260 q 640 237 642 243 q 634 222 639 230 q 625 200 630 208 q 616 185 620 193 q 609 169 612 178 q 606 140 606 159 q 607 113 606 125 q 613 90 608 100 q 627 73 617 79 q 653 67 636 67 l 698 71 q 720 68 708 71 q 742 61 732 66 q 759 47 752 56 q 766 24 766 38 q 750 -4 766 5 q 718 -13 735 -13 q 669 -7 693 -13 q 623 -2 646 -2 l 586 -7 q 574 -6 579 -7 q 560 1 568 -5 l 460 1 q 439 -2 450 -2 q 417 -2 428 -2 q 395 -4 406 -3 q 378 -13 385 -6 l 322 -13 q 316 -11 320 -13 q 308 -6 312 -9 q 300 1 303 -3 q 296 7 296 4 z "},"U":{"ha":1413,"x_min":141,"x_max":1405,"o":"m 614 50 q 592 71 607 56 q 563 103 578 86 q 534 138 547 121 q 517 164 521 155 q 511 182 513 174 q 509 199 509 191 q 507 215 508 207 q 504 233 507 224 q 495 256 500 241 q 485 288 490 271 q 477 319 480 304 q 473 345 473 335 q 479 373 473 357 q 488 399 485 388 q 507 497 493 450 q 541 593 520 544 q 569 642 551 618 q 604 688 587 665 q 633 736 621 711 q 645 791 645 761 q 644 805 645 798 q 640 814 644 811 q 624 821 631 819 q 612 826 618 824 q 601 828 607 827 q 588 828 595 828 q 550 827 570 828 q 501 824 530 825 q 431 821 472 822 q 332 820 391 820 q 319 819 328 820 q 300 816 310 818 q 280 813 290 814 q 268 810 271 811 q 239 795 253 800 q 208 784 226 790 q 206 783 207 784 q 205 780 205 781 q 224 756 212 768 q 252 739 237 744 q 277 733 264 736 q 300 725 290 730 q 316 710 310 720 q 322 682 322 700 l 321 665 q 314 635 317 649 q 304 609 310 621 q 288 585 298 597 q 264 563 279 574 q 261 561 264 563 q 253 556 258 559 q 244 551 249 553 q 237 549 240 549 q 202 563 219 549 q 172 596 185 576 q 150 636 159 615 q 141 670 142 656 q 142 674 141 671 q 143 683 142 678 q 144 691 144 687 q 145 696 145 694 q 170 797 149 751 q 234 882 190 844 q 243 886 235 884 q 252 890 250 889 q 263 899 258 893 q 275 909 269 904 q 287 919 281 915 q 301 926 294 924 q 324 933 309 928 q 354 941 339 937 q 381 948 369 945 q 395 951 393 951 l 460 951 q 470 952 463 952 q 487 954 477 953 q 504 955 496 954 q 517 955 513 955 q 536 959 526 956 q 556 966 546 962 q 576 972 566 970 q 595 975 586 975 q 605 973 600 975 q 615 967 610 970 q 626 962 621 964 q 639 960 632 960 q 660 965 651 960 q 680 970 669 970 l 710 966 l 795 970 q 815 969 807 970 q 835 960 823 968 q 834 935 835 946 q 825 916 833 924 q 772 857 795 888 q 733 791 750 825 q 704 720 717 757 q 677 644 690 684 l 671 624 q 660 599 667 612 q 648 572 652 586 q 644 553 647 564 q 639 533 642 543 q 634 513 636 523 q 632 498 632 504 q 635 477 635 490 q 636 453 635 464 l 628 386 q 629 331 628 359 q 634 280 631 303 q 649 230 640 252 q 681 188 658 208 q 693 179 687 182 q 703 170 699 176 q 706 163 704 168 q 712 151 709 157 q 718 140 715 145 q 722 134 721 134 q 741 113 726 123 q 773 94 755 102 q 808 79 791 85 q 835 71 825 73 q 844 70 837 71 q 858 69 850 70 q 872 68 865 68 q 880 67 878 67 q 891 64 885 66 q 902 58 897 61 q 913 52 908 55 q 923 50 918 50 q 946 59 935 50 q 965 75 956 68 q 1018 97 992 85 q 1067 122 1044 108 q 1112 155 1090 136 q 1150 199 1133 174 l 1154 210 q 1166 234 1158 223 q 1182 257 1174 245 q 1199 280 1191 268 q 1211 307 1206 292 l 1215 333 q 1223 342 1219 339 q 1232 349 1227 346 q 1239 355 1236 351 q 1244 363 1242 358 q 1246 378 1244 368 q 1251 401 1249 389 q 1256 424 1254 413 q 1258 437 1258 434 q 1274 497 1266 466 q 1282 558 1282 529 q 1281 621 1282 591 q 1278 682 1280 651 q 1277 689 1278 684 q 1275 700 1276 694 q 1272 710 1274 705 q 1270 715 1271 714 l 1251 739 q 1247 754 1248 745 q 1244 768 1246 764 q 1228 797 1238 783 q 1208 827 1218 812 q 1192 860 1199 843 q 1185 897 1185 877 q 1193 926 1185 912 q 1212 949 1200 939 q 1238 965 1223 959 q 1269 970 1253 970 q 1286 968 1279 970 q 1298 963 1293 966 q 1307 955 1303 960 q 1318 943 1312 949 q 1325 939 1320 940 q 1334 938 1329 939 q 1343 935 1339 937 q 1349 929 1347 933 q 1351 923 1350 928 q 1352 916 1352 919 q 1359 898 1354 907 q 1368 882 1363 890 q 1378 865 1373 873 q 1385 847 1382 857 q 1387 833 1385 842 q 1390 817 1389 825 q 1392 802 1391 808 q 1393 792 1393 795 l 1392 762 q 1394 745 1392 753 q 1401 732 1395 736 q 1405 646 1405 688 l 1405 624 q 1401 603 1405 612 q 1393 585 1398 594 q 1385 568 1389 576 q 1381 548 1381 559 q 1384 537 1381 541 q 1390 531 1387 534 q 1396 524 1394 528 q 1399 515 1399 521 q 1399 513 1399 514 q 1398 510 1398 511 q 1398 506 1398 508 q 1379 447 1390 475 q 1349 394 1369 419 q 1343 384 1345 390 q 1339 370 1341 378 q 1336 355 1337 363 q 1332 340 1334 347 q 1300 295 1320 317 q 1265 254 1280 273 q 1256 235 1258 245 q 1246 217 1254 225 q 1184 148 1215 182 q 1114 81 1152 113 q 1087 66 1101 71 q 1057 55 1073 61 q 1045 48 1050 52 q 1035 39 1040 43 q 1024 30 1029 34 q 1012 24 1019 26 q 962 7 987 12 q 911 -7 936 2 q 882 -9 896 -9 q 853 -9 869 -9 q 824 -9 838 -9 q 796 -7 810 -9 q 786 -12 790 -12 q 775 -13 782 -13 q 767 -11 770 -13 q 759 -5 763 -8 q 751 1 755 -2 q 742 5 747 3 q 710 15 725 9 q 680 26 695 20 q 649 38 665 32 q 614 50 633 44 z "},"V":{"ha":901,"x_min":103,"x_max":1149,"o":"m 103 15 q 104 34 103 22 q 106 60 104 47 q 110 85 107 73 q 116 102 113 96 q 120 105 117 102 q 126 112 123 108 q 133 119 130 115 q 136 123 136 122 q 137 129 136 124 q 138 138 138 133 q 140 148 139 143 q 142 153 140 152 q 144 157 142 154 q 148 163 146 160 q 152 169 150 166 q 155 172 154 172 q 156 178 155 174 q 159 185 157 182 q 166 208 163 199 q 174 222 170 216 q 182 236 178 229 q 191 256 186 243 q 192 261 191 256 q 194 272 193 266 q 195 282 195 277 q 196 289 196 288 q 201 312 197 300 q 211 334 205 323 q 220 356 216 345 q 229 379 225 367 q 237 411 235 395 q 243 442 239 427 q 259 488 250 464 q 273 535 268 511 l 278 550 q 290 596 284 574 q 306 645 296 619 q 308 650 306 646 q 312 658 309 654 q 316 666 314 663 q 317 671 317 670 q 322 683 319 675 q 328 698 325 690 q 333 712 330 706 q 335 720 335 718 q 335 727 335 722 q 336 738 336 732 q 338 748 337 743 q 339 754 338 753 q 351 778 345 768 q 363 798 357 788 q 373 821 369 808 q 376 852 376 833 q 371 858 375 854 q 363 866 368 862 q 355 874 359 871 q 349 879 351 878 q 345 881 349 880 q 338 885 342 883 q 329 889 334 887 q 322 892 325 890 q 309 896 315 895 q 296 900 302 898 q 283 905 290 901 q 272 914 277 908 q 270 919 271 916 q 269 924 269 923 q 277 942 270 935 q 296 950 285 949 l 393 945 q 439 947 413 945 q 486 960 465 949 l 593 968 q 614 959 609 968 q 619 934 619 949 q 613 915 619 922 q 597 904 606 907 q 576 899 587 900 q 556 897 565 898 q 531 864 542 886 q 511 817 519 842 q 495 768 503 792 q 482 728 488 745 q 477 719 481 726 q 468 702 473 711 q 459 684 463 693 q 452 671 454 675 q 440 649 447 662 q 434 629 434 636 l 439 582 q 435 568 439 580 q 426 542 431 555 q 416 516 420 528 q 412 505 412 505 q 407 498 411 503 q 399 488 404 493 q 390 477 394 482 q 386 471 387 473 q 383 468 385 471 q 380 460 382 465 q 378 451 379 455 q 376 444 377 446 q 375 432 375 437 q 375 420 375 427 q 373 416 375 416 q 366 415 370 416 q 353 410 361 414 q 346 402 347 408 q 343 389 344 396 q 341 374 342 382 q 339 363 341 367 l 313 299 q 321 268 313 277 q 346 259 328 259 q 366 265 356 259 q 384 278 376 271 q 400 295 393 286 q 415 309 408 303 q 461 364 443 334 q 500 424 479 394 q 546 481 522 456 q 595 532 570 507 l 605 542 q 622 564 614 552 q 635 586 629 575 q 650 608 642 597 q 669 627 658 618 q 689 644 679 635 q 711 661 699 652 q 733 678 722 669 q 755 697 744 688 q 788 729 772 713 q 816 763 804 745 q 837 801 829 781 q 844 846 844 821 q 836 882 844 871 q 818 898 827 892 q 799 909 808 903 q 791 930 791 915 q 800 949 791 940 q 823 966 810 959 q 850 979 836 974 q 871 983 863 983 q 899 979 885 983 q 926 975 913 975 l 1091 989 q 1102 988 1094 989 q 1118 987 1109 988 q 1134 986 1127 987 q 1143 985 1141 986 q 1149 981 1148 984 q 1149 975 1149 979 q 1135 949 1149 960 q 1102 929 1121 938 q 1063 914 1082 921 q 1034 901 1044 907 q 1016 890 1023 895 q 1004 882 1010 886 q 993 874 999 878 q 977 866 987 871 q 970 858 972 863 q 966 847 968 853 q 964 835 965 841 q 958 825 962 829 q 924 797 943 809 q 888 770 905 785 q 863 739 874 755 q 841 705 852 722 q 820 671 831 688 q 795 640 808 654 q 738 578 770 609 q 674 519 707 548 q 667 514 670 515 q 663 512 665 513 q 659 510 661 511 q 654 505 657 509 q 653 500 654 503 q 650 495 651 496 q 643 481 646 486 q 636 473 640 477 q 627 467 632 470 q 614 460 622 465 l 587 424 q 529 369 557 397 q 475 310 502 340 q 422 252 449 281 q 366 195 395 222 q 350 187 359 189 q 332 180 340 186 q 317 163 323 175 q 305 139 311 152 q 295 115 300 127 q 283 96 290 103 l 206 26 q 198 12 204 18 q 185 1 193 6 q 170 -7 178 -4 q 155 -9 161 -9 q 142 -8 151 -9 q 125 -4 134 -7 q 110 4 116 -1 q 103 15 103 9 z "},"W":{"ha":1326,"x_min":175,"x_max":1520,"o":"m 175 37 l 181 54 l 175 67 q 176 84 175 79 q 181 98 176 88 l 202 169 q 205 190 202 180 q 211 209 208 199 q 219 227 215 218 q 224 244 222 235 l 224 292 l 231 305 l 218 323 q 224 336 218 330 q 237 348 230 342 q 250 359 244 353 q 256 373 256 366 l 250 395 q 256 427 250 411 q 264 458 262 442 q 275 556 268 505 q 296 656 283 606 q 308 696 300 675 q 317 741 315 717 l 317 766 q 321 772 317 767 q 327 779 326 777 q 312 807 327 795 q 271 832 296 819 q 249 843 259 838 q 230 856 238 849 q 217 870 222 863 q 212 886 212 877 q 215 898 212 892 q 223 908 218 903 q 235 917 229 913 q 247 920 241 920 q 283 915 265 916 q 318 913 302 913 q 389 920 355 913 q 400 917 393 917 q 414 916 407 916 l 427 916 l 469 920 q 481 918 475 920 q 494 916 487 916 q 520 920 508 916 q 547 924 532 924 q 562 923 554 924 q 576 921 570 923 q 588 913 583 918 q 592 900 592 909 q 585 866 592 876 q 565 853 577 857 q 539 849 553 850 q 512 841 525 848 q 486 823 496 833 q 468 801 475 812 q 454 776 460 789 q 439 749 448 763 l 439 691 q 437 686 439 690 q 435 680 435 682 q 432 674 435 680 q 429 667 429 669 q 426 664 427 667 q 425 659 425 661 q 417 600 422 629 q 405 540 412 570 q 391 500 401 519 q 374 461 381 481 q 366 424 369 441 q 360 388 363 406 q 355 352 358 370 q 348 315 352 334 l 342 300 q 347 298 342 299 q 366 297 353 297 q 391 300 380 297 q 411 309 401 303 q 428 324 420 315 q 445 342 435 332 l 450 351 q 461 355 452 352 q 473 359 471 357 q 477 364 476 361 q 478 370 477 367 q 479 377 478 374 q 481 385 479 381 q 509 421 493 404 q 539 458 526 438 l 555 473 q 560 486 559 479 q 562 497 561 492 q 566 507 563 503 q 578 513 569 511 q 601 535 589 523 q 626 560 613 547 q 650 586 638 573 q 671 610 662 599 l 697 650 q 717 666 705 659 q 737 675 728 672 q 742 692 739 687 q 749 702 745 698 q 759 708 753 705 q 769 718 764 711 q 779 733 774 724 q 787 753 784 743 q 793 774 791 764 q 795 794 795 785 q 788 829 795 815 q 773 853 782 844 q 752 870 764 863 q 732 882 741 877 q 716 893 723 888 q 710 906 710 899 q 717 920 710 915 q 734 927 724 925 q 755 930 744 930 q 774 930 766 930 q 798 927 786 930 q 823 920 810 924 q 849 913 836 916 q 873 910 861 910 q 910 915 891 910 q 949 920 930 920 l 977 916 l 1039 930 q 1055 930 1046 930 q 1072 927 1064 929 q 1086 920 1080 924 q 1092 906 1092 915 q 1085 879 1092 888 q 1069 863 1079 869 q 1045 856 1059 858 q 1018 853 1032 854 q 991 849 1004 851 q 968 841 979 847 q 950 823 959 836 q 937 799 941 810 l 927 766 q 921 751 926 759 q 911 736 916 744 q 901 722 905 729 q 897 706 897 714 l 897 646 l 874 610 q 875 604 874 609 q 876 593 876 598 q 874 583 876 585 q 870 575 874 582 q 864 567 865 568 q 843 482 852 527 q 825 397 834 437 q 809 373 818 388 q 800 342 800 358 q 809 319 800 328 q 831 311 817 311 q 857 323 844 311 q 882 352 869 335 q 905 386 894 368 q 924 413 916 403 q 958 447 939 428 q 996 479 978 467 q 998 483 996 480 q 1004 487 1001 486 q 1017 502 1007 491 q 1037 526 1026 513 q 1057 551 1048 539 q 1069 567 1066 562 q 1090 597 1077 584 q 1118 623 1103 610 q 1144 649 1132 635 q 1163 680 1157 663 l 1238 755 q 1248 779 1241 770 q 1261 798 1255 789 q 1273 817 1268 806 q 1278 842 1278 827 l 1274 853 q 1252 855 1265 853 q 1226 862 1239 857 q 1205 874 1214 867 q 1196 894 1196 882 q 1199 903 1196 899 q 1209 911 1203 907 q 1221 917 1215 915 q 1231 920 1227 920 l 1258 916 l 1305 920 l 1352 916 q 1371 919 1362 916 q 1387 923 1379 921 q 1403 928 1395 926 q 1422 930 1412 930 q 1439 930 1429 930 q 1461 927 1450 929 q 1484 921 1473 925 q 1503 910 1495 917 q 1520 880 1520 901 q 1515 868 1519 873 q 1506 858 1511 862 q 1495 850 1500 853 q 1487 846 1490 846 q 1483 840 1487 843 q 1476 833 1480 836 l 1433 819 q 1427 813 1431 819 q 1421 806 1422 807 q 1391 794 1408 798 q 1361 779 1374 789 q 1335 751 1347 766 q 1313 722 1324 736 q 1290 694 1302 708 q 1263 667 1278 680 l 1238 656 q 1226 643 1229 649 q 1222 630 1224 637 q 1214 617 1220 624 q 1190 602 1208 610 l 1157 557 q 1105 494 1135 523 q 1042 437 1075 465 l 1018 418 q 983 386 1000 404 q 951 350 967 368 q 920 313 935 332 q 887 277 904 294 l 830 227 q 807 197 821 216 q 777 157 793 178 q 742 112 760 135 q 706 72 724 90 q 671 42 688 54 q 641 31 654 31 q 620 38 630 31 q 609 58 609 45 q 614 89 609 75 q 625 116 618 102 q 638 144 632 130 q 648 175 645 158 q 656 206 653 190 q 662 239 659 222 q 667 273 664 256 q 674 305 669 290 q 698 373 686 338 q 720 443 710 408 q 735 515 729 479 q 741 587 741 551 q 738 597 741 595 q 729 602 735 600 q 667 547 697 576 q 609 487 637 517 q 584 451 594 470 q 562 418 574 433 q 554 412 559 416 q 547 407 549 407 q 521 382 533 397 q 498 351 509 367 q 476 318 487 334 q 454 289 466 302 q 419 243 436 266 q 385 199 402 221 l 348 163 q 338 150 347 161 q 320 122 330 138 q 299 91 309 106 q 282 67 288 76 q 270 45 275 55 q 258 29 264 36 q 243 18 252 22 q 216 14 233 14 l 203 14 q 184 17 193 14 q 175 31 175 19 l 175 37 z "},"X":{"ha":1034,"x_min":-2,"x_max":1112,"o":"m 707 -13 q 696 -14 701 -13 q 683 -18 692 -14 q 655 -22 669 -20 q 627 -24 641 -24 q 595 -22 611 -24 q 565 -18 580 -20 q 538 -1 549 -14 q 528 26 528 12 q 529 33 528 27 q 530 41 529 39 q 553 71 543 57 q 576 95 562 84 q 583 101 578 96 q 588 108 588 106 l 587 108 q 586 132 587 118 q 583 160 585 146 q 581 188 582 174 q 578 210 579 201 q 570 221 576 216 q 559 236 564 227 q 549 280 551 257 q 546 325 547 303 q 527 346 538 338 q 496 354 515 354 q 466 339 484 354 q 427 301 448 324 q 386 250 406 278 q 348 194 365 221 q 321 145 332 167 q 311 111 311 123 q 314 97 311 103 q 319 85 316 91 q 324 72 321 79 q 326 55 326 64 q 316 21 326 33 q 289 5 305 10 q 255 0 273 1 q 220 -2 236 -1 q 211 -5 218 -3 q 202 -7 203 -7 l 188 -7 q 176 -6 182 -7 q 160 -2 170 -5 l 65 -2 q 56 -5 63 -3 q 43 -7 48 -7 q 28 -5 36 -7 q 13 -1 20 -4 q 2 7 7 2 q -2 21 -2 13 q 5 48 -2 38 q 25 64 13 58 q 53 73 37 70 q 83 78 68 76 q 112 84 98 81 q 135 94 125 87 l 199 138 l 223 164 q 275 223 246 195 q 339 270 304 252 q 341 276 339 273 q 344 280 342 279 q 377 330 354 307 q 423 376 399 354 q 464 418 446 397 q 481 458 481 438 q 478 478 481 466 q 471 504 475 490 q 461 529 467 517 q 453 549 456 541 q 448 559 452 553 q 441 574 445 566 q 433 589 437 582 q 426 600 429 596 q 427 603 426 601 q 427 606 427 604 q 422 618 427 614 q 414 633 416 623 l 414 659 q 404 676 411 668 q 391 692 397 684 q 378 709 384 701 q 370 726 372 717 q 369 732 370 728 q 368 742 369 736 q 367 751 368 747 q 366 757 367 755 q 356 775 363 764 q 341 800 349 787 q 323 822 332 812 q 307 836 314 832 q 290 845 301 840 q 264 858 278 851 q 236 871 251 865 q 210 885 222 878 q 191 899 198 892 q 183 911 183 905 q 194 928 183 922 q 221 937 205 934 q 252 940 236 939 q 276 940 267 940 l 326 929 q 338 931 332 929 q 350 936 345 933 q 362 940 356 938 q 374 942 368 942 l 459 934 l 491 940 q 502 938 495 940 q 515 933 508 936 q 527 926 522 930 q 536 921 533 923 q 539 916 539 920 q 540 910 540 911 q 532 893 540 900 q 513 880 524 886 q 494 867 503 873 q 481 850 484 860 q 482 831 481 842 q 485 810 483 821 q 488 788 486 799 q 492 768 490 777 q 498 763 493 767 q 503 757 503 758 q 509 739 508 748 q 511 722 511 730 l 511 696 q 522 673 512 690 q 544 638 531 656 q 570 607 557 621 q 591 593 583 593 q 626 606 608 593 q 663 638 645 619 q 697 676 681 656 q 723 707 713 695 q 734 741 723 724 q 759 773 745 758 q 784 802 772 789 q 795 823 795 815 q 788 843 793 830 q 777 868 783 855 q 766 893 771 882 q 762 908 762 904 q 767 926 762 918 q 781 938 772 933 q 799 946 789 943 q 818 948 809 948 q 839 945 827 948 q 861 942 850 942 l 937 951 q 945 950 938 951 q 958 948 951 948 q 987 951 972 948 q 1017 957 1002 954 q 1047 963 1032 960 q 1078 966 1063 966 q 1103 959 1094 966 q 1112 937 1112 951 q 1111 922 1112 929 q 1103 911 1110 915 q 1058 893 1083 899 q 1010 876 1034 887 q 1001 872 1008 876 q 986 864 994 868 q 971 855 978 859 q 962 850 964 851 q 928 837 945 843 q 892 820 911 831 q 888 812 891 818 q 881 799 884 806 q 873 786 877 792 q 869 780 870 781 q 855 763 864 771 q 837 748 846 755 q 818 732 827 741 q 803 715 809 724 q 791 699 795 707 q 784 683 787 691 q 778 667 781 675 q 768 651 774 659 q 760 639 764 646 q 750 624 755 631 q 739 609 745 616 q 728 600 733 602 q 711 588 719 593 q 696 577 703 583 q 684 566 690 572 q 671 549 677 559 q 670 545 671 549 q 668 538 669 542 q 666 530 667 534 q 665 526 665 526 q 657 510 663 515 q 647 499 652 504 q 638 488 642 494 q 635 471 635 481 q 637 435 635 449 q 644 413 640 422 q 654 398 648 404 q 667 385 661 392 q 682 370 674 378 q 697 346 690 361 q 708 311 705 330 q 723 277 712 292 q 738 256 729 264 q 750 236 747 248 q 754 222 751 231 q 761 204 757 214 q 767 185 764 194 q 771 174 770 177 q 777 169 773 173 q 786 160 781 165 q 793 152 790 156 q 798 146 797 148 l 808 124 q 824 107 813 115 q 844 90 835 100 q 848 87 844 89 q 864 85 852 85 q 869 83 866 85 q 874 77 871 80 q 879 71 877 74 q 882 67 881 68 l 956 37 q 962 24 961 32 q 964 8 964 16 q 954 -8 964 -4 q 930 -15 944 -13 q 903 -17 917 -16 q 882 -22 890 -18 q 858 -24 870 -24 q 836 -24 846 -24 q 812 -24 823 -24 q 790 -22 802 -24 q 766 -15 779 -16 q 741 -13 754 -13 l 707 -13 z "},"Y":{"ha":901,"x_min":151,"x_max":1036,"o":"m 342 5 q 290 -1 317 5 q 237 -7 264 -7 q 212 -6 227 -7 q 185 -1 198 -5 q 163 12 172 3 q 154 34 154 20 q 158 44 154 39 q 167 54 162 50 q 178 62 172 58 q 186 67 183 65 q 202 76 195 72 q 217 82 209 79 q 236 86 225 84 q 265 90 248 88 q 294 103 280 92 q 322 133 309 115 q 347 172 335 151 q 367 215 358 193 q 381 255 376 236 q 389 286 387 274 q 392 315 391 301 q 393 342 392 329 q 397 368 394 355 q 408 394 400 381 q 411 400 408 395 q 418 410 414 404 q 426 420 422 415 q 429 427 429 425 l 429 453 q 435 461 431 454 q 444 471 440 468 q 442 481 442 477 q 442 492 442 486 q 445 526 442 509 q 447 561 447 543 q 446 593 447 579 q 444 627 446 606 q 429 649 433 635 q 424 677 425 663 q 419 707 422 692 q 410 732 417 721 q 409 733 409 732 q 409 734 409 734 q 408 734 408 734 q 408 736 408 735 q 389 751 397 743 q 373 766 381 759 q 356 779 366 774 q 334 784 347 784 q 314 783 325 784 q 291 779 302 781 q 270 774 279 777 q 254 768 260 771 q 227 760 237 765 q 213 746 218 754 q 208 726 209 737 q 207 703 207 715 l 207 684 q 229 678 216 678 q 257 681 243 678 q 286 684 271 684 q 301 679 294 683 q 313 668 308 674 q 321 654 318 661 q 324 641 324 647 q 317 614 324 627 q 299 594 310 602 q 274 580 288 585 q 248 575 260 575 l 225 575 q 217 582 221 579 q 208 585 212 584 q 198 588 203 587 q 191 593 194 590 q 162 633 173 608 q 151 680 151 658 q 176 792 151 744 q 264 871 202 841 q 285 879 274 875 q 307 882 296 882 q 348 881 326 882 q 391 874 370 879 q 433 863 412 870 q 469 844 453 855 l 475 831 q 490 806 481 821 q 509 775 500 791 q 526 745 518 760 q 535 722 533 730 q 536 705 536 715 q 538 684 536 694 q 544 667 540 674 q 556 659 547 659 q 576 665 568 659 q 590 678 584 670 q 603 694 597 686 q 615 709 608 703 q 639 733 628 722 q 660 755 650 745 q 679 777 669 766 q 699 802 688 788 q 715 814 706 810 q 736 823 725 818 q 739 826 737 825 q 743 829 741 828 q 769 849 755 838 q 800 869 784 860 q 832 884 816 878 q 863 890 848 890 q 893 887 877 890 q 926 878 909 883 q 958 866 943 872 q 985 854 974 859 q 1001 841 992 849 q 1018 823 1010 833 q 1031 804 1025 813 q 1036 786 1036 794 l 1036 784 q 1033 772 1035 781 q 1028 754 1031 764 q 1024 735 1026 744 q 1021 722 1021 726 q 1005 705 1015 714 q 985 692 996 696 l 966 690 q 934 697 947 690 q 912 715 922 705 q 896 739 903 726 q 881 763 888 752 q 863 781 873 774 q 837 789 852 789 q 793 777 815 789 q 750 746 770 764 q 713 707 730 728 q 686 669 696 686 q 685 665 686 668 q 681 657 683 661 q 677 650 679 654 q 676 646 676 647 q 674 642 675 644 q 673 638 673 640 q 667 632 671 637 q 657 623 663 628 q 648 613 652 618 q 643 608 644 609 q 640 598 642 606 q 638 589 638 590 q 620 561 631 574 q 601 537 609 549 q 585 491 590 515 q 576 444 581 467 q 559 404 570 423 q 545 363 548 384 q 543 358 544 363 q 541 348 542 353 q 540 338 541 342 q 540 333 540 334 q 532 320 536 325 q 525 312 528 315 q 519 304 522 308 q 517 292 517 300 q 520 279 517 285 q 522 267 522 274 q 517 253 522 258 q 508 241 511 247 q 496 211 503 224 q 485 184 490 197 q 476 155 479 170 q 473 122 473 140 q 483 87 473 98 q 508 72 493 77 q 542 67 524 68 q 575 62 559 66 q 600 49 590 58 q 610 18 610 39 l 610 8 q 589 -13 601 -7 q 559 -18 576 -18 q 532 -15 546 -18 q 504 -9 518 -12 q 476 -3 490 -5 q 450 0 463 0 q 419 -2 434 -1 q 389 -2 404 -2 q 384 -1 387 -2 q 377 1 381 0 q 370 3 374 2 q 366 5 367 4 l 342 5 z "},"Z":{"ha":925,"x_min":-96,"x_max":1426,"o":"m 891 -363 q 871 -354 885 -361 q 838 -335 857 -347 q 799 -310 819 -323 q 760 -283 779 -296 q 727 -260 741 -271 q 706 -243 712 -249 q 695 -234 703 -241 q 680 -219 688 -227 q 665 -205 672 -212 q 655 -195 658 -198 q 642 -188 648 -192 q 631 -178 636 -184 q 619 -167 625 -173 q 604 -155 612 -161 q 566 -131 587 -143 q 524 -116 545 -119 q 505 -99 514 -108 q 485 -80 495 -90 q 464 -63 475 -71 q 441 -50 454 -55 q 434 -44 439 -47 q 424 -38 429 -41 q 414 -32 418 -35 q 409 -29 410 -30 q 400 -28 407 -29 q 386 -27 394 -28 q 372 -25 378 -26 q 363 -24 365 -24 q 360 -21 363 -23 q 355 -16 358 -18 q 349 -11 352 -14 q 345 -8 346 -9 q 283 18 313 7 q 219 40 254 29 q 214 41 217 41 q 211 43 212 42 q 208 43 209 43 q 202 47 207 45 q 197 50 197 50 l 166 43 q 120 38 142 39 q 77 29 98 37 q 73 28 76 29 q 65 25 70 27 q 57 22 61 24 q 50 19 52 20 q 32 11 40 13 q 17 5 24 8 q 4 -1 10 3 q -7 -14 -2 -5 q -37 -22 -25 -20 q -64 -24 -48 -24 q -72 -23 -67 -24 q -83 -21 -77 -22 q -92 -16 -88 -19 q -96 -7 -96 -12 q -93 4 -96 -3 q -87 18 -91 11 q -80 31 -84 24 q -72 40 -75 37 q -62 48 -68 45 q -51 53 -57 51 q -38 56 -44 54 q -25 63 -31 58 q 74 139 24 103 q 178 209 125 175 q 240 265 206 237 q 307 318 274 293 q 316 329 313 323 q 322 340 319 334 q 329 351 325 345 q 343 363 334 357 q 351 365 345 363 q 359 366 358 366 q 379 376 371 370 q 393 390 387 382 q 406 405 399 397 q 420 420 412 413 q 452 440 436 431 q 483 458 467 450 q 513 484 498 469 q 542 513 528 498 q 570 544 556 528 q 599 572 585 559 q 634 594 613 585 q 674 613 655 603 q 707 639 694 624 q 721 680 721 654 q 719 696 721 690 q 710 709 717 703 l 694 709 q 651 714 671 709 q 612 734 631 720 q 514 758 564 749 q 416 767 465 767 q 393 765 406 767 q 370 759 380 764 q 352 746 359 754 q 345 723 345 737 q 352 699 345 711 q 370 676 359 687 q 391 656 380 665 q 409 641 401 648 q 412 635 412 637 q 412 630 412 633 l 416 609 q 412 586 416 597 q 409 574 409 575 l 393 562 q 377 556 386 559 q 359 554 369 554 q 339 556 350 554 q 319 562 329 559 q 296 578 309 562 q 274 614 284 593 q 256 653 263 634 q 250 680 250 673 q 255 697 250 691 q 262 712 260 703 q 263 717 262 713 q 266 726 264 721 q 269 735 267 730 q 271 741 270 739 q 272 745 271 742 q 273 752 272 749 q 274 760 273 756 q 276 764 275 763 q 297 791 282 776 q 329 821 311 807 q 363 845 346 836 q 393 857 381 855 l 436 857 q 453 863 445 859 q 469 870 461 867 q 487 877 477 874 q 510 880 497 880 q 523 877 513 879 q 546 873 534 875 q 568 869 557 871 q 581 867 578 867 q 592 866 583 867 q 611 864 601 865 q 631 863 622 863 q 644 861 640 862 q 648 860 644 861 q 656 856 652 858 q 664 851 661 853 q 668 850 667 850 q 768 824 714 836 q 870 813 822 813 q 891 817 878 814 q 920 823 905 820 q 945 828 934 825 q 960 831 957 830 q 992 849 981 836 q 1013 874 1003 861 q 1039 898 1023 888 q 1084 908 1054 908 q 1099 901 1096 908 q 1102 884 1102 893 q 1101 868 1102 876 q 1097 853 1101 861 q 1044 798 1074 828 q 984 746 1015 768 q 979 744 983 746 q 970 741 975 743 q 960 737 965 739 q 952 734 955 735 q 916 713 935 727 q 879 683 897 699 q 845 649 861 666 q 814 618 828 632 q 802 612 810 615 q 784 605 793 608 q 764 597 774 601 q 749 588 755 593 q 716 556 732 576 q 688 519 701 536 q 679 509 687 517 q 661 491 671 500 q 642 473 650 481 q 632 465 633 465 q 618 457 624 460 q 609 453 613 455 q 601 447 605 450 q 589 437 596 444 q 569 417 578 427 q 550 401 559 408 q 529 390 541 394 q 501 386 517 386 q 485 370 488 378 q 475 353 482 361 q 462 347 469 349 q 449 342 455 345 q 437 337 443 340 q 427 328 431 334 q 424 324 426 327 q 419 317 422 321 q 415 309 417 313 q 412 305 413 306 q 395 288 405 296 q 373 273 385 280 q 351 260 362 267 q 332 246 340 253 q 329 242 332 245 q 322 235 326 239 q 315 228 319 231 q 310 224 312 224 q 301 218 308 222 q 286 209 294 214 q 271 200 278 204 q 262 195 264 195 q 271 168 262 178 q 289 156 279 157 q 335 146 309 152 q 387 131 361 140 q 436 111 413 123 q 475 85 460 100 q 539 61 508 73 q 602 40 570 50 q 624 26 614 36 q 641 6 633 17 q 658 -14 650 -4 q 677 -27 667 -23 l 710 -29 l 721 -40 q 787 -100 755 -71 q 853 -156 820 -130 q 863 -166 859 -161 q 870 -175 867 -171 q 878 -182 873 -179 q 891 -186 883 -185 q 919 -207 906 -197 q 943 -227 932 -216 q 964 -249 954 -237 q 984 -276 975 -261 q 997 -282 988 -282 q 1014 -286 1006 -281 q 1021 -296 1016 -288 q 1027 -307 1026 -304 q 1032 -309 1028 -307 q 1042 -315 1036 -311 q 1061 -323 1049 -318 q 1090 -345 1078 -334 q 1115 -365 1103 -355 q 1141 -380 1127 -374 q 1176 -386 1156 -386 q 1239 -379 1216 -386 q 1273 -356 1261 -372 q 1291 -313 1285 -340 q 1301 -246 1296 -286 q 1314 -229 1309 -237 q 1326 -215 1320 -221 q 1340 -206 1332 -210 q 1362 -203 1348 -203 q 1374 -205 1364 -203 q 1394 -212 1383 -208 q 1412 -223 1404 -217 q 1420 -236 1420 -229 q 1425 -256 1425 -245 q 1420 -279 1425 -269 q 1424 -284 1421 -280 q 1426 -298 1426 -288 q 1426 -302 1426 -300 q 1425 -307 1426 -304 q 1393 -368 1415 -338 q 1340 -416 1371 -398 l 1301 -429 q 1277 -444 1288 -437 q 1254 -456 1265 -451 q 1230 -466 1242 -462 q 1202 -469 1217 -469 l 1131 -465 l 1084 -469 q 1031 -451 1057 -460 q 981 -429 1005 -441 q 934 -400 956 -416 q 891 -363 911 -385 z "},"[":{"ha":578,"x_min":140,"x_max":657,"o":"m 599 974 q 610 966 608 972 q 612 953 612 960 l 612 943 q 611 917 612 928 q 604 889 610 905 q 600 883 603 886 q 592 880 596 881 q 584 877 588 878 q 579 876 581 876 q 534 871 555 872 q 491 869 513 869 l 456 869 q 437 863 447 863 l 430 863 q 401 867 414 863 q 374 871 387 871 q 364 871 370 871 q 356 869 357 871 q 341 868 350 869 q 322 866 332 867 q 306 864 313 865 q 297 863 298 863 q 292 860 296 863 q 284 852 288 857 q 276 844 280 848 q 271 838 273 840 q 266 811 267 829 q 264 779 264 794 l 264 764 q 266 694 264 732 q 271 629 268 656 q 273 622 271 627 q 278 611 275 617 q 282 601 280 606 q 284 596 284 597 l 284 585 q 282 573 284 578 q 271 563 281 568 l 271 517 q 270 512 271 516 q 268 504 269 509 q 266 496 267 500 q 264 492 264 492 q 265 485 264 490 q 265 473 265 479 q 266 459 265 467 q 266 445 266 452 q 266 432 266 437 q 264 426 266 427 q 263 421 264 425 q 259 413 261 417 q 254 405 256 408 q 252 400 252 401 l 252 397 l 252 393 q 253 389 252 393 q 255 380 254 385 q 257 372 256 376 q 258 367 258 368 l 258 339 l 258 328 q 259 323 258 327 q 261 314 260 319 q 263 306 262 310 q 264 302 264 302 l 264 296 l 264 289 q 263 284 264 288 q 261 276 262 280 q 259 268 260 271 q 258 263 258 264 l 258 259 l 258 257 q 259 245 258 254 q 261 227 260 237 q 263 209 262 217 q 264 197 264 200 q 265 187 264 196 q 266 166 265 178 q 266 144 266 155 q 267 125 267 132 q 266 111 267 121 q 266 90 266 101 q 265 68 265 79 q 264 54 264 58 q 261 41 263 51 q 258 28 258 31 q 258 16 258 25 q 258 -5 258 6 q 258 -25 258 -16 q 258 -37 258 -34 q 250 -47 255 -41 q 245 -56 245 -54 q 249 -67 245 -59 q 252 -76 252 -75 q 255 -110 255 -93 q 264 -143 255 -127 q 269 -148 266 -144 q 275 -155 272 -151 q 281 -163 279 -159 q 284 -168 284 -167 q 287 -175 285 -170 q 292 -188 290 -181 q 295 -200 294 -195 q 297 -206 297 -205 q 308 -216 300 -211 q 317 -222 315 -220 q 334 -223 322 -222 q 359 -225 346 -224 q 385 -227 373 -226 q 401 -228 397 -228 l 412 -228 l 422 -228 q 432 -227 424 -228 q 448 -225 439 -226 q 465 -223 457 -224 q 473 -222 472 -222 q 478 -220 475 -220 q 486 -220 481 -220 q 507 -221 496 -220 q 519 -222 517 -222 q 529 -218 522 -220 q 540 -215 537 -215 l 555 -215 l 573 -215 q 582 -218 574 -215 q 591 -222 589 -220 q 598 -221 592 -222 q 610 -220 605 -220 q 615 -220 613 -220 q 618 -222 618 -220 q 638 -230 631 -223 q 650 -247 646 -237 q 655 -269 654 -257 q 657 -290 657 -280 l 657 -294 q 636 -312 648 -305 q 612 -321 625 -318 q 585 -325 599 -324 q 557 -326 571 -326 q 498 -324 527 -326 q 439 -318 469 -321 q 381 -313 410 -315 q 323 -311 352 -311 l 277 -311 q 273 -312 277 -311 q 266 -315 270 -313 q 257 -318 261 -317 q 252 -319 253 -319 q 222 -316 238 -319 q 192 -304 205 -312 q 169 -285 178 -297 q 160 -257 160 -273 q 163 -186 160 -222 q 167 -115 167 -151 q 161 -53 167 -84 q 154 8 156 -22 l 154 27 l 154 74 q 153 89 154 77 q 151 116 152 102 q 149 143 150 130 q 147 159 148 155 l 147 161 l 147 165 q 149 185 148 172 q 150 217 149 199 q 151 253 151 234 q 152 290 152 272 q 153 321 153 307 q 154 341 154 334 q 158 351 156 343 q 160 361 160 358 l 160 363 l 160 367 q 154 377 159 369 q 147 387 150 385 l 147 596 q 151 605 149 597 q 154 615 154 612 q 153 625 154 617 q 151 641 152 633 q 148 657 149 650 q 147 667 147 665 l 147 785 q 146 789 147 785 q 144 798 145 793 q 142 807 143 803 q 141 810 141 810 q 141 819 141 811 q 140 836 140 826 q 140 854 140 845 q 140 869 140 864 q 140 882 140 873 q 140 900 140 890 q 141 917 140 909 q 141 928 141 924 q 161 945 151 940 q 183 952 172 951 q 206 954 194 954 q 231 955 218 954 q 240 956 233 955 q 255 958 248 957 q 270 960 263 959 q 277 961 276 961 l 297 961 l 351 961 q 360 964 353 961 q 369 968 368 968 q 386 969 373 968 q 415 971 399 970 q 446 973 431 972 q 469 974 460 974 l 480 974 l 514 974 q 523 978 515 975 q 532 981 531 981 l 540 981 l 545 981 q 556 980 548 981 q 572 978 564 979 q 588 976 580 977 q 599 974 595 975 z "},"\\":{"ha":512,"x_min":-66,"x_max":514,"o":"m 419 -302 q 414 -286 417 -290 q 409 -278 412 -281 q 403 -271 406 -275 q 395 -256 399 -267 l 395 -236 q 390 -221 394 -227 q 382 -210 387 -215 q 372 -201 377 -205 q 363 -189 367 -197 q 357 -179 359 -186 q 354 -165 355 -172 q 353 -150 353 -157 q 353 -136 353 -142 l 353 -119 q 345 -109 349 -116 q 340 -94 340 -101 l 328 -69 q 320 -59 325 -66 q 316 -47 316 -52 q 318 -39 316 -43 q 321 -34 321 -35 q 318 -13 321 -21 q 312 2 315 -4 q 303 14 308 9 q 296 24 299 18 q 292 44 294 31 q 289 69 291 56 q 285 94 288 82 q 278 111 283 105 q 274 114 278 111 q 264 122 269 117 q 254 131 258 127 q 249 137 250 135 l 244 164 q 242 168 244 165 q 236 173 239 171 q 231 178 233 176 q 228 180 229 180 q 220 202 220 188 l 222 231 q 220 250 222 242 q 215 267 219 258 q 202 282 210 273 q 186 303 194 292 q 171 323 178 314 q 162 339 164 333 q 159 363 159 351 q 148 389 159 376 q 139 405 142 399 q 136 415 137 410 q 132 427 134 420 q 123 444 130 433 l 123 463 l 96 541 q 90 549 93 545 q 83 562 86 554 q 83 582 83 576 q 85 593 83 588 q 51 667 59 625 l 51 690 q 50 701 51 697 q 43 709 49 705 q 29 727 37 716 q 12 750 20 738 q -5 774 3 762 q -18 794 -14 785 q -18 821 -18 814 q -21 833 -18 827 q -34 848 -28 842 q -44 861 -39 854 q -51 874 -48 867 q -54 893 -54 882 l -54 929 q -57 933 -55 930 q -61 940 -59 937 q -64 947 -63 944 q -66 951 -66 951 l -66 995 q -43 1005 -56 1000 q -18 1010 -29 1010 q 16 1001 3 1010 q 43 976 30 991 q 50 961 45 976 q 59 928 54 947 q 68 892 64 909 q 72 871 72 876 q 91 833 79 851 q 109 794 102 814 q 134 717 121 756 q 162 641 146 677 q 173 621 167 629 q 185 605 180 612 q 195 589 191 597 q 199 567 199 580 l 201 553 q 204 546 201 551 q 208 538 207 540 q 221 516 216 530 q 230 486 226 502 q 237 454 233 470 q 244 428 240 439 q 251 407 246 417 q 262 388 256 397 q 272 369 267 378 q 279 347 277 359 q 280 339 279 345 q 284 325 281 334 q 302 269 292 298 q 326 216 312 239 q 334 205 328 218 q 349 171 340 192 q 368 124 358 150 q 388 73 378 98 q 407 28 398 48 q 421 -2 415 7 q 426 -15 424 -9 q 429 -32 429 -21 q 429 -46 429 -41 q 431 -55 429 -51 q 435 -59 431 -56 q 443 -65 438 -62 q 450 -73 447 -69 q 454 -77 454 -76 q 455 -84 454 -79 q 456 -95 456 -89 q 457 -107 457 -101 q 458 -115 458 -113 q 467 -132 460 -125 q 477 -144 473 -138 l 477 -157 q 485 -183 479 -171 q 497 -209 491 -196 q 509 -235 504 -222 q 514 -262 514 -248 q 509 -272 514 -264 q 496 -290 503 -281 q 482 -307 489 -300 q 471 -315 475 -315 l 419 -302 z "},"]":{"ha":611,"x_min":11,"x_max":528,"o":"m 70 -319 q 59 -311 60 -317 q 57 -298 57 -305 l 57 -289 q 58 -261 57 -273 q 65 -235 59 -250 q 68 -229 65 -232 q 76 -225 72 -227 q 84 -223 81 -224 q 90 -222 88 -222 q 135 -216 113 -217 q 178 -215 156 -215 l 213 -215 q 231 -209 222 -209 l 239 -209 q 267 -212 254 -209 q 295 -216 281 -216 q 304 -216 298 -216 q 313 -215 311 -216 q 328 -214 318 -215 q 346 -212 337 -213 q 362 -210 355 -211 q 371 -209 370 -209 q 376 -205 372 -208 q 384 -198 380 -202 q 392 -190 388 -194 q 397 -183 395 -185 q 403 -157 401 -174 q 404 -124 404 -140 l 404 -109 q 402 -40 404 -77 q 397 26 400 -2 q 395 33 397 28 q 391 43 393 37 q 387 53 389 49 q 384 58 385 58 l 384 69 q 386 82 384 77 q 397 92 387 87 l 397 137 q 398 142 397 138 q 400 151 399 146 q 403 158 402 155 q 404 163 404 162 q 404 170 404 165 q 404 182 404 175 q 403 196 404 189 q 403 210 403 203 q 403 222 403 218 q 404 229 403 227 q 406 234 404 230 q 410 242 408 238 q 414 250 412 246 q 417 254 416 254 l 417 258 l 417 262 q 416 266 417 262 q 413 274 415 270 q 411 282 412 279 q 410 288 410 286 l 410 315 l 410 326 q 409 332 410 328 q 407 340 408 336 q 405 348 406 345 q 404 353 404 352 l 404 359 l 404 366 q 405 371 404 367 q 407 379 406 374 q 409 387 408 383 q 410 392 410 391 l 410 395 l 410 397 q 409 409 410 400 q 407 428 408 418 q 405 446 406 437 q 404 458 404 455 q 404 468 404 459 q 403 488 404 477 q 402 511 402 499 q 401 529 401 522 q 402 543 401 533 q 403 565 402 553 q 404 587 404 576 q 404 601 404 597 q 407 614 405 604 q 410 627 410 624 q 410 639 410 630 q 411 659 411 648 q 410 680 411 670 q 410 692 410 689 q 418 702 413 695 q 422 711 422 708 q 420 722 422 714 q 417 731 417 730 q 414 765 414 748 q 404 798 414 782 q 399 802 403 798 q 393 810 396 806 q 387 818 390 814 q 384 823 385 821 q 381 830 383 825 q 377 843 379 836 q 373 854 375 849 q 371 861 372 860 q 361 870 368 865 q 351 876 354 875 q 334 877 347 876 q 309 879 322 878 q 283 881 296 880 q 267 882 271 882 l 256 882 l 245 882 q 237 881 244 882 q 220 879 229 880 q 204 877 212 878 q 195 876 197 876 q 190 876 194 876 q 182 876 186 876 q 162 876 173 876 q 149 876 151 876 q 139 872 146 875 q 128 869 131 869 l 113 869 l 96 869 q 86 872 94 869 q 78 876 79 875 q 70 876 76 876 q 58 876 63 876 q 50 876 51 876 q 30 885 37 878 q 18 902 22 892 q 13 924 14 912 q 11 945 11 935 l 11 948 q 32 966 20 960 q 57 976 43 972 q 84 980 70 979 q 112 981 98 981 q 171 978 141 981 q 229 973 200 976 q 287 968 258 970 q 345 966 316 966 l 391 966 q 395 967 391 966 q 403 970 399 968 q 412 972 408 971 q 417 974 416 974 q 447 970 431 974 q 476 959 463 966 q 499 940 490 951 q 509 911 509 928 q 505 841 509 876 q 501 770 501 806 q 507 708 501 739 q 514 646 513 677 l 514 628 l 514 581 q 515 565 515 577 q 517 539 516 553 q 519 512 518 525 q 522 496 520 500 l 522 494 l 522 489 q 520 469 521 482 q 519 438 519 455 q 517 401 518 420 q 516 365 517 382 q 515 334 515 348 q 514 313 514 320 q 511 304 513 311 q 509 293 509 296 l 509 291 l 509 288 q 514 278 509 286 q 522 267 518 271 l 522 58 q 517 50 519 57 q 514 40 514 43 q 515 30 514 38 q 518 14 516 22 q 520 -3 519 5 q 522 -13 522 -11 l 522 -130 q 522 -135 522 -131 q 524 -143 523 -139 q 526 -152 525 -148 q 527 -156 527 -155 q 528 -164 528 -157 q 528 -181 528 -172 q 528 -200 528 -191 q 528 -215 528 -210 q 528 -228 528 -219 q 528 -245 528 -236 q 528 -262 528 -254 q 527 -273 528 -271 q 507 -291 517 -286 q 486 -298 497 -296 q 462 -300 474 -300 q 437 -300 450 -300 q 428 -301 435 -300 q 413 -303 420 -302 q 399 -306 406 -304 q 391 -307 393 -307 l 371 -307 l 317 -307 q 314 -308 317 -307 q 308 -310 311 -309 q 302 -312 305 -311 q 300 -313 300 -313 q 282 -315 296 -314 q 254 -317 269 -316 q 223 -319 238 -318 q 200 -319 208 -319 l 188 -319 l 154 -319 q 145 -323 153 -320 q 136 -326 138 -326 l 128 -326 l 123 -326 q 112 -325 120 -326 q 96 -322 104 -323 q 81 -320 88 -321 q 70 -319 73 -319 z "},"^":{"ha":673,"x_min":76,"x_max":368,"o":"m 230 697 l 225 697 q 208 681 216 692 q 194 659 201 671 q 182 634 188 646 q 172 614 177 623 q 168 609 172 612 q 161 601 165 605 q 155 592 158 596 q 151 587 152 588 q 142 563 145 576 q 135 538 139 550 q 123 519 131 527 q 100 511 115 511 q 92 513 96 511 q 84 517 88 514 q 78 523 81 519 q 77 532 76 527 q 85 556 79 545 q 99 577 92 567 q 113 599 106 588 q 124 622 120 610 q 135 658 130 639 q 144 697 139 677 q 156 736 149 718 q 172 771 162 755 q 182 786 175 776 q 197 808 189 797 q 211 828 204 819 q 219 840 217 837 q 229 850 221 843 q 241 859 237 857 q 243 859 241 859 q 244 860 244 859 q 246 860 245 860 q 250 859 248 860 q 254 859 252 859 q 284 850 273 854 q 307 832 296 846 q 311 825 309 830 q 315 819 313 820 q 336 733 327 776 q 355 648 346 691 q 363 621 357 636 q 368 593 368 606 l 368 587 q 367 582 368 586 q 365 573 366 578 q 363 565 364 569 q 363 561 363 562 l 363 556 q 366 536 363 547 q 368 516 368 526 q 364 491 368 503 q 349 471 360 479 q 341 477 347 473 q 331 485 336 481 q 320 493 325 489 q 315 498 316 496 q 311 504 313 498 q 307 513 309 510 q 304 519 307 514 q 300 529 302 524 q 297 540 298 535 q 294 545 295 545 q 291 551 294 547 q 287 560 289 555 q 282 569 284 565 q 280 574 280 573 q 277 586 279 576 q 273 608 275 596 q 270 629 271 619 q 267 641 268 639 q 254 670 264 653 q 233 697 245 688 l 230 697 z "},"_":{"ha":522,"x_min":-118,"x_max":388,"o":"m -118 -96 q -93 -57 -107 -75 q -62 -27 -79 -39 q -51 -26 -56 -26 q -39 -26 -45 -26 q -32 -26 -36 -26 q -23 -27 -27 -26 l -17 -27 q 13 -20 -2 -27 q 43 -13 27 -13 l 84 -22 q 103 -20 95 -22 q 119 -18 111 -18 q 136 -20 132 -18 q 142 -25 140 -22 q 148 -30 144 -27 q 163 -32 151 -32 l 255 -22 l 286 -28 q 297 -25 291 -28 q 308 -21 302 -22 q 320 -16 314 -18 q 334 -14 326 -14 q 367 -22 353 -14 q 388 -45 380 -29 q 385 -53 387 -50 q 381 -59 383 -56 q 377 -68 379 -62 q 375 -85 376 -75 l 367 -100 q 330 -116 350 -112 q 294 -119 311 -119 l 243 -119 q 222 -117 232 -119 q 203 -115 213 -115 q 156 -116 176 -115 q 117 -117 136 -117 q 78 -119 98 -118 q 30 -119 58 -119 q -20 -124 6 -121 q -68 -128 -47 -128 q -102 -119 -87 -128 q -118 -96 -118 -110 z "},"`":{"ha":715,"x_min":338,"x_max":602,"o":"m 338 951 q 356 993 338 980 q 399 1006 373 1006 q 422 997 410 1006 q 448 975 435 989 q 473 945 461 962 q 495 912 486 928 q 509 881 504 895 q 513 857 514 866 q 529 839 519 852 q 548 809 538 826 q 567 772 557 791 q 584 734 576 752 q 597 702 592 716 q 602 680 602 687 q 597 665 602 670 q 581 661 593 661 q 562 667 569 661 q 548 683 554 674 q 536 701 542 692 q 523 715 530 710 q 503 730 509 726 q 496 738 498 734 q 492 745 494 741 q 481 760 490 749 q 462 784 473 773 q 439 806 451 795 q 416 828 428 817 q 395 852 405 839 q 391 859 394 853 q 386 870 389 864 q 380 882 382 876 q 377 888 378 887 q 367 902 373 895 q 354 918 360 909 q 343 934 348 926 q 338 951 338 943 z "},"a":{"ha":617,"x_min":-9,"x_max":576,"o":"m 294 5 l 294 21 q 299 57 294 39 q 311 92 304 75 q 323 127 318 109 q 329 165 329 146 q 315 165 319 165 q 311 162 312 164 q 309 155 310 159 q 303 144 309 151 q 285 125 298 135 q 257 105 272 115 q 228 86 242 95 q 207 71 214 77 l 196 61 q 168 34 184 46 q 132 14 151 22 q 93 2 113 6 q 54 -2 73 -2 q 20 18 28 9 q 8 35 11 26 q 3 54 5 43 q -9 81 1 65 q -8 90 -9 83 q -8 103 -8 96 q -7 116 -7 110 q -5 124 -6 122 q -4 132 -5 125 q -1 145 -3 138 q 3 159 1 152 q 9 170 6 166 q 11 192 12 180 q 16 214 10 204 q 21 219 17 214 q 30 228 25 223 q 38 238 35 233 q 43 243 42 242 q 44 249 44 244 q 45 262 44 254 q 47 273 46 268 q 49 280 47 279 l 52 289 q 66 310 56 298 q 78 333 75 321 q 81 349 81 342 q 87 363 81 356 q 101 376 92 367 q 121 396 111 386 q 140 416 131 407 q 152 429 149 426 q 156 434 153 430 q 162 443 159 439 q 168 452 165 448 q 170 456 170 456 q 189 475 178 465 q 213 494 201 485 q 236 511 225 503 q 255 526 248 519 q 285 536 270 530 q 315 549 300 543 q 345 559 330 555 q 377 563 361 563 l 451 549 q 471 554 462 549 q 490 565 481 559 q 510 575 500 570 q 533 580 520 580 q 542 575 538 580 q 550 564 547 570 q 555 551 553 557 q 557 542 557 545 q 554 526 557 532 q 548 516 552 521 q 541 505 545 511 q 533 487 536 498 l 530 444 q 528 440 530 442 q 523 434 526 437 q 518 429 520 431 q 515 426 516 427 q 505 407 509 416 q 500 389 502 398 q 496 370 498 379 q 493 350 495 360 q 485 327 492 344 q 471 290 479 309 q 455 255 463 271 q 445 237 448 239 q 435 225 439 230 q 426 217 430 221 q 420 208 422 213 q 418 196 418 203 q 418 184 418 193 q 418 168 418 176 q 420 152 419 159 q 424 144 422 145 q 433 133 427 138 q 448 128 440 128 l 451 132 q 473 142 462 132 q 499 165 485 151 q 531 194 513 178 q 573 222 549 210 q 575 220 574 222 q 576 217 576 218 l 576 204 q 569 177 576 189 q 552 154 562 165 q 532 132 542 143 q 515 106 522 120 q 502 92 512 102 q 480 72 492 82 q 458 51 469 61 q 445 37 448 41 q 428 23 437 31 q 407 8 418 15 q 384 -2 395 2 q 361 -7 372 -7 q 330 -3 347 -7 q 300 1 313 0 l 294 5 m 100 128 q 105 112 100 120 q 116 98 109 104 q 130 89 122 92 q 146 85 138 85 q 180 98 159 85 q 225 129 202 111 q 269 165 248 146 q 300 196 290 184 q 318 228 311 208 q 334 263 326 247 q 353 292 342 278 q 371 321 363 307 q 385 353 379 336 q 390 389 390 370 q 386 412 390 397 q 373 444 381 428 q 353 471 365 459 q 327 482 342 482 q 317 476 323 481 q 304 466 311 472 q 291 455 297 460 q 282 448 285 450 q 269 434 275 441 q 259 420 264 427 q 251 405 255 412 q 240 389 246 397 q 226 371 235 380 q 209 352 218 362 q 194 332 201 342 q 184 310 186 321 l 184 298 q 174 279 180 288 q 161 261 168 270 q 145 245 153 252 q 131 233 138 237 q 129 219 130 229 q 125 200 127 210 q 121 181 123 190 q 118 170 119 173 q 114 158 117 163 q 108 149 111 153 q 103 140 105 144 q 100 128 100 135 z "},"b":{"ha":540,"x_min":35,"x_max":529,"o":"m 35 111 q 38 138 35 119 q 44 179 40 157 q 54 227 48 202 q 65 274 59 252 q 79 312 72 296 q 93 332 85 328 q 107 409 96 371 q 132 482 118 448 q 134 487 132 483 q 139 497 136 492 q 145 509 142 503 q 150 519 149 515 q 156 533 151 522 q 165 557 160 544 l 177 591 q 175 604 177 599 q 172 615 172 610 q 179 624 175 618 q 189 638 183 631 q 197 651 193 644 q 203 659 200 658 q 204 667 203 661 q 205 680 205 673 q 207 692 206 686 q 208 698 208 697 q 233 783 216 741 q 260 868 249 825 q 269 890 264 880 q 275 914 275 901 q 270 934 275 924 q 260 953 266 944 q 247 971 254 962 q 236 987 240 979 q 234 991 234 988 q 233 996 233 995 q 243 1015 233 1009 q 265 1022 252 1020 q 292 1025 278 1024 q 313 1030 305 1026 l 397 1030 q 403 1025 397 1030 q 410 1017 409 1020 l 410 1009 q 406 968 407 989 q 397 934 404 947 q 378 892 389 913 q 363 850 368 871 q 361 840 363 848 q 358 825 359 833 q 355 810 356 817 q 352 802 353 802 q 349 797 351 800 q 344 790 347 794 q 338 784 341 787 q 334 780 336 781 q 335 773 334 779 q 336 762 336 767 q 336 759 336 761 q 334 757 336 757 q 328 727 333 743 q 316 695 323 711 q 301 664 309 679 q 286 638 293 650 l 270 615 l 270 575 q 269 572 270 574 q 265 567 267 570 q 262 562 263 564 q 260 558 260 559 l 260 548 q 264 535 260 540 q 275 528 269 530 q 288 526 281 526 q 302 526 296 526 q 321 534 307 526 q 351 553 334 543 q 384 572 367 564 q 414 581 401 581 q 464 572 442 578 q 499 555 485 567 q 522 522 514 543 q 529 471 529 502 l 529 452 q 529 427 529 438 q 526 407 528 415 q 522 402 525 406 q 516 394 519 399 q 511 386 513 390 q 508 379 509 381 q 495 347 500 366 q 481 313 490 328 q 466 299 476 308 q 446 280 456 290 q 428 260 436 270 q 420 241 420 250 q 421 237 420 240 q 422 233 422 233 l 426 223 q 422 207 426 215 q 414 191 419 199 q 403 175 409 182 q 393 159 397 167 q 371 118 382 139 q 352 75 361 97 q 345 70 350 71 q 335 67 340 68 q 325 65 330 66 q 318 63 320 64 q 315 56 317 63 q 313 50 314 54 q 283 25 303 37 q 240 5 263 14 q 196 -8 218 -3 q 159 -13 174 -13 q 85 9 118 -13 q 35 67 52 31 l 35 111 m 132 134 q 136 127 132 132 q 143 121 140 122 q 144 116 143 119 q 146 111 145 113 q 150 97 149 104 q 154 82 151 89 q 163 72 157 76 q 178 67 168 67 q 193 76 182 67 q 219 97 205 84 q 250 124 234 109 q 280 153 267 140 q 303 176 294 166 q 313 188 313 186 q 315 194 314 189 q 318 204 317 199 q 320 215 319 210 q 323 222 321 220 q 336 236 326 230 q 352 246 347 242 q 360 262 357 254 q 363 278 362 270 q 366 293 364 286 q 371 307 367 300 q 375 312 371 307 q 383 321 378 316 q 392 330 388 326 q 397 336 395 334 q 400 341 397 337 q 404 346 404 345 q 410 399 406 371 q 414 454 414 428 q 413 479 414 467 q 408 502 412 492 q 395 519 404 513 q 371 526 386 526 q 350 523 359 526 q 330 515 340 519 q 309 506 319 511 q 286 500 298 502 q 278 492 283 498 q 267 480 273 486 q 252 465 258 472 q 243 456 245 458 q 231 440 235 449 q 223 423 227 432 q 216 406 220 414 q 208 389 213 397 l 197 379 q 197 374 197 378 q 196 365 197 370 q 195 356 195 360 q 193 350 194 351 q 193 345 193 349 q 191 337 192 341 q 188 329 189 333 q 185 325 186 326 q 154 264 172 294 q 132 204 137 235 q 132 200 132 203 q 134 192 133 197 q 136 183 135 187 q 136 177 136 179 l 136 164 q 134 150 136 155 q 132 135 132 144 l 132 134 z "}}}
